<ttFont>
    <TTGlyph name="A" xMin="-113" yMin="0" xMax="1507" yMax="1466">
      <contour>
        <pt x="731" y="37" on="1"/>
        <pt x="883" y="37" on="1"/>
        <pt x="741" y="375" on="1"/>
        <pt x="289" y="375" on="1"/>
        <pt x="154" y="31" on="1"/>
        <pt x="412" y="31" on="1"/>
        <pt x="412" y="0" on="1"/>
        <pt x="-113" y="0" on="1"/>
        <pt x="-113" y="35" on="1"/>
        <pt x="117" y="35" on="1"/>
        <pt x="489" y="971" on="1"/>
        <pt x="686" y="1466" on="1"/>
        <pt x="1323" y="37" on="1"/>
        <pt x="1507" y="37" on="1"/>
        <pt x="1507" y="0" on="1"/>
        <pt x="731" y="0" on="1"/>
      </contour>
      <contour>
        <pt x="303" y="412" on="1"/>
        <pt x="725" y="412" on="1"/>
        <pt x="508" y="924" on="1"/>
      </contour>
    </TTGlyph>
    <TTGlyph name="AE" xMin="-63" yMin="-6" xMax="2081" yMax="1409">
      <contour>
        <pt x="768" y="1407" on="1"/>
        <pt x="1980" y="1409" on="1"/>
        <pt x="1970" y="696" on="1"/>
        <pt x="1933" y="696" on="1"/>
        <pt x="1935" y="822" on="0"/>
        <pt x="1902" y="1015" on="0"/>
        <pt x="1847" y="1157" on="0"/>
        <pt x="1775" y="1254" on="0"/>
        <pt x="1699" y="1318" on="0"/>
        <pt x="1626" y="1352" on="0"/>
        <pt x="1569" y="1368" on="0"/>
        <pt x="1534" y="1372" on="0"/>
        <pt x="1534" y="1372" on="1"/>
        <pt x="1505" y="1372" on="0"/>
        <pt x="1444" y="1370" on="0"/>
        <pt x="1415" y="1370" on="1"/>
        <pt x="1414" y="1358" on="0"/>
        <pt x="1411" y="1280" on="0"/>
        <pt x="1405" y="1125" on="0"/>
        <pt x="1397" y="880" on="0"/>
        <pt x="1393" y="702" on="1"/>
        <pt x="1430" y="705" on="1"/>
        <pt x="1436" y="705" on="1"/>
        <pt x="1444" y="705" on="0"/>
        <pt x="1488" y="712" on="0"/>
        <pt x="1543" y="735" on="0"/>
        <pt x="1603" y="779" on="0"/>
        <pt x="1652" y="853" on="0"/>
        <pt x="1682" y="964" on="0"/>
        <pt x="1681" y="1042" on="1"/>
        <pt x="1718" y="1042" on="1"/>
        <pt x="1681" y="1042" on="1"/>
        <pt x="1718" y="1042" on="1"/>
        <pt x="1708" y="279" on="1"/>
        <pt x="1671" y="279" on="1"/>
        <pt x="1668" y="377" on="0"/>
        <pt x="1646" y="458" on="1"/>
        <pt x="1637" y="492" on="0"/>
        <pt x="1607" y="560" on="0"/>
        <pt x="1564" y="617" on="0"/>
        <pt x="1506" y="657" on="0"/>
        <pt x="1468" y="664" on="1"/>
        <pt x="1393" y="666" on="1"/>
        <pt x="1380" y="35" on="1"/>
        <pt x="1640" y="35" on="1"/>
        <pt x="1663" y="37" on="0"/>
        <pt x="1738" y="55" on="0"/>
        <pt x="1826" y="97" on="0"/>
        <pt x="1916" y="169" on="0"/>
        <pt x="1991" y="284" on="0"/>
        <pt x="2040" y="447" on="0"/>
        <pt x="2044" y="559" on="1"/>
        <pt x="2081" y="559" on="1"/>
        <pt x="2064" y="-2" on="1"/>
        <pt x="770" y="-2" on="1"/>
        <pt x="770" y="35" on="1"/>
        <pt x="1006" y="35" on="1"/>
        <pt x="1008" y="375" on="1"/>
        <pt x="422" y="375" on="1"/>
        <pt x="211" y="33" on="1"/>
        <pt x="459" y="31" on="1"/>
        <pt x="459" y="-6" on="1"/>
        <pt x="-63" y="0" on="1"/>
        <pt x="-63" y="37" on="1"/>
        <pt x="166" y="33" on="1"/>
        <pt x="989" y="1370" on="1"/>
        <pt x="768" y="1370" on="1"/>
      </contour>
      <contour>
        <pt x="444" y="412" on="1"/>
        <pt x="1008" y="412" on="1"/>
        <pt x="1012" y="1327" on="1"/>
      </contour>
    </TTGlyph>
    <TTGlyph name="AEacute" xMin="-63" yMin="-6" xMax="2081" yMax="1846">
      <component glyphName="AE" x="0" y="0" flags="0x204"/>
      <component glyphName="acute" x="1219" y="492" flags="0x4"/>
    </TTGlyph>
    <TTGlyph name="Aacute" xMin="-113" yMin="0" xMax="1507" yMax="1868">
      <component glyphName="A" x="0" y="0" flags="0x204"/>
      <component glyphName="acute" x="702" y="514" flags="0x4"/>
    </TTGlyph>
    <TTGlyph name="Abreve" xMin="-113" yMin="0" xMax="1507" yMax="1794">
      <component glyphName="A" x="0" y="0" flags="0x204"/>
      <component glyphName="breve" x="469" y="563" flags="0x4"/>
    </TTGlyph>
    <TTGlyph name="Acircumflex" xMin="-111" yMin="0" xMax="1509" yMax="1767">
      <component glyphName="A" x="2" y="0" flags="0x4"/>
      <component glyphName="circumflex" x="453" y="469" flags="0x4"/>
    </TTGlyph>
    <TTGlyph name="Adieresis" xMin="-111" yMin="0" xMax="1509" yMax="1677">
      <component glyphName="A" x="2" y="0" flags="0x4"/>
      <component glyphName="dieresis" x="432" y="397" flags="0x4"/>
    </TTGlyph>
    <TTGlyph name="Agrave" xMin="-113" yMin="0" xMax="1507" yMax="1858">
      <component glyphName="A" x="0" y="0" flags="0x204"/>
      <component glyphName="grave" x="252" y="504" flags="0x4"/>
    </TTGlyph>
    <TTGlyph name="Amacron" xMin="-113" yMin="0" xMax="1507" yMax="1712">
      <component glyphName="A" x="0" y="0" flags="0x204"/>
      <component glyphName="macron" x="467" y="563" flags="0x4"/>
    </TTGlyph>
    <TTGlyph name="Aogonek" xMin="-113" yMin="-375" xMax="1507" yMax="1466">
      <contour>
        <pt x="731" y="37" on="1"/>
        <pt x="883" y="37" on="1"/>
        <pt x="741" y="375" on="1"/>
        <pt x="289" y="375" on="1"/>
        <pt x="154" y="31" on="1"/>
        <pt x="412" y="31" on="1"/>
        <pt x="412" y="0" on="1"/>
        <pt x="-113" y="0" on="1"/>
        <pt x="-113" y="35" on="1"/>
        <pt x="117" y="35" on="1"/>
        <pt x="489" y="971" on="1"/>
        <pt x="686" y="1466" on="1"/>
        <pt x="1323" y="37" on="1"/>
        <pt x="1507" y="37" on="1"/>
        <pt x="1507" y="0" on="1"/>
        <pt x="1141" y="0" on="1"/>
        <pt x="1109" y="-45" on="0"/>
        <pt x="1065" y="-132" on="0"/>
        <pt x="1065" y="-178" on="1"/>
        <pt x="1065" y="-212" on="0"/>
        <pt x="1094" y="-250" on="0"/>
        <pt x="1120" y="-250" on="1"/>
        <pt x="1146" y="-250" on="0"/>
        <pt x="1187" y="-238" on="0"/>
        <pt x="1201" y="-230" on="1"/>
        <pt x="1217" y="-221" on="0"/>
        <pt x="1229" y="-209" on="1"/>
        <pt x="1257" y="-229" on="1"/>
        <pt x="1220" y="-304" on="0"/>
        <pt x="1119" y="-375" on="0"/>
        <pt x="1047" y="-375" on="1"/>
        <pt x="1018" y="-375" on="0"/>
        <pt x="967" y="-354" on="0"/>
        <pt x="930" y="-318" on="0"/>
        <pt x="909" y="-268" on="0"/>
        <pt x="909" y="-238" on="1"/>
        <pt x="909" y="-178" on="0"/>
        <pt x="983" y="-59" on="0"/>
        <pt x="1061" y="0" on="1"/>
        <pt x="731" y="0" on="1"/>
      </contour>
      <contour>
        <pt x="303" y="412" on="1"/>
        <pt x="725" y="412" on="1"/>
        <pt x="508" y="924" on="1"/>
      </contour>
    </TTGlyph>
    <TTGlyph name="Aring" xMin="-113" yMin="0" xMax="1507" yMax="1869">
      <component glyphName="A" x="0" y="0" flags="0x204"/>
      <component glyphName="ring" x="463" y="526" flags="0x4"/>
    </TTGlyph>
    <TTGlyph name="Atilde" xMin="-113" yMin="0" xMax="1507" yMax="1725">
      <component glyphName="A" x="0" y="0" flags="0x204"/>
      <component glyphName="tilde" x="436" y="508" flags="0x4"/>
    </TTGlyph>
    <TTGlyph name="B" xMin="23" yMin="-21" xMax="1468" yMax="1395">
      <contour>
        <pt x="70" y="1395" on="1"/>
        <pt x="655" y="1395" on="1"/>
        <pt x="699" y="1395" on="0"/>
        <pt x="810" y="1393" on="0"/>
        <pt x="932" y="1384" on="0"/>
        <pt x="1059" y="1367" on="0"/>
        <pt x="1179" y="1338" on="0"/>
        <pt x="1284" y="1295" on="0"/>
        <pt x="1363" y="1235" on="0"/>
        <pt x="1409" y="1154" on="0"/>
        <pt x="1409" y="1102" on="1"/>
        <pt x="1409" y="1031" on="0"/>
        <pt x="1331" y="919" on="0"/>
        <pt x="1200" y="836" on="0"/>
        <pt x="1028" y="779" on="0"/>
        <pt x="934" y="764" on="1"/>
        <pt x="1034" y="748" on="0"/>
        <pt x="1186" y="700" on="0"/>
        <pt x="1299" y="641" on="0"/>
        <pt x="1376" y="577" on="0"/>
        <pt x="1401" y="546" on="1"/>
        <pt x="1460" y="473" on="0"/>
        <pt x="1468" y="391" on="1"/>
        <pt x="1468" y="300" on="0"/>
        <pt x="1403" y="168" on="0"/>
        <pt x="1294" y="77" on="0"/>
        <pt x="1152" y="21" on="0"/>
        <pt x="998" y="-10" on="0"/>
        <pt x="842" y="-20" on="0"/>
        <pt x="774" y="-20" on="1"/>
        <pt x="741" y="-20" on="0"/>
        <pt x="685" y="-21" on="0"/>
        <pt x="615" y="-20" on="0"/>
        <pt x="518" y="-18" on="0"/>
        <pt x="373" y="-13" on="0"/>
        <pt x="168" y="-2" on="0"/>
        <pt x="23" y="6" on="1"/>
        <pt x="27" y="29" on="1"/>
        <pt x="303" y="29" on="1"/>
        <pt x="303" y="1358" on="1"/>
        <pt x="70" y="1358" on="1"/>
      </contour>
      <contour>
        <pt x="664" y="745" on="1"/>
        <pt x="653" y="18" on="1"/>
        <pt x="679" y="16" on="0"/>
        <pt x="740" y="16" on="0"/>
        <pt x="774" y="16" on="1"/>
        <pt x="855" y="22" on="0"/>
        <pt x="978" y="66" on="0"/>
        <pt x="1061" y="153" on="0"/>
        <pt x="1106" y="290" on="0"/>
        <pt x="1110" y="389" on="1"/>
        <pt x="1110" y="484" on="0"/>
        <pt x="1069" y="619" on="0"/>
        <pt x="967" y="705" on="0"/>
        <pt x="795" y="745" on="0"/>
      </contour>
      <contour>
        <pt x="1063" y="1085" on="1"/>
        <pt x="1062" y="1084" on="0"/>
        <pt x="1062" y="1123" on="0"/>
        <pt x="1052" y="1183" on="0"/>
        <pt x="1026" y="1253" on="0"/>
        <pt x="973" y="1314" on="0"/>
        <pt x="887" y="1354" on="0"/>
        <pt x="823" y="1354" on="1"/>
        <pt x="780" y="1354" on="0"/>
        <pt x="703" y="1358" on="0"/>
        <pt x="672" y="1358" on="1"/>
        <pt x="664" y="786" on="1"/>
        <pt x="684" y="786" on="0"/>
        <pt x="723" y="784" on="0"/>
        <pt x="741" y="782" on="1"/>
        <pt x="799" y="782" on="0"/>
        <pt x="908" y="804" on="0"/>
        <pt x="997" y="868" on="0"/>
        <pt x="1056" y="987" on="0"/>
      </contour>
    </TTGlyph>
    <TTGlyph name="C" xMin="94" yMin="-31" xMax="1407" yMax="1434">
      <contour>
        <pt x="797" y="6" on="1"/>
        <pt x="826" y="6" on="0"/>
        <pt x="906" y="8" on="0"/>
        <pt x="998" y="28" on="0"/>
        <pt x="1098" y="72" on="0"/>
        <pt x="1197" y="155" on="0"/>
        <pt x="1291" y="285" on="0"/>
        <pt x="1331" y="381" on="1"/>
        <pt x="1364" y="369" on="1"/>
        <pt x="1323" y="271" on="0"/>
        <pt x="1228" y="136" on="0"/>
        <pt x="1127" y="47" on="0"/>
        <pt x="1025" y="-3" on="0"/>
        <pt x="929" y="-26" on="0"/>
        <pt x="844" y="-31" on="0"/>
        <pt x="811" y="-31" on="1"/>
        <pt x="781" y="-31" on="0"/>
        <pt x="688" y="-26" on="0"/>
        <pt x="576" y="-6" on="0"/>
        <pt x="453" y="34" on="0"/>
        <pt x="333" y="103" on="0"/>
        <pt x="225" y="206" on="0"/>
        <pt x="143" y="353" on="0"/>
        <pt x="94" y="549" on="0"/>
        <pt x="94" y="676" on="1"/>
        <pt x="94" y="837" on="0"/>
        <pt x="168" y="1074" on="0"/>
        <pt x="291" y="1241" on="0"/>
        <pt x="449" y="1348" on="0"/>
        <pt x="615" y="1409" on="0"/>
        <pt x="777" y="1433" on="0"/>
        <pt x="842" y="1434" on="1"/>
        <pt x="856" y="1434" on="1"/>
        <pt x="980" y="1434" on="0"/>
        <pt x="1183" y="1367" on="0"/>
        <pt x="1328" y="1255" on="0"/>
        <pt x="1407" y="1111" on="0"/>
        <pt x="1407" y="1034" on="1"/>
        <pt x="1407" y="997" on="0"/>
        <pt x="1379" y="934" on="0"/>
        <pt x="1334" y="888" on="0"/>
        <pt x="1274" y="862" on="0"/>
        <pt x="1243" y="862" on="1"/>
        <pt x="1211" y="863" on="0"/>
        <pt x="1146" y="893" on="0"/>
        <pt x="1092" y="947" on="0"/>
        <pt x="1053" y="1025" on="0"/>
        <pt x="1047" y="1073" on="1"/>
        <pt x="1040" y="1120" on="1"/>
        <pt x="1034" y="1165" on="0"/>
        <pt x="1014" y="1262" on="0"/>
        <pt x="973" y="1344" on="0"/>
        <pt x="907" y="1397" on="0"/>
        <pt x="856" y="1397" on="1"/>
        <pt x="844" y="1397" on="1"/>
        <pt x="802" y="1394" on="0"/>
        <pt x="714" y="1359" on="0"/>
        <pt x="631" y="1286" on="0"/>
        <pt x="556" y="1173" on="0"/>
        <pt x="500" y="1014" on="0"/>
        <pt x="467" y="803" on="0"/>
        <pt x="467" y="670" on="1"/>
        <pt x="467" y="536" on="0"/>
        <pt x="496" y="335" on="0"/>
        <pt x="545" y="188" on="0"/>
        <pt x="610" y="91" on="0"/>
        <pt x="681" y="33" on="0"/>
        <pt x="753" y="7" on="0"/>
        <pt x="786" y="6" on="1"/>
      </contour>
    </TTGlyph>
    <TTGlyph name="Cacute" xMin="94" yMin="-31" xMax="1407" yMax="1860">
      <component glyphName="C" x="0" y="0" flags="0x204"/>
      <component glyphName="acute" x="774" y="506" flags="0x4"/>
    </TTGlyph>
    <TTGlyph name="Ccaron" xMin="94" yMin="-31" xMax="1407" yMax="1843">
      <component glyphName="C" x="0" y="0" flags="0x204"/>
      <component glyphName="caron" x="629" y="555" flags="0x4"/>
    </TTGlyph>
    <TTGlyph name="Ccedilla" xMin="94" yMin="-377" xMax="1407" yMax="1434">
      <contour>
        <pt x="797" y="6" on="1"/>
        <pt x="826" y="6" on="0"/>
        <pt x="906" y="8" on="0"/>
        <pt x="998" y="28" on="0"/>
        <pt x="1098" y="72" on="0"/>
        <pt x="1197" y="155" on="0"/>
        <pt x="1291" y="285" on="0"/>
        <pt x="1331" y="381" on="1"/>
        <pt x="1364" y="369" on="1"/>
        <pt x="1323" y="271" on="0"/>
        <pt x="1228" y="136" on="0"/>
        <pt x="1127" y="47" on="0"/>
        <pt x="1025" y="-3" on="0"/>
        <pt x="929" y="-26" on="0"/>
        <pt x="844" y="-31" on="0"/>
        <pt x="811" y="-31" on="1"/>
        <pt x="799" y="-31" on="1"/>
        <pt x="780" y="-123" on="1"/>
        <pt x="799" y="-118" on="0"/>
        <pt x="834" y="-115" on="0"/>
        <pt x="850" y="-115" on="1"/>
        <pt x="887" y="-115" on="0"/>
        <pt x="948" y="-134" on="0"/>
        <pt x="993" y="-167" on="0"/>
        <pt x="1018" y="-211" on="0"/>
        <pt x="1018" y="-236" on="1"/>
        <pt x="1018" y="-271" on="0"/>
        <pt x="983" y="-323" on="0"/>
        <pt x="925" y="-359" on="0"/>
        <pt x="850" y="-377" on="0"/>
        <pt x="809" y="-377" on="1"/>
        <pt x="744" y="-377" on="0"/>
        <pt x="624" y="-329" on="0"/>
        <pt x="590" y="-279" on="1"/>
        <pt x="616" y="-256" on="1"/>
        <pt x="633" y="-272" on="1"/>
        <pt x="642" y="-281" on="0"/>
        <pt x="663" y="-300" on="0"/>
        <pt x="695" y="-315" on="0"/>
        <pt x="740" y="-324" on="0"/>
        <pt x="772" y="-324" on="1"/>
        <pt x="803" y="-324" on="0"/>
        <pt x="834" y="-267" on="0"/>
        <pt x="834" y="-229" on="1"/>
        <pt x="834" y="-205" on="0"/>
        <pt x="795" y="-176" on="0"/>
        <pt x="764" y="-176" on="1"/>
        <pt x="756" y="-176" on="0"/>
        <pt x="738" y="-178" on="0"/>
        <pt x="729" y="-180" on="1"/>
        <pt x="760" y="-29" on="1"/>
        <pt x="709" y="-27" on="0"/>
        <pt x="571" y="-7" on="0"/>
        <pt x="423" y="47" on="0"/>
        <pt x="279" y="143" on="0"/>
        <pt x="164" y="298" on="0"/>
        <pt x="94" y="521" on="0"/>
        <pt x="94" y="676" on="1"/>
        <pt x="94" y="837" on="0"/>
        <pt x="168" y="1074" on="0"/>
        <pt x="291" y="1241" on="0"/>
        <pt x="449" y="1348" on="0"/>
        <pt x="615" y="1409" on="0"/>
        <pt x="777" y="1433" on="0"/>
        <pt x="842" y="1434" on="1"/>
        <pt x="856" y="1434" on="1"/>
        <pt x="980" y="1434" on="0"/>
        <pt x="1183" y="1367" on="0"/>
        <pt x="1328" y="1255" on="0"/>
        <pt x="1407" y="1111" on="0"/>
        <pt x="1407" y="1034" on="1"/>
        <pt x="1407" y="997" on="0"/>
        <pt x="1379" y="934" on="0"/>
        <pt x="1334" y="888" on="0"/>
        <pt x="1274" y="862" on="0"/>
        <pt x="1243" y="862" on="1"/>
        <pt x="1211" y="863" on="0"/>
        <pt x="1146" y="893" on="0"/>
        <pt x="1092" y="947" on="0"/>
        <pt x="1053" y="1025" on="0"/>
        <pt x="1047" y="1073" on="1"/>
        <pt x="1040" y="1120" on="1"/>
        <pt x="1034" y="1165" on="0"/>
        <pt x="1014" y="1262" on="0"/>
        <pt x="973" y="1344" on="0"/>
        <pt x="907" y="1397" on="0"/>
        <pt x="856" y="1397" on="1"/>
        <pt x="844" y="1397" on="1"/>
        <pt x="802" y="1394" on="0"/>
        <pt x="714" y="1359" on="0"/>
        <pt x="631" y="1286" on="0"/>
        <pt x="556" y="1173" on="0"/>
        <pt x="500" y="1014" on="0"/>
        <pt x="467" y="803" on="0"/>
        <pt x="467" y="670" on="1"/>
        <pt x="467" y="536" on="0"/>
        <pt x="496" y="335" on="0"/>
        <pt x="545" y="188" on="0"/>
        <pt x="610" y="91" on="0"/>
        <pt x="681" y="33" on="0"/>
        <pt x="753" y="7" on="0"/>
        <pt x="786" y="6" on="1"/>
      </contour>
    </TTGlyph>
    <TTGlyph name="Ccircumflex" xMin="94" yMin="-31" xMax="1407" yMax="1837">
      <component glyphName="C" x="0" y="0" flags="0x204"/>
      <component glyphName="circumflex" x="594" y="539" flags="0x4"/>
    </TTGlyph>
    <TTGlyph name="Cdotaccent" xMin="94" yMin="-31" xMax="1407" yMax="1767">
      <component glyphName="C" x="0" y="0" flags="0x204"/>
      <component glyphName="dotaccent" x="711" y="487" flags="0x4"/>
    </TTGlyph>
    <TTGlyph name="D" xMin="80" yMin="-25" xMax="1518" yMax="1413">
      <contour>
        <pt x="82" y="1368" on="1"/>
        <pt x="123" y="1375" on="0"/>
        <pt x="217" y="1386" on="0"/>
        <pt x="316" y="1395" on="0"/>
        <pt x="416" y="1402" on="0"/>
        <pt x="461" y="1404" on="1"/>
        <pt x="567" y="1409" on="0"/>
        <pt x="676" y="1411" on="1"/>
        <pt x="691" y="1413" on="0"/>
        <pt x="733" y="1413" on="0"/>
        <pt x="750" y="1413" on="1"/>
        <pt x="832" y="1413" on="0"/>
        <pt x="1010" y="1386" on="0"/>
        <pt x="1181" y="1322" on="0"/>
        <pt x="1334" y="1217" on="0"/>
        <pt x="1450" y="1061" on="0"/>
        <pt x="1518" y="849" on="0"/>
        <pt x="1518" y="711" on="1"/>
        <pt x="1518" y="606" on="0"/>
        <pt x="1466" y="432" on="0"/>
        <pt x="1375" y="289" on="0"/>
        <pt x="1253" y="176" on="0"/>
        <pt x="1114" y="91" on="0"/>
        <pt x="966" y="30" on="0"/>
        <pt x="821" y="-8" on="0"/>
        <pt x="687" y="-25" on="0"/>
        <pt x="633" y="-25" on="1"/>
        <pt x="624" y="-25" on="0"/>
        <pt x="605" y="-23" on="0"/>
        <pt x="596" y="-23" on="1"/>
        <pt x="575" y="-23" on="0"/>
        <pt x="472" y="-20" on="0"/>
        <pt x="331" y="-11" on="0"/>
        <pt x="164" y="5" on="0"/>
        <pt x="80" y="18" on="1"/>
        <pt x="84" y="55" on="1"/>
        <pt x="134" y="47" on="0"/>
        <pt x="232" y="36" on="0"/>
        <pt x="279" y="31" on="1"/>
        <pt x="279" y="1356" on="1"/>
        <pt x="231" y="1351" on="0"/>
        <pt x="137" y="1339" on="0"/>
        <pt x="90" y="1331" on="1"/>
      </contour>
      <contour>
        <pt x="1147" y="717" on="1"/>
        <pt x="1147" y="743" on="1"/>
        <pt x="1147" y="768" on="0"/>
        <pt x="1143" y="847" on="0"/>
        <pt x="1128" y="944" on="0"/>
        <pt x="1099" y="1052" on="0"/>
        <pt x="1050" y="1157" on="0"/>
        <pt x="978" y="1252" on="0"/>
        <pt x="876" y="1325" on="0"/>
        <pt x="742" y="1368" on="0"/>
        <pt x="655" y="1368" on="1"/>
        <pt x="655" y="14" on="1"/>
        <pt x="748" y="14" on="0"/>
        <pt x="888" y="73" on="0"/>
        <pt x="992" y="169" on="0"/>
        <pt x="1063" y="293" on="0"/>
        <pt x="1109" y="423" on="0"/>
        <pt x="1134" y="548" on="0"/>
        <pt x="1145" y="648" on="0"/>
        <pt x="1147" y="713" on="0"/>
      </contour>
    </TTGlyph>
    <TTGlyph name="Dcaron" xMin="80" yMin="-25" xMax="1518" yMax="1851">
      <component glyphName="D" x="0" y="0" flags="0x204"/>
      <component glyphName="caron" x="571" y="563" flags="0x4"/>
    </TTGlyph>
    <TTGlyph name="Dcroat" xMin="88" yMin="-25" xMax="1526" yMax="1413">
      <component glyphName="Eth" x="0" y="0" flags="0x204"/>
    </TTGlyph>
    <TTGlyph name="E" xMin="49" yMin="-2" xMax="1362" yMax="1409">
      <contour>
        <pt x="49" y="1407" on="1"/>
        <pt x="1262" y="1409" on="1"/>
        <pt x="1251" y="696" on="1"/>
        <pt x="1214" y="696" on="1"/>
        <pt x="1216" y="822" on="0"/>
        <pt x="1183" y="1015" on="0"/>
        <pt x="1128" y="1157" on="0"/>
        <pt x="1056" y="1254" on="0"/>
        <pt x="980" y="1318" on="0"/>
        <pt x="907" y="1352" on="0"/>
        <pt x="850" y="1368" on="0"/>
        <pt x="815" y="1372" on="0"/>
        <pt x="815" y="1372" on="1"/>
        <pt x="786" y="1372" on="0"/>
        <pt x="725" y="1370" on="0"/>
        <pt x="696" y="1370" on="1"/>
        <pt x="695" y="1358" on="0"/>
        <pt x="692" y="1280" on="0"/>
        <pt x="686" y="1125" on="0"/>
        <pt x="678" y="880" on="0"/>
        <pt x="674" y="702" on="1"/>
        <pt x="683" y="703" on="0"/>
        <pt x="734" y="707" on="0"/>
        <pt x="799" y="726" on="0"/>
        <pt x="869" y="767" on="0"/>
        <pt x="927" y="842" on="0"/>
        <pt x="964" y="958" on="0"/>
        <pt x="963" y="1042" on="1"/>
        <pt x="999" y="1042" on="1"/>
        <pt x="963" y="1042" on="1"/>
        <pt x="999" y="1042" on="1"/>
        <pt x="989" y="279" on="1"/>
        <pt x="952" y="279" on="1"/>
        <pt x="949" y="377" on="0"/>
        <pt x="927" y="458" on="1"/>
        <pt x="918" y="492" on="0"/>
        <pt x="888" y="560" on="0"/>
        <pt x="846" y="617" on="0"/>
        <pt x="788" y="657" on="0"/>
        <pt x="750" y="664" on="1"/>
        <pt x="674" y="666" on="1"/>
        <pt x="662" y="35" on="1"/>
        <pt x="922" y="35" on="1"/>
        <pt x="944" y="37" on="0"/>
        <pt x="1020" y="55" on="0"/>
        <pt x="1107" y="97" on="0"/>
        <pt x="1197" y="169" on="0"/>
        <pt x="1272" y="284" on="0"/>
        <pt x="1321" y="447" on="0"/>
        <pt x="1325" y="559" on="1"/>
        <pt x="1362" y="559" on="1"/>
        <pt x="1346" y="-2" on="1"/>
        <pt x="51" y="-2" on="1"/>
        <pt x="51" y="35" on="1"/>
        <pt x="287" y="35" on="1"/>
        <pt x="293" y="1370" on="1"/>
        <pt x="49" y="1370" on="1"/>
      </contour>
    </TTGlyph>
    <TTGlyph name="Eacute" xMin="49" yMin="-2" xMax="1362" yMax="1848">
      <component glyphName="E" x="0" y="0" flags="0x204"/>
      <component glyphName="acute" x="733" y="494" flags="0x4"/>
    </TTGlyph>
    <TTGlyph name="Ebreve" xMin="49" yMin="-2" xMax="1362" yMax="1761">
      <component glyphName="E" x="0" y="0" flags="0x204"/>
      <component glyphName="breve" x="528" y="530" flags="0x4"/>
    </TTGlyph>
    <TTGlyph name="Ecaron" xMin="49" yMin="-2" xMax="1362" yMax="1851">
      <component glyphName="E" x="0" y="0" flags="0x204"/>
      <component glyphName="caron" x="500" y="563" flags="0x4"/>
    </TTGlyph>
    <TTGlyph name="Ecircumflex" xMin="49" yMin="-2" xMax="1362" yMax="1820">
      <component glyphName="E" x="0" y="0" flags="0x204"/>
      <component glyphName="circumflex" x="465" y="522" flags="0x4"/>
    </TTGlyph>
    <TTGlyph name="Edieresis" xMin="49" yMin="-2" xMax="1362" yMax="1749">
      <component glyphName="E" x="0" y="0" flags="0x204"/>
      <component glyphName="dieresis" x="420" y="469" flags="0x4"/>
    </TTGlyph>
    <TTGlyph name="Edotaccent" xMin="49" yMin="-2" xMax="1362" yMax="1759">
      <component glyphName="E" x="0" y="0" flags="0x204"/>
      <component glyphName="dotaccent" x="606" y="479" flags="0x4"/>
    </TTGlyph>
    <TTGlyph name="Egrave" xMin="49" yMin="-2" xMax="1362" yMax="1843">
      <component glyphName="E" x="0" y="0" flags="0x204"/>
      <component glyphName="grave" x="303" y="489" flags="0x4"/>
    </TTGlyph>
    <TTGlyph name="Emacron" xMin="49" yMin="-2" xMax="1362" yMax="1688">
      <component glyphName="E" x="0" y="0" flags="0x204"/>
      <component glyphName="macron" x="492" y="539" flags="0x4"/>
    </TTGlyph>
    <TTGlyph name="Eng" xMin="45" yMin="-690" xMax="1571" yMax="1411">
      <contour>
        <pt x="78" y="1405" on="1"/>
        <pt x="563" y="1411" on="1"/>
        <pt x="1305" y="545" on="1"/>
        <pt x="1305" y="1360" on="1"/>
        <pt x="1081" y="1368" on="1"/>
        <pt x="1081" y="1405" on="1"/>
        <pt x="1571" y="1389" on="1"/>
        <pt x="1571" y="1352" on="1"/>
        <pt x="1341" y="1360" on="1"/>
        <pt x="1341" y="-131" on="1"/>
        <pt x="1340" y="-226" on="0"/>
        <pt x="1288" y="-383" on="0"/>
        <pt x="1201" y="-507" on="0"/>
        <pt x="1085" y="-599" on="0"/>
        <pt x="955" y="-660" on="0"/>
        <pt x="818" y="-690" on="0"/>
        <pt x="754" y="-690" on="1"/>
        <pt x="657" y="-690" on="0"/>
        <pt x="495" y="-661" on="0"/>
        <pt x="365" y="-594" on="0"/>
        <pt x="265" y="-486" on="0"/>
        <pt x="231" y="-406" on="1"/>
        <pt x="216" y="-370" on="0"/>
        <pt x="203" y="-305" on="0"/>
        <pt x="203" y="-276" on="1"/>
        <pt x="203" y="-233" on="0"/>
        <pt x="233" y="-156" on="0"/>
        <pt x="286" y="-99" on="0"/>
        <pt x="359" y="-66" on="0"/>
        <pt x="403" y="-66" on="1"/>
        <pt x="445" y="-66" on="0"/>
        <pt x="508" y="-99" on="0"/>
        <pt x="551" y="-156" on="0"/>
        <pt x="573" y="-234" on="0"/>
        <pt x="573" y="-279" on="1"/>
        <pt x="573" y="-316" on="0"/>
        <pt x="559" y="-389" on="0"/>
        <pt x="559" y="-432" on="1"/>
        <pt x="559" y="-483" on="0"/>
        <pt x="586" y="-564" on="0"/>
        <pt x="637" y="-622" on="0"/>
        <pt x="709" y="-653" on="0"/>
        <pt x="754" y="-653" on="1"/>
        <pt x="805" y="-653" on="0"/>
        <pt x="886" y="-607" on="0"/>
        <pt x="943" y="-492" on="0"/>
        <pt x="973" y="-295" on="0"/>
        <pt x="973" y="-143" on="1"/>
        <pt x="973" y="346" on="1"/>
        <pt x="336" y="1061" on="1"/>
        <pt x="311" y="33" on="1"/>
        <pt x="532" y="39" on="1"/>
        <pt x="532" y="2" on="1"/>
        <pt x="45" y="-10" on="1"/>
        <pt x="45" y="27" on="1"/>
        <pt x="274" y="33" on="1"/>
        <pt x="307" y="1370" on="1"/>
        <pt x="78" y="1368" on="1"/>
      </contour>
    </TTGlyph>
    <TTGlyph name="Eogonek" xMin="49" yMin="-375" xMax="1362" yMax="1409">
      <contour>
        <pt x="49" y="1407" on="1"/>
        <pt x="1262" y="1409" on="1"/>
        <pt x="1251" y="696" on="1"/>
        <pt x="1214" y="696" on="1"/>
        <pt x="1216" y="822" on="0"/>
        <pt x="1183" y="1015" on="0"/>
        <pt x="1128" y="1157" on="0"/>
        <pt x="1056" y="1254" on="0"/>
        <pt x="980" y="1318" on="0"/>
        <pt x="907" y="1352" on="0"/>
        <pt x="850" y="1368" on="0"/>
        <pt x="815" y="1372" on="0"/>
        <pt x="815" y="1372" on="1"/>
        <pt x="786" y="1372" on="0"/>
        <pt x="725" y="1370" on="0"/>
        <pt x="696" y="1370" on="1"/>
        <pt x="695" y="1358" on="0"/>
        <pt x="692" y="1280" on="0"/>
        <pt x="686" y="1125" on="0"/>
        <pt x="678" y="880" on="0"/>
        <pt x="674" y="702" on="1"/>
        <pt x="683" y="703" on="0"/>
        <pt x="734" y="707" on="0"/>
        <pt x="799" y="726" on="0"/>
        <pt x="869" y="767" on="0"/>
        <pt x="927" y="842" on="0"/>
        <pt x="964" y="958" on="0"/>
        <pt x="963" y="1042" on="1"/>
        <pt x="999" y="1042" on="1"/>
        <pt x="989" y="279" on="1"/>
        <pt x="952" y="279" on="1"/>
        <pt x="949" y="377" on="0"/>
        <pt x="927" y="458" on="1"/>
        <pt x="918" y="492" on="0"/>
        <pt x="888" y="560" on="0"/>
        <pt x="846" y="617" on="0"/>
        <pt x="788" y="657" on="0"/>
        <pt x="750" y="664" on="1"/>
        <pt x="674" y="666" on="1"/>
        <pt x="662" y="35" on="1"/>
        <pt x="922" y="35" on="1"/>
        <pt x="944" y="37" on="0"/>
        <pt x="1020" y="55" on="0"/>
        <pt x="1107" y="97" on="0"/>
        <pt x="1197" y="169" on="0"/>
        <pt x="1272" y="284" on="0"/>
        <pt x="1321" y="447" on="0"/>
        <pt x="1325" y="559" on="1"/>
        <pt x="1362" y="559" on="1"/>
        <pt x="1346" y="-2" on="1"/>
        <pt x="1243" y="-2" on="1"/>
        <pt x="1211" y="-47" on="0"/>
        <pt x="1169" y="-132" on="0"/>
        <pt x="1169" y="-178" on="1"/>
        <pt x="1169" y="-212" on="0"/>
        <pt x="1199" y="-250" on="0"/>
        <pt x="1225" y="-250" on="1"/>
        <pt x="1251" y="-250" on="0"/>
        <pt x="1291" y="-238" on="0"/>
        <pt x="1305" y="-230" on="1"/>
        <pt x="1321" y="-221" on="0"/>
        <pt x="1333" y="-209" on="1"/>
        <pt x="1362" y="-229" on="1"/>
        <pt x="1325" y="-304" on="0"/>
        <pt x="1223" y="-375" on="0"/>
        <pt x="1151" y="-375" on="1"/>
        <pt x="1122" y="-375" on="0"/>
        <pt x="1072" y="-354" on="0"/>
        <pt x="1035" y="-318" on="0"/>
        <pt x="1014" y="-268" on="0"/>
        <pt x="1014" y="-238" on="1"/>
        <pt x="1014" y="-119" on="0"/>
        <pt x="1161" y="-2" on="1"/>
        <pt x="51" y="-2" on="1"/>
        <pt x="51" y="35" on="1"/>
        <pt x="287" y="35" on="1"/>
        <pt x="293" y="1370" on="1"/>
        <pt x="49" y="1370" on="1"/>
      </contour>
    </TTGlyph>
    <TTGlyph name="Eth" xMin="88" yMin="-25" xMax="1526" yMax="1413">
      <contour>
        <pt x="90" y="1368" on="1"/>
        <pt x="249" y="1396" on="0"/>
        <pt x="577" y="1413" on="0"/>
        <pt x="758" y="1413" on="1"/>
        <pt x="840" y="1413" on="0"/>
        <pt x="1018" y="1386" on="0"/>
        <pt x="1189" y="1322" on="0"/>
        <pt x="1342" y="1217" on="0"/>
        <pt x="1458" y="1061" on="0"/>
        <pt x="1526" y="849" on="0"/>
        <pt x="1526" y="711" on="1"/>
        <pt x="1526" y="606" on="0"/>
        <pt x="1474" y="432" on="0"/>
        <pt x="1383" y="289" on="0"/>
        <pt x="1261" y="176" on="0"/>
        <pt x="1122" y="91" on="0"/>
        <pt x="974" y="30" on="0"/>
        <pt x="829" y="-8" on="0"/>
        <pt x="695" y="-25" on="0"/>
        <pt x="641" y="-25" on="1"/>
        <pt x="632" y="-25" on="0"/>
        <pt x="613" y="-23" on="0"/>
        <pt x="604" y="-23" on="1"/>
        <pt x="583" y="-23" on="0"/>
        <pt x="480" y="-20" on="0"/>
        <pt x="339" y="-11" on="0"/>
        <pt x="172" y="5" on="0"/>
        <pt x="88" y="18" on="1"/>
        <pt x="92" y="55" on="1"/>
        <pt x="142" y="47" on="0"/>
        <pt x="240" y="36" on="0"/>
        <pt x="287" y="31" on="1"/>
        <pt x="287" y="575" on="1"/>
        <pt x="111" y="580" on="1"/>
        <pt x="111" y="770" on="1"/>
        <pt x="287" y="770" on="1"/>
        <pt x="287" y="1356" on="1"/>
        <pt x="239" y="1351" on="0"/>
        <pt x="145" y="1339" on="0"/>
        <pt x="98" y="1331" on="1"/>
      </contour>
      <contour>
        <pt x="870" y="565" on="1"/>
        <pt x="664" y="569" on="1"/>
        <pt x="664" y="14" on="1"/>
        <pt x="756" y="14" on="0"/>
        <pt x="897" y="73" on="0"/>
        <pt x="1001" y="169" on="0"/>
        <pt x="1071" y="293" on="0"/>
        <pt x="1117" y="423" on="0"/>
        <pt x="1142" y="548" on="0"/>
        <pt x="1153" y="648" on="0"/>
        <pt x="1155" y="713" on="0"/>
        <pt x="1155" y="717" on="1"/>
        <pt x="1155" y="743" on="1"/>
        <pt x="1155" y="768" on="0"/>
        <pt x="1151" y="847" on="0"/>
        <pt x="1136" y="944" on="0"/>
        <pt x="1107" y="1052" on="0"/>
        <pt x="1058" y="1157" on="0"/>
        <pt x="986" y="1252" on="0"/>
        <pt x="885" y="1325" on="0"/>
        <pt x="751" y="1368" on="0"/>
        <pt x="664" y="1368" on="1"/>
        <pt x="664" y="770" on="1"/>
        <pt x="870" y="770" on="1"/>
      </contour>
    </TTGlyph>
    <TTGlyph name="Euro" xMin="61" yMin="-31" xMax="1772" yMax="1434">
      <contour>
        <pt x="1178" y="485" on="1"/>
        <pt x="840" y="489" on="1"/>
        <pt x="854" y="345" on="0"/>
        <pt x="922" y="160" on="0"/>
        <pt x="1010" y="51" on="0"/>
        <pt x="1108" y="7" on="0"/>
        <pt x="1151" y="6" on="1"/>
        <pt x="1161" y="6" on="1"/>
        <pt x="1191" y="6" on="0"/>
        <pt x="1271" y="8" on="0"/>
        <pt x="1363" y="28" on="0"/>
        <pt x="1463" y="72" on="0"/>
        <pt x="1562" y="155" on="0"/>
        <pt x="1656" y="285" on="0"/>
        <pt x="1696" y="381" on="1"/>
        <pt x="1729" y="369" on="1"/>
        <pt x="1688" y="271" on="0"/>
        <pt x="1593" y="136" on="0"/>
        <pt x="1492" y="47" on="0"/>
        <pt x="1390" y="-3" on="0"/>
        <pt x="1294" y="-26" on="0"/>
        <pt x="1209" y="-31" on="0"/>
        <pt x="1176" y="-31" on="1"/>
        <pt x="1140" y="-31" on="0"/>
        <pt x="1020" y="-23" on="0"/>
        <pt x="879" y="11" on="0"/>
        <pt x="729" y="78" on="0"/>
        <pt x="597" y="195" on="0"/>
        <pt x="496" y="371" on="0"/>
        <pt x="473" y="496" on="1"/>
        <pt x="61" y="504" on="1"/>
        <pt x="61" y="541" on="1"/>
        <pt x="467" y="532" on="1"/>
        <pt x="462" y="567" on="0"/>
        <pt x="459" y="638" on="0"/>
        <pt x="459" y="676" on="1"/>
        <pt x="459" y="696" on="0"/>
        <pt x="459" y="735" on="0"/>
        <pt x="461" y="754" on="1"/>
        <pt x="205" y="754" on="1"/>
        <pt x="205" y="791" on="1"/>
        <pt x="465" y="791" on="1"/>
        <pt x="479" y="926" on="0"/>
        <pt x="565" y="1126" on="0"/>
        <pt x="689" y="1268" on="0"/>
        <pt x="839" y="1359" on="0"/>
        <pt x="995" y="1412" on="0"/>
        <pt x="1145" y="1433" on="0"/>
        <pt x="1206" y="1434" on="1"/>
        <pt x="1221" y="1434" on="1"/>
        <pt x="1344" y="1434" on="0"/>
        <pt x="1547" y="1367" on="0"/>
        <pt x="1692" y="1255" on="0"/>
        <pt x="1772" y="1111" on="0"/>
        <pt x="1772" y="1034" on="1"/>
        <pt x="1772" y="997" on="0"/>
        <pt x="1744" y="934" on="0"/>
        <pt x="1699" y="888" on="0"/>
        <pt x="1639" y="862" on="0"/>
        <pt x="1608" y="862" on="1"/>
        <pt x="1576" y="863" on="0"/>
        <pt x="1511" y="893" on="0"/>
        <pt x="1456" y="947" on="0"/>
        <pt x="1417" y="1025" on="0"/>
        <pt x="1411" y="1073" on="1"/>
        <pt x="1405" y="1120" on="1"/>
        <pt x="1399" y="1165" on="0"/>
        <pt x="1379" y="1262" on="0"/>
        <pt x="1338" y="1344" on="0"/>
        <pt x="1272" y="1397" on="0"/>
        <pt x="1221" y="1397" on="1"/>
        <pt x="1208" y="1397" on="1"/>
        <pt x="1151" y="1393" on="0"/>
        <pt x="1028" y="1327" on="0"/>
        <pt x="922" y="1185" on="0"/>
        <pt x="846" y="958" on="0"/>
        <pt x="836" y="793" on="1"/>
        <pt x="912" y="793" on="0"/>
        <pt x="1048" y="793" on="0"/>
        <pt x="1100" y="794" on="1"/>
        <pt x="1161" y="794" on="0"/>
        <pt x="1212" y="795" on="1"/>
        <pt x="1212" y="758" on="1"/>
        <pt x="1160" y="757" on="0"/>
        <pt x="1099" y="757" on="1"/>
        <pt x="1047" y="756" on="0"/>
        <pt x="910" y="756" on="0"/>
        <pt x="834" y="756" on="1"/>
        <pt x="832" y="734" on="0"/>
        <pt x="831" y="691" on="0"/>
        <pt x="831" y="670" on="1"/>
        <pt x="831" y="631" on="0"/>
        <pt x="834" y="560" on="0"/>
        <pt x="836" y="526" on="1"/>
        <pt x="1178" y="522" on="1"/>
      </contour>
    </TTGlyph>
    <TTGlyph name="F" xMin="43" yMin="-2" xMax="1255" yMax="1407">
      <contour>
        <pt x="43" y="1405" on="1"/>
        <pt x="1255" y="1407" on="1"/>
        <pt x="1245" y="694" on="1"/>
        <pt x="1208" y="694" on="1"/>
        <pt x="1210" y="820" on="0"/>
        <pt x="1177" y="1013" on="0"/>
        <pt x="1122" y="1155" on="0"/>
        <pt x="1050" y="1252" on="0"/>
        <pt x="974" y="1316" on="0"/>
        <pt x="901" y="1350" on="0"/>
        <pt x="844" y="1366" on="0"/>
        <pt x="809" y="1370" on="0"/>
        <pt x="809" y="1370" on="1"/>
        <pt x="774" y="1370" on="0"/>
        <pt x="704" y="1368" on="0"/>
        <pt x="670" y="1368" on="1"/>
        <pt x="670" y="700" on="1"/>
        <pt x="711" y="702" on="1"/>
        <pt x="778" y="707" on="0"/>
        <pt x="833" y="741" on="1"/>
        <pt x="856" y="756" on="0"/>
        <pt x="901" y="801" on="0"/>
        <pt x="937" y="867" on="0"/>
        <pt x="961" y="957" on="0"/>
        <pt x="963" y="1016" on="1"/>
        <pt x="963" y="1040" on="1"/>
        <pt x="999" y="1040" on="1"/>
        <pt x="999" y="1037" on="0"/>
        <pt x="999" y="1024" on="0"/>
        <pt x="998" y="978" on="0"/>
        <pt x="997" y="884" on="0"/>
        <pt x="994" y="716" on="0"/>
        <pt x="990" y="461" on="0"/>
        <pt x="987" y="276" on="1"/>
        <pt x="950" y="276" on="1"/>
        <pt x="947" y="374" on="0"/>
        <pt x="925" y="455" on="1"/>
        <pt x="916" y="489" on="0"/>
        <pt x="887" y="557" on="0"/>
        <pt x="845" y="614" on="0"/>
        <pt x="787" y="655" on="0"/>
        <pt x="750" y="662" on="1"/>
        <pt x="670" y="664" on="1"/>
        <pt x="670" y="597" on="0"/>
        <pt x="669" y="463" on="0"/>
        <pt x="669" y="313" on="0"/>
        <pt x="668" y="141" on="0"/>
        <pt x="668" y="35" on="1"/>
        <pt x="967" y="35" on="1"/>
        <pt x="967" y="-2" on="1"/>
        <pt x="57" y="-2" on="1"/>
        <pt x="57" y="35" on="1"/>
        <pt x="293" y="35" on="1"/>
        <pt x="301" y="1368" on="1"/>
        <pt x="43" y="1368" on="1"/>
      </contour>
    </TTGlyph>
    <TTGlyph name="G" xMin="92" yMin="-55" xMax="1561" yMax="1413">
      <contour>
        <pt x="782" y="643" on="1"/>
        <pt x="1561" y="670" on="1"/>
        <pt x="1561" y="627" on="1"/>
        <pt x="1395" y="621" on="1"/>
        <pt x="1343" y="-55" on="1"/>
        <pt x="1223" y="117" on="1"/>
        <pt x="1170" y="58" on="0"/>
        <pt x="1059" y="-9" on="0"/>
        <pt x="954" y="-42" on="0"/>
        <pt x="860" y="-51" on="0"/>
        <pt x="823" y="-51" on="1"/>
        <pt x="795" y="-51" on="1"/>
        <pt x="762" y="-51" on="0"/>
        <pt x="666" y="-44" on="0"/>
        <pt x="555" y="-22" on="0"/>
        <pt x="435" y="21" on="0"/>
        <pt x="320" y="92" on="0"/>
        <pt x="216" y="196" on="0"/>
        <pt x="138" y="341" on="0"/>
        <pt x="92" y="532" on="0"/>
        <pt x="92" y="655" on="1"/>
        <pt x="92" y="778" on="0"/>
        <pt x="136" y="974" on="0"/>
        <pt x="213" y="1127" on="0"/>
        <pt x="317" y="1240" on="0"/>
        <pt x="436" y="1320" on="0"/>
        <pt x="563" y="1372" on="0"/>
        <pt x="689" y="1402" on="0"/>
        <pt x="806" y="1413" on="0"/>
        <pt x="854" y="1413" on="1"/>
        <pt x="978" y="1413" on="0"/>
        <pt x="1181" y="1346" on="0"/>
        <pt x="1326" y="1235" on="0"/>
        <pt x="1405" y="1091" on="0"/>
        <pt x="1405" y="1014" on="1"/>
        <pt x="1405" y="977" on="0"/>
        <pt x="1377" y="914" on="0"/>
        <pt x="1332" y="868" on="0"/>
        <pt x="1272" y="842" on="0"/>
        <pt x="1241" y="842" on="1"/>
        <pt x="1209" y="843" on="0"/>
        <pt x="1144" y="873" on="0"/>
        <pt x="1089" y="927" on="0"/>
        <pt x="1050" y="1005" on="0"/>
        <pt x="1044" y="1053" on="1"/>
        <pt x="1038" y="1100" on="1"/>
        <pt x="1033" y="1143" on="0"/>
        <pt x="1013" y="1237" on="0"/>
        <pt x="974" y="1318" on="0"/>
        <pt x="912" y="1373" on="0"/>
        <pt x="864" y="1376" on="1"/>
        <pt x="854" y="1376" on="1"/>
        <pt x="812" y="1376" on="0"/>
        <pt x="722" y="1345" on="0"/>
        <pt x="635" y="1274" on="0"/>
        <pt x="558" y="1162" on="0"/>
        <pt x="499" y="1001" on="0"/>
        <pt x="465" y="786" on="0"/>
        <pt x="465" y="649" on="1"/>
        <pt x="465" y="512" on="0"/>
        <pt x="496" y="308" on="0"/>
        <pt x="547" y="160" on="0"/>
        <pt x="615" y="64" on="0"/>
        <pt x="688" y="8" on="0"/>
        <pt x="762" y="-14" on="0"/>
        <pt x="795" y="-14" on="1"/>
        <pt x="815" y="-14" on="1"/>
        <pt x="883" y="-7" on="0"/>
        <pt x="938" y="45" on="1"/>
        <pt x="961" y="67" on="0"/>
        <pt x="1005" y="135" on="0"/>
        <pt x="1040" y="233" on="0"/>
        <pt x="1061" y="367" on="0"/>
        <pt x="1061" y="455" on="1"/>
        <pt x="1061" y="489" on="0"/>
        <pt x="1056" y="569" on="0"/>
        <pt x="1053" y="612" on="1"/>
        <pt x="782" y="604" on="1"/>
      </contour>
    </TTGlyph>
    <TTGlyph name="Gbreve" xMin="92" yMin="-55" xMax="1561" yMax="1745">
      <component glyphName="G" x="0" y="0" flags="0x204"/>
      <component glyphName="breve" x="641" y="514" flags="0x4"/>
    </TTGlyph>
    <TTGlyph name="Gcircumflex" xMin="92" yMin="-55" xMax="1561" yMax="1818">
      <component glyphName="G" x="0" y="0" flags="0x204"/>
      <component glyphName="circumflex" x="590" y="520" flags="0x4"/>
    </TTGlyph>
    <TTGlyph name="Gcommaaccent" xMin="92" yMin="-520" xMax="1561" yMax="1413">
      <component glyphName="G" x="0" y="0" flags="0x204"/>
      <component glyphName="uni0326" x="659" y="0" flags="0x4"/>
    </TTGlyph>
    <TTGlyph name="Gdotaccent" xMin="92" yMin="-55" xMax="1561" yMax="1747">
      <component glyphName="G" x="0" y="0" flags="0x204"/>
      <component glyphName="dotaccent" x="711" y="467" flags="0x4"/>
    </TTGlyph>
    <TTGlyph name="H" xMin="41" yMin="-6" xMax="1841" yMax="1419">
      <contour>
        <pt x="877" y="1356" on="1"/>
        <pt x="700" y="1362" on="1"/>
        <pt x="698" y="1347" on="0"/>
        <pt x="694" y="1264" on="0"/>
        <pt x="688" y="1102" on="0"/>
        <pt x="682" y="851" on="0"/>
        <pt x="678" y="668" on="1"/>
        <pt x="1219" y="676" on="1"/>
        <pt x="1223" y="1374" on="1"/>
        <pt x="1006" y="1382" on="1"/>
        <pt x="1006" y="1419" on="1"/>
        <pt x="1841" y="1393" on="1"/>
        <pt x="1841" y="1356" on="1"/>
        <pt x="1626" y="1362" on="1"/>
        <pt x="1625" y="1350" on="0"/>
        <pt x="1621" y="1286" on="0"/>
        <pt x="1616" y="1161" on="0"/>
        <pt x="1610" y="965" on="0"/>
        <pt x="1603" y="677" on="0"/>
        <pt x="1595" y="287" on="0"/>
        <pt x="1591" y="31" on="1"/>
        <pt x="1837" y="31" on="1"/>
        <pt x="1837" y="-6" on="1"/>
        <pt x="1022" y="-6" on="1"/>
        <pt x="1022" y="31" on="1"/>
        <pt x="1217" y="31" on="1"/>
        <pt x="1219" y="639" on="1"/>
        <pt x="676" y="631" on="1"/>
        <pt x="674" y="568" on="0"/>
        <pt x="672" y="434" on="0"/>
        <pt x="670" y="287" on="0"/>
        <pt x="667" y="124" on="0"/>
        <pt x="666" y="31" on="1"/>
        <pt x="872" y="31" on="1"/>
        <pt x="872" y="-6" on="1"/>
        <pt x="55" y="-6" on="1"/>
        <pt x="55" y="31" on="1"/>
        <pt x="291" y="31" on="1"/>
        <pt x="297" y="1374" on="1"/>
        <pt x="41" y="1382" on="1"/>
        <pt x="41" y="1419" on="1"/>
        <pt x="877" y="1393" on="1"/>
      </contour>
    </TTGlyph>
    <TTGlyph name="Hbar" xMin="41" yMin="-6" xMax="1841" yMax="1419">
      <contour>
        <pt x="1731" y="858" on="1"/>
        <pt x="1608" y="858" on="1"/>
        <pt x="1606" y="785" on="0"/>
        <pt x="1602" y="612" on="0"/>
        <pt x="1597" y="406" on="0"/>
        <pt x="1593" y="168" on="0"/>
        <pt x="1591" y="31" on="1"/>
        <pt x="1837" y="31" on="1"/>
        <pt x="1837" y="-6" on="1"/>
        <pt x="1022" y="-6" on="1"/>
        <pt x="1022" y="31" on="1"/>
        <pt x="1217" y="31" on="1"/>
        <pt x="1219" y="639" on="1"/>
        <pt x="676" y="631" on="1"/>
        <pt x="674" y="568" on="0"/>
        <pt x="672" y="434" on="0"/>
        <pt x="670" y="287" on="0"/>
        <pt x="667" y="124" on="0"/>
        <pt x="666" y="31" on="1"/>
        <pt x="872" y="31" on="1"/>
        <pt x="872" y="-6" on="1"/>
        <pt x="55" y="-6" on="1"/>
        <pt x="55" y="31" on="1"/>
        <pt x="291" y="31" on="1"/>
        <pt x="295" y="868" on="1"/>
        <pt x="131" y="870" on="1"/>
        <pt x="131" y="1012" on="1"/>
        <pt x="295" y="1012" on="1"/>
        <pt x="297" y="1374" on="1"/>
        <pt x="41" y="1382" on="1"/>
        <pt x="41" y="1419" on="1"/>
        <pt x="877" y="1393" on="1"/>
        <pt x="877" y="1356" on="1"/>
        <pt x="700" y="1362" on="1"/>
        <pt x="698" y="1351" on="0"/>
        <pt x="695" y="1303" on="0"/>
        <pt x="692" y="1220" on="0"/>
        <pt x="688" y="1097" on="0"/>
        <pt x="686" y="1012" on="1"/>
        <pt x="1221" y="1012" on="1"/>
        <pt x="1223" y="1374" on="1"/>
        <pt x="1006" y="1382" on="1"/>
        <pt x="1006" y="1419" on="1"/>
        <pt x="1841" y="1393" on="1"/>
        <pt x="1841" y="1356" on="1"/>
        <pt x="1626" y="1362" on="1"/>
        <pt x="1625" y="1352" on="0"/>
        <pt x="1622" y="1306" on="0"/>
        <pt x="1619" y="1224" on="0"/>
        <pt x="1614" y="1100" on="0"/>
        <pt x="1612" y="1012" on="1"/>
        <pt x="1731" y="1012" on="1"/>
      </contour>
      <contour>
        <pt x="1219" y="676" on="1"/>
        <pt x="1219" y="862" on="1"/>
        <pt x="682" y="866" on="1"/>
        <pt x="680" y="821" on="0"/>
        <pt x="678" y="722" on="0"/>
        <pt x="678" y="668" on="1"/>
      </contour>
    </TTGlyph>
    <TTGlyph name="Hcircumflex" xMin="41" yMin="-6" xMax="1841" yMax="1861">
      <component glyphName="H" x="0" y="0" flags="0x204"/>
      <component glyphName="circumflex" x="715" y="563" flags="0x4"/>
    </TTGlyph>
    <TTGlyph name="I" xMin="41" yMin="-6" xMax="915" yMax="1419">
      <contour>
        <pt x="55" y="31" on="1"/>
        <pt x="291" y="31" on="1"/>
        <pt x="297" y="1374" on="1"/>
        <pt x="41" y="1382" on="1"/>
        <pt x="41" y="1419" on="1"/>
        <pt x="915" y="1393" on="1"/>
        <pt x="915" y="1356" on="1"/>
        <pt x="700" y="1362" on="1"/>
        <pt x="699" y="1349" on="0"/>
        <pt x="695" y="1283" on="0"/>
        <pt x="691" y="1157" on="0"/>
        <pt x="684" y="961" on="0"/>
        <pt x="678" y="674" on="0"/>
        <pt x="670" y="286" on="0"/>
        <pt x="666" y="31" on="1"/>
        <pt x="911" y="31" on="1"/>
        <pt x="911" y="-6" on="1"/>
        <pt x="55" y="-6" on="1"/>
      </contour>
    </TTGlyph>
    <TTGlyph name="IJ" xMin="41" yMin="-61" xMax="2319" yMax="1419">
      <component glyphName="I" x="0" y="0" flags="0x4"/>
      <component glyphName="J" x="969" y="0" flags="0x4"/>
    </TTGlyph>
    <TTGlyph name="Iacute" xMin="41" yMin="-6" xMax="918" yMax="1829">
      <component glyphName="I" x="0" y="0" flags="0x204"/>
      <component glyphName="acute" x="508" y="475" flags="0x4"/>
    </TTGlyph>
    <TTGlyph name="Ibreve" xMin="41" yMin="-6" xMax="915" yMax="1745">
      <component glyphName="I" x="0" y="0" flags="0x204"/>
      <component glyphName="breve" x="295" y="514" flags="0x4"/>
    </TTGlyph>
    <TTGlyph name="Icircumflex" xMin="41" yMin="-6" xMax="915" yMax="1835">
      <component glyphName="I" x="0" y="0" flags="0x204"/>
      <component glyphName="circumflex" x="274" y="537" flags="0x4"/>
    </TTGlyph>
    <TTGlyph name="Idieresis" xMin="41" yMin="-6" xMax="915" yMax="1735">
      <component glyphName="I" x="0" y="0" flags="0x204"/>
      <component glyphName="dieresis" x="244" y="455" flags="0x4"/>
    </TTGlyph>
    <TTGlyph name="Idotaccent" xMin="41" yMin="-6" xMax="915" yMax="1761">
      <component glyphName="I" x="0" y="0" flags="0x204"/>
      <component glyphName="dotaccent" x="373" y="481" flags="0x4"/>
    </TTGlyph>
    <TTGlyph name="Igrave" xMin="41" yMin="-6" xMax="915" yMax="1833">
      <component glyphName="I" x="0" y="0" flags="0x204"/>
      <component glyphName="grave" x="86" y="479" flags="0x4"/>
    </TTGlyph>
    <TTGlyph name="Imacron" xMin="41" yMin="-6" xMax="915" yMax="1681">
      <component glyphName="I" x="0" y="0" flags="0x204"/>
      <component glyphName="macron" x="276" y="532" flags="0x4"/>
    </TTGlyph>
    <TTGlyph name="Iogonek" xMin="41" yMin="-375" xMax="915" yMax="1419">
      <contour>
        <pt x="55" y="31" on="1"/>
        <pt x="291" y="31" on="1"/>
        <pt x="297" y="1374" on="1"/>
        <pt x="41" y="1382" on="1"/>
        <pt x="41" y="1419" on="1"/>
        <pt x="915" y="1393" on="1"/>
        <pt x="915" y="1356" on="1"/>
        <pt x="700" y="1362" on="1"/>
        <pt x="699" y="1349" on="0"/>
        <pt x="695" y="1283" on="0"/>
        <pt x="691" y="1157" on="0"/>
        <pt x="684" y="961" on="0"/>
        <pt x="678" y="674" on="0"/>
        <pt x="670" y="286" on="0"/>
        <pt x="666" y="31" on="1"/>
        <pt x="911" y="31" on="1"/>
        <pt x="911" y="-6" on="1"/>
        <pt x="551" y="-6" on="1"/>
        <pt x="522" y="-49" on="0"/>
        <pt x="481" y="-133" on="0"/>
        <pt x="481" y="-178" on="1"/>
        <pt x="481" y="-212" on="0"/>
        <pt x="511" y="-250" on="0"/>
        <pt x="537" y="-250" on="1"/>
        <pt x="563" y="-250" on="0"/>
        <pt x="603" y="-238" on="0"/>
        <pt x="617" y="-230" on="1"/>
        <pt x="633" y="-221" on="0"/>
        <pt x="645" y="-209" on="1"/>
        <pt x="674" y="-229" on="1"/>
        <pt x="637" y="-304" on="0"/>
        <pt x="535" y="-375" on="0"/>
        <pt x="463" y="-375" on="1"/>
        <pt x="434" y="-375" on="0"/>
        <pt x="384" y="-354" on="0"/>
        <pt x="347" y="-318" on="0"/>
        <pt x="326" y="-268" on="0"/>
        <pt x="326" y="-238" on="1"/>
        <pt x="326" y="-119" on="0"/>
        <pt x="469" y="-6" on="1"/>
        <pt x="55" y="-6" on="1"/>
      </contour>
    </TTGlyph>
    <TTGlyph name="Itilde" xMin="41" yMin="-6" xMax="915" yMax="1756">
      <component glyphName="I" x="0" y="0" flags="0x204"/>
      <component glyphName="tilde" x="272" y="539" flags="0x4"/>
    </TTGlyph>
    <TTGlyph name="J" xMin="6" yMin="-61" xMax="1350" yMax="1374">
      <contour>
        <pt x="1350" y="1337" on="1"/>
        <pt x="1149" y="1339" on="1"/>
        <pt x="1145" y="1160" on="0"/>
        <pt x="1141" y="855" on="0"/>
        <pt x="1140" y="741" on="1"/>
        <pt x="1139" y="608" on="0"/>
        <pt x="1139" y="498" on="1"/>
        <pt x="1138" y="403" on="0"/>
        <pt x="1087" y="246" on="0"/>
        <pt x="1000" y="122" on="0"/>
        <pt x="886" y="30" on="0"/>
        <pt x="757" y="-31" on="0"/>
        <pt x="621" y="-61" on="0"/>
        <pt x="557" y="-61" on="1"/>
        <pt x="460" y="-61" on="0"/>
        <pt x="298" y="-32" on="0"/>
        <pt x="168" y="34" on="0"/>
        <pt x="69" y="143" on="0"/>
        <pt x="35" y="223" on="1"/>
        <pt x="19" y="258" on="0"/>
        <pt x="6" y="323" on="0"/>
        <pt x="6" y="352" on="1"/>
        <pt x="6" y="396" on="0"/>
        <pt x="36" y="473" on="0"/>
        <pt x="89" y="530" on="0"/>
        <pt x="163" y="563" on="0"/>
        <pt x="207" y="563" on="1"/>
        <pt x="248" y="563" on="0"/>
        <pt x="312" y="530" on="0"/>
        <pt x="355" y="473" on="0"/>
        <pt x="377" y="395" on="0"/>
        <pt x="377" y="350" on="1"/>
        <pt x="377" y="313" on="0"/>
        <pt x="362" y="240" on="0"/>
        <pt x="362" y="197" on="1"/>
        <pt x="362" y="146" on="0"/>
        <pt x="389" y="64" on="0"/>
        <pt x="440" y="6" on="0"/>
        <pt x="512" y="-25" on="0"/>
        <pt x="557" y="-25" on="1"/>
        <pt x="608" y="-25" on="0"/>
        <pt x="689" y="21" on="0"/>
        <pt x="746" y="137" on="0"/>
        <pt x="776" y="334" on="0"/>
        <pt x="776" y="485" on="1"/>
        <pt x="776" y="1346" on="1"/>
        <pt x="559" y="1346" on="1"/>
        <pt x="559" y="1374" on="1"/>
        <pt x="1350" y="1374" on="1"/>
      </contour>
    </TTGlyph>
    <TTGlyph name="Jcircumflex" xMin="6" yMin="-61" xMax="1350" yMax="1810">
      <component glyphName="J" x="0" y="0" flags="0x204"/>
      <component glyphName="circumflex" x="729" y="512" flags="0x4"/>
    </TTGlyph>
    <TTGlyph name="K" xMin="43" yMin="-14" xMax="1772" yMax="1411">
      <contour>
        <pt x="918" y="1350" on="1"/>
        <pt x="702" y="1356" on="1"/>
        <pt x="700" y="1341" on="0"/>
        <pt x="696" y="1250" on="0"/>
        <pt x="690" y="1068" on="0"/>
        <pt x="682" y="782" on="0"/>
        <pt x="678" y="571" on="1"/>
        <pt x="1350" y="1354" on="1"/>
        <pt x="1053" y="1358" on="1"/>
        <pt x="1053" y="1395" on="1"/>
        <pt x="1686" y="1386" on="1"/>
        <pt x="1686" y="1350" on="1"/>
        <pt x="1399" y="1352" on="1"/>
        <pt x="1034" y="928" on="1"/>
        <pt x="1608" y="33" on="1"/>
        <pt x="1772" y="35" on="1"/>
        <pt x="1772" y="-2" on="1"/>
        <pt x="1004" y="-14" on="1"/>
        <pt x="1004" y="23" on="1"/>
        <pt x="1167" y="25" on="1"/>
        <pt x="788" y="643" on="1"/>
        <pt x="676" y="510" on="1"/>
        <pt x="673" y="404" on="0"/>
        <pt x="669" y="167" on="0"/>
        <pt x="668" y="23" on="1"/>
        <pt x="883" y="23" on="1"/>
        <pt x="883" y="-14" on="1"/>
        <pt x="57" y="-14" on="1"/>
        <pt x="57" y="23" on="1"/>
        <pt x="293" y="23" on="1"/>
        <pt x="299" y="1366" on="1"/>
        <pt x="43" y="1374" on="1"/>
        <pt x="43" y="1411" on="1"/>
        <pt x="918" y="1386" on="1"/>
      </contour>
    </TTGlyph>
    <TTGlyph name="Kcommaaccent" xMin="43" yMin="-520" xMax="1772" yMax="1411">
      <component glyphName="K" x="0" y="0" flags="0x204"/>
      <component glyphName="uni0326" x="735" y="0" flags="0x4"/>
    </TTGlyph>
    <TTGlyph name="L" xMin="39" yMin="-7" xMax="1305" yMax="1419">
      <contour>
        <pt x="55" y="-6" on="1"/>
        <pt x="55" y="31" on="1"/>
        <pt x="291" y="31" on="1"/>
        <pt x="297" y="1374" on="1"/>
        <pt x="39" y="1382" on="1"/>
        <pt x="39" y="1419" on="1"/>
        <pt x="913" y="1395" on="1"/>
        <pt x="913" y="1358" on="1"/>
        <pt x="700" y="1364" on="1"/>
        <pt x="699" y="1351" on="0"/>
        <pt x="695" y="1285" on="0"/>
        <pt x="691" y="1158" on="0"/>
        <pt x="684" y="962" on="0"/>
        <pt x="678" y="674" on="0"/>
        <pt x="670" y="286" on="0"/>
        <pt x="666" y="31" on="1"/>
        <pt x="866" y="31" on="1"/>
        <pt x="888" y="31" on="0"/>
        <pt x="963" y="48" on="0"/>
        <pt x="1050" y="94" on="0"/>
        <pt x="1140" y="174" on="0"/>
        <pt x="1214" y="302" on="0"/>
        <pt x="1264" y="482" on="0"/>
        <pt x="1268" y="604" on="1"/>
        <pt x="1305" y="604" on="1"/>
        <pt x="1288" y="-6" on="1"/>
        <pt x="1205" y="-6" on="0"/>
        <pt x="1076" y="-6" on="0"/>
        <pt x="964" y="-6" on="0"/>
        <pt x="860" y="-7" on="0"/>
        <pt x="744" y="-7" on="0"/>
        <pt x="606" y="-7" on="0"/>
        <pt x="429" y="-7" on="0"/>
        <pt x="203" y="-6" on="0"/>
      </contour>
    </TTGlyph>
    <TTGlyph name="Lacute" xMin="39" yMin="-7" xMax="1305" yMax="1846">
      <component glyphName="L" x="0" y="0" flags="0x204"/>
      <component glyphName="acute" x="479" y="492" flags="0x4"/>
    </TTGlyph>
    <TTGlyph name="Lcaron" xMin="39" yMin="-7" xMax="1305" yMax="1501">
      <component glyphName="L" x="0" y="0" flags="0x204"/>
      <component glyphName="uni0315" x="1010" y="141" flags="0x4"/>
    </TTGlyph>
    <TTGlyph name="Lcommaaccent" xMin="39" yMin="-520" xMax="1305" yMax="1419">
      <component glyphName="L" x="0" y="0" flags="0x204"/>
      <component glyphName="uni0326" x="551" y="0" flags="0x4"/>
    </TTGlyph>
    <TTGlyph name="Ldot" xMin="39" yMin="-7" xMax="1853" yMax="1419">
      <component glyphName="L" x="0" y="0" flags="0x4"/>
      <component glyphName="periodcentered" x="1370" y="0" flags="0x4"/>
    </TTGlyph>
    <TTGlyph name="Lslash" xMin="41" yMin="-7" xMax="1307" yMax="1419">
      <contour>
        <pt x="940" y="750" on="1"/>
        <pt x="678" y="629" on="1"/>
        <pt x="675" y="507" on="0"/>
        <pt x="671" y="211" on="0"/>
        <pt x="668" y="31" on="1"/>
        <pt x="868" y="31" on="1"/>
        <pt x="890" y="31" on="0"/>
        <pt x="965" y="48" on="0"/>
        <pt x="1052" y="94" on="0"/>
        <pt x="1142" y="174" on="0"/>
        <pt x="1216" y="302" on="0"/>
        <pt x="1266" y="482" on="0"/>
        <pt x="1270" y="604" on="1"/>
        <pt x="1307" y="604" on="1"/>
        <pt x="1290" y="-6" on="1"/>
        <pt x="1207" y="-6" on="0"/>
        <pt x="1078" y="-6" on="0"/>
        <pt x="966" y="-6" on="0"/>
        <pt x="862" y="-7" on="0"/>
        <pt x="746" y="-7" on="0"/>
        <pt x="608" y="-7" on="0"/>
        <pt x="431" y="-7" on="0"/>
        <pt x="205" y="-6" on="0"/>
        <pt x="57" y="-6" on="1"/>
        <pt x="57" y="31" on="1"/>
        <pt x="293" y="31" on="1"/>
        <pt x="295" y="455" on="1"/>
        <pt x="119" y="375" on="1"/>
        <pt x="119" y="565" on="1"/>
        <pt x="295" y="649" on="1"/>
        <pt x="299" y="1374" on="1"/>
        <pt x="41" y="1382" on="1"/>
        <pt x="41" y="1419" on="1"/>
        <pt x="915" y="1395" on="1"/>
        <pt x="915" y="1358" on="1"/>
        <pt x="702" y="1364" on="1"/>
        <pt x="700" y="1351" on="0"/>
        <pt x="697" y="1284" on="0"/>
        <pt x="692" y="1160" on="0"/>
        <pt x="687" y="969" on="0"/>
        <pt x="684" y="831" on="1"/>
        <pt x="940" y="954" on="1"/>
      </contour>
    </TTGlyph>
    <TTGlyph name="M" xMin="45" yMin="-25" xMax="1972" yMax="1421">
      <contour>
        <pt x="51" y="39" on="1"/>
        <pt x="283" y="41" on="1"/>
        <pt x="303" y="1380" on="1"/>
        <pt x="45" y="1384" on="1"/>
        <pt x="45" y="1421" on="1"/>
        <pt x="580" y="1415" on="1"/>
        <pt x="1053" y="494" on="1"/>
        <pt x="1384" y="1411" on="1"/>
        <pt x="1968" y="1405" on="1"/>
        <pt x="1968" y="1368" on="1"/>
        <pt x="1761" y="1370" on="1"/>
        <pt x="1760" y="1361" on="0"/>
        <pt x="1757" y="1304" on="0"/>
        <pt x="1752" y="1184" on="0"/>
        <pt x="1746" y="990" on="0"/>
        <pt x="1738" y="699" on="0"/>
        <pt x="1730" y="299" on="0"/>
        <pt x="1726" y="33" on="1"/>
        <pt x="1972" y="33" on="1"/>
        <pt x="1972" y="-4" on="1"/>
        <pt x="1116" y="-4" on="1"/>
        <pt x="1116" y="33" on="1"/>
        <pt x="1352" y="33" on="1"/>
        <pt x="1376" y="1284" on="1"/>
        <pt x="901" y="-25" on="1"/>
        <pt x="334" y="1065" on="1"/>
        <pt x="319" y="41" on="1"/>
        <pt x="541" y="43" on="1"/>
        <pt x="541" y="6" on="1"/>
        <pt x="51" y="2" on="1"/>
      </contour>
    </TTGlyph>
    <TTGlyph name="N" xMin="45" yMin="-68" xMax="1571" yMax="1411">
      <contour>
        <pt x="78" y="1405" on="1"/>
        <pt x="563" y="1411" on="1"/>
        <pt x="1305" y="545" on="1"/>
        <pt x="1305" y="1360" on="1"/>
        <pt x="1081" y="1368" on="1"/>
        <pt x="1081" y="1405" on="1"/>
        <pt x="1571" y="1389" on="1"/>
        <pt x="1571" y="1352" on="1"/>
        <pt x="1341" y="1360" on="1"/>
        <pt x="1343" y="-68" on="1"/>
        <pt x="336" y="1061" on="1"/>
        <pt x="311" y="33" on="1"/>
        <pt x="532" y="39" on="1"/>
        <pt x="532" y="2" on="1"/>
        <pt x="45" y="-10" on="1"/>
        <pt x="45" y="27" on="1"/>
        <pt x="274" y="33" on="1"/>
        <pt x="307" y="1370" on="1"/>
        <pt x="78" y="1368" on="1"/>
      </contour>
    </TTGlyph>
    <TTGlyph name="Nacute" xMin="45" yMin="-68" xMax="1571" yMax="1778">
      <component glyphName="N" x="0" y="0" flags="0x204"/>
      <component glyphName="acute" x="850" y="424" flags="0x4"/>
    </TTGlyph>
    <TTGlyph name="Ncaron" xMin="45" yMin="-68" xMax="1571" yMax="1784">
      <component glyphName="N" x="0" y="0" flags="0x204"/>
      <component glyphName="caron" x="598" y="496" flags="0x4"/>
    </TTGlyph>
    <TTGlyph name="Ncommaaccent" xMin="45" yMin="-428" xMax="1571" yMax="1411">
      <component glyphName="N" x="0" y="0" flags="0x204"/>
      <component glyphName="uni0326" x="702" y="92" flags="0x4"/>
    </TTGlyph>
    <TTGlyph name="Ntilde" xMin="45" yMin="-68" xMax="1571" yMax="1729">
      <component glyphName="N" x="0" y="0" flags="0x204"/>
      <component glyphName="tilde" x="582" y="512" flags="0x4"/>
    </TTGlyph>
    <TTGlyph name="O" xMin="86" yMin="-43" xMax="1534" yMax="1401">
      <contour>
        <pt x="1534" y="680" on="1"/>
        <pt x="1534" y="580" on="0"/>
        <pt x="1482" y="396" on="0"/>
        <pt x="1388" y="235" on="0"/>
        <pt x="1256" y="103" on="0"/>
        <pt x="1095" y="9" on="0"/>
        <pt x="911" y="-43" on="0"/>
        <pt x="811" y="-43" on="1"/>
        <pt x="711" y="-43" on="0"/>
        <pt x="525" y="9" on="0"/>
        <pt x="364" y="103" on="0"/>
        <pt x="232" y="235" on="0"/>
        <pt x="138" y="396" on="0"/>
        <pt x="86" y="580" on="0"/>
        <pt x="86" y="680" on="1"/>
        <pt x="86" y="779" on="0"/>
        <pt x="138" y="962" on="0"/>
        <pt x="232" y="1123" on="0"/>
        <pt x="364" y="1255" on="0"/>
        <pt x="525" y="1349" on="0"/>
        <pt x="711" y="1401" on="0"/>
        <pt x="811" y="1401" on="1"/>
        <pt x="911" y="1401" on="0"/>
        <pt x="1095" y="1349" on="0"/>
        <pt x="1256" y="1255" on="0"/>
        <pt x="1388" y="1123" on="0"/>
        <pt x="1482" y="962" on="0"/>
        <pt x="1534" y="779" on="0"/>
      </contour>
      <contour>
        <pt x="1149" y="680" on="1"/>
        <pt x="1149" y="854" on="0"/>
        <pt x="1100" y="1111" on="0"/>
        <pt x="1011" y="1280" on="0"/>
        <pt x="886" y="1364" on="0"/>
        <pt x="811" y="1364" on="1"/>
        <pt x="734" y="1364" on="0"/>
        <pt x="609" y="1272" on="0"/>
        <pt x="521" y="1096" on="0"/>
        <pt x="473" y="842" on="0"/>
        <pt x="473" y="680" on="1"/>
        <pt x="473" y="523" on="0"/>
        <pt x="521" y="270" on="0"/>
        <pt x="609" y="91" on="0"/>
        <pt x="734" y="-6" on="0"/>
        <pt x="811" y="-6" on="1"/>
        <pt x="886" y="-6" on="0"/>
        <pt x="1011" y="78" on="0"/>
        <pt x="1100" y="248" on="0"/>
        <pt x="1149" y="506" on="0"/>
      </contour>
    </TTGlyph>
    <TTGlyph name="OE" xMin="86" yMin="-43" xMax="2232" yMax="1409">
      <contour>
        <pt x="86" y="680" on="1"/>
        <pt x="86" y="779" on="0"/>
        <pt x="138" y="962" on="0"/>
        <pt x="232" y="1123" on="0"/>
        <pt x="364" y="1255" on="0"/>
        <pt x="525" y="1349" on="0"/>
        <pt x="711" y="1401" on="0"/>
        <pt x="811" y="1401" on="1"/>
        <pt x="2132" y="1409" on="1"/>
        <pt x="2122" y="696" on="1"/>
        <pt x="2085" y="696" on="1"/>
        <pt x="2086" y="822" on="0"/>
        <pt x="2054" y="1015" on="0"/>
        <pt x="1998" y="1157" on="0"/>
        <pt x="1926" y="1254" on="0"/>
        <pt x="1851" y="1318" on="0"/>
        <pt x="1778" y="1352" on="0"/>
        <pt x="1721" y="1368" on="0"/>
        <pt x="1686" y="1372" on="0"/>
        <pt x="1686" y="1372" on="1"/>
        <pt x="1657" y="1372" on="0"/>
        <pt x="1596" y="1370" on="0"/>
        <pt x="1567" y="1370" on="1"/>
        <pt x="1566" y="1358" on="0"/>
        <pt x="1562" y="1280" on="0"/>
        <pt x="1556" y="1125" on="0"/>
        <pt x="1548" y="880" on="0"/>
        <pt x="1544" y="702" on="1"/>
        <pt x="1553" y="703" on="0"/>
        <pt x="1604" y="707" on="0"/>
        <pt x="1669" y="726" on="0"/>
        <pt x="1739" y="767" on="0"/>
        <pt x="1797" y="842" on="0"/>
        <pt x="1834" y="958" on="0"/>
        <pt x="1833" y="1042" on="1"/>
        <pt x="1870" y="1042" on="1"/>
        <pt x="1860" y="279" on="1"/>
        <pt x="1823" y="279" on="1"/>
        <pt x="1820" y="377" on="0"/>
        <pt x="1798" y="458" on="1"/>
        <pt x="1789" y="492" on="0"/>
        <pt x="1759" y="560" on="0"/>
        <pt x="1716" y="617" on="0"/>
        <pt x="1658" y="657" on="0"/>
        <pt x="1620" y="664" on="1"/>
        <pt x="1544" y="666" on="1"/>
        <pt x="1532" y="35" on="1"/>
        <pt x="1792" y="35" on="1"/>
        <pt x="1814" y="37" on="0"/>
        <pt x="1890" y="55" on="0"/>
        <pt x="1977" y="97" on="0"/>
        <pt x="2067" y="169" on="0"/>
        <pt x="2142" y="284" on="0"/>
        <pt x="2191" y="447" on="0"/>
        <pt x="2195" y="559" on="1"/>
        <pt x="2232" y="559" on="1"/>
        <pt x="2216" y="-2" on="1"/>
        <pt x="1051" y="-2" on="1"/>
        <pt x="936" y="-43" on="0"/>
        <pt x="811" y="-43" on="1"/>
        <pt x="711" y="-43" on="0"/>
        <pt x="525" y="9" on="0"/>
        <pt x="364" y="103" on="0"/>
        <pt x="232" y="235" on="0"/>
        <pt x="138" y="396" on="0"/>
        <pt x="86" y="580" on="0"/>
      </contour>
      <contour>
        <pt x="1149" y="680" on="1"/>
        <pt x="1149" y="854" on="0"/>
        <pt x="1100" y="1111" on="0"/>
        <pt x="1011" y="1280" on="0"/>
        <pt x="886" y="1364" on="0"/>
        <pt x="811" y="1364" on="1"/>
        <pt x="734" y="1364" on="0"/>
        <pt x="609" y="1272" on="0"/>
        <pt x="521" y="1096" on="0"/>
        <pt x="473" y="842" on="0"/>
        <pt x="473" y="680" on="1"/>
        <pt x="473" y="523" on="0"/>
        <pt x="521" y="270" on="0"/>
        <pt x="609" y="91" on="0"/>
        <pt x="734" y="-6" on="0"/>
        <pt x="811" y="-6" on="1"/>
        <pt x="886" y="-6" on="0"/>
        <pt x="1011" y="78" on="0"/>
        <pt x="1100" y="248" on="0"/>
        <pt x="1149" y="506" on="0"/>
      </contour>
    </TTGlyph>
    <TTGlyph name="Oacute" xMin="86" yMin="-43" xMax="1534" yMax="1825">
      <component glyphName="O" x="0" y="0" flags="0x204"/>
      <component glyphName="acute" x="791" y="471" flags="0x4"/>
    </TTGlyph>
    <TTGlyph name="Obreve" xMin="86" yMin="-43" xMax="1534" yMax="1733">
      <component glyphName="O" x="0" y="0" flags="0x204"/>
      <component glyphName="breve" x="606" y="502" flags="0x4"/>
    </TTGlyph>
    <TTGlyph name="Ocircumflex" xMin="86" yMin="-43" xMax="1534" yMax="1812">
      <component glyphName="O" x="0" y="0" flags="0x204"/>
      <component glyphName="circumflex" x="573" y="514" flags="0x4"/>
    </TTGlyph>
    <TTGlyph name="Odieresis" xMin="86" yMin="-43" xMax="1534" yMax="1720">
      <component glyphName="O" x="0" y="0" flags="0x204"/>
      <component glyphName="dieresis" x="543" y="440" flags="0x4"/>
    </TTGlyph>
    <TTGlyph name="Ograve" xMin="86" yMin="-43" xMax="1534" yMax="1833">
      <component glyphName="O" x="0" y="0" flags="0x204"/>
      <component glyphName="grave" x="389" y="479" flags="0x4"/>
    </TTGlyph>
    <TTGlyph name="Ohungarumlaut" xMin="86" yMin="-43" xMax="1534" yMax="1813">
      <component glyphName="O" x="0" y="0" flags="0x204"/>
      <component glyphName="hungarumlaut" x="641" y="459" flags="0x4"/>
    </TTGlyph>
    <TTGlyph name="Omacron" xMin="86" yMin="-43" xMax="1534" yMax="1626">
      <component glyphName="O" x="0" y="0" flags="0x204"/>
      <component glyphName="macron" x="573" y="477" flags="0x4"/>
    </TTGlyph>
    <TTGlyph name="Oslash" xMin="86" yMin="-100" xMax="1534" yMax="1425">
      <contour>
        <pt x="1370" y="1405" on="1"/>
        <pt x="1260" y="1245" on="1"/>
        <pt x="1323" y="1195" on="0"/>
        <pt x="1424" y="1070" on="0"/>
        <pt x="1495" y="926" on="0"/>
        <pt x="1534" y="765" on="0"/>
        <pt x="1534" y="680" on="1"/>
        <pt x="1534" y="580" on="0"/>
        <pt x="1482" y="396" on="0"/>
        <pt x="1388" y="235" on="0"/>
        <pt x="1256" y="103" on="0"/>
        <pt x="1095" y="9" on="0"/>
        <pt x="911" y="-43" on="0"/>
        <pt x="811" y="-43" on="1"/>
        <pt x="708" y="-43" on="0"/>
        <pt x="520" y="11" on="0"/>
        <pt x="436" y="59" on="1"/>
        <pt x="326" y="-100" on="1"/>
        <pt x="297" y="-80" on="1"/>
        <pt x="408" y="80" on="1"/>
        <pt x="335" y="128" on="0"/>
        <pt x="216" y="257" on="0"/>
        <pt x="132" y="411" on="0"/>
        <pt x="86" y="585" on="0"/>
        <pt x="86" y="680" on="1"/>
        <pt x="86" y="779" on="0"/>
        <pt x="138" y="962" on="0"/>
        <pt x="232" y="1123" on="0"/>
        <pt x="364" y="1255" on="0"/>
        <pt x="525" y="1349" on="0"/>
        <pt x="711" y="1401" on="0"/>
        <pt x="811" y="1401" on="1"/>
        <pt x="929" y="1401" on="0"/>
        <pt x="1141" y="1329" on="0"/>
        <pt x="1231" y="1266" on="1"/>
        <pt x="1341" y="1425" on="1"/>
      </contour>
      <contour>
        <pt x="473" y="680" on="1"/>
        <pt x="473" y="555" on="0"/>
        <pt x="503" y="344" on="0"/>
        <pt x="532" y="260" on="1"/>
        <pt x="1102" y="1079" on="1"/>
        <pt x="1058" y="1223" on="0"/>
        <pt x="908" y="1364" on="0"/>
        <pt x="811" y="1364" on="1"/>
        <pt x="734" y="1364" on="0"/>
        <pt x="609" y="1272" on="0"/>
        <pt x="521" y="1096" on="0"/>
        <pt x="473" y="842" on="0"/>
      </contour>
      <contour>
        <pt x="1149" y="680" on="1"/>
        <pt x="1149" y="785" on="0"/>
        <pt x="1131" y="962" on="0"/>
        <pt x="1112" y="1034" on="1"/>
        <pt x="547" y="219" on="1"/>
        <pt x="592" y="111" on="0"/>
        <pt x="724" y="-6" on="0"/>
        <pt x="811" y="-6" on="1"/>
        <pt x="886" y="-6" on="0"/>
        <pt x="1011" y="78" on="0"/>
        <pt x="1100" y="248" on="0"/>
        <pt x="1149" y="506" on="0"/>
      </contour>
    </TTGlyph>
    <TTGlyph name="Oslashacute" xMin="86" yMin="-100" xMax="1534" yMax="1846">
      <component glyphName="Oslash" x="0" y="0" flags="0x204"/>
      <component glyphName="acute" x="825" y="492" flags="0x4"/>
    </TTGlyph>
    <TTGlyph name="Otilde" xMin="86" yMin="-43" xMax="1534" yMax="1721">
      <component glyphName="O" x="0" y="0" flags="0x204"/>
      <component glyphName="tilde" x="573" y="504" flags="0x4"/>
    </TTGlyph>
    <TTGlyph name="P" xMin="35" yMin="-16" xMax="1464" yMax="1401">
      <contour>
        <pt x="35" y="20" on="1"/>
        <pt x="301" y="20" on="1"/>
        <pt x="315" y="1362" on="1"/>
        <pt x="260" y="1362" on="0"/>
        <pt x="137" y="1360" on="0"/>
        <pt x="66" y="1360" on="1"/>
        <pt x="66" y="1397" on="1"/>
        <pt x="180" y="1398" on="0"/>
        <pt x="366" y="1400" on="0"/>
        <pt x="515" y="1401" on="0"/>
        <pt x="628" y="1401" on="0"/>
        <pt x="670" y="1401" on="1"/>
        <pt x="815" y="1401" on="1"/>
        <pt x="850" y="1401" on="0"/>
        <pt x="974" y="1391" on="0"/>
        <pt x="1118" y="1359" on="0"/>
        <pt x="1267" y="1299" on="0"/>
        <pt x="1387" y="1201" on="0"/>
        <pt x="1464" y="1056" on="0"/>
        <pt x="1464" y="956" on="1"/>
        <pt x="1464" y="825" on="0"/>
        <pt x="1368" y="653" on="0"/>
        <pt x="1182" y="551" on="0"/>
        <pt x="907" y="510" on="0"/>
        <pt x="727" y="510" on="1"/>
        <pt x="672" y="510" on="1"/>
        <pt x="664" y="20" on="1"/>
        <pt x="918" y="20" on="1"/>
        <pt x="918" y="-16" on="1"/>
        <pt x="35" y="-16" on="1"/>
      </contour>
      <contour>
        <pt x="1110" y="958" on="1"/>
        <pt x="1110" y="1044" on="0"/>
        <pt x="1080" y="1170" on="0"/>
        <pt x="1025" y="1258" on="0"/>
        <pt x="948" y="1314" on="0"/>
        <pt x="853" y="1346" on="0"/>
        <pt x="743" y="1358" on="0"/>
        <pt x="684" y="1360" on="1"/>
        <pt x="672" y="555" on="1"/>
        <pt x="754" y="564" on="0"/>
        <pt x="879" y="607" on="0"/>
        <pt x="971" y="667" on="0"/>
        <pt x="1034" y="738" on="0"/>
        <pt x="1055" y="774" on="1"/>
        <pt x="1103" y="858" on="0"/>
      </contour>
    </TTGlyph>
    <TTGlyph name="Q" xMin="86" yMin="-414" xMax="1534" yMax="1401">
      <contour>
        <pt x="1534" y="680" on="1"/>
        <pt x="1534" y="550" on="0"/>
        <pt x="1448" y="317" on="0"/>
        <pt x="1297" y="131" on="0"/>
        <pt x="1090" y="1" on="0"/>
        <pt x="969" y="-25" on="1"/>
        <pt x="1004" y="-83" on="0"/>
        <pt x="1076" y="-129" on="0"/>
        <pt x="1114" y="-129" on="1"/>
        <pt x="1129" y="-129" on="0"/>
        <pt x="1168" y="-119" on="0"/>
        <pt x="1209" y="-108" on="0"/>
        <pt x="1252" y="-98" on="0"/>
        <pt x="1272" y="-98" on="1"/>
        <pt x="1307" y="-98" on="0"/>
        <pt x="1367" y="-124" on="0"/>
        <pt x="1411" y="-168" on="0"/>
        <pt x="1436" y="-224" on="0"/>
        <pt x="1436" y="-254" on="1"/>
        <pt x="1436" y="-282" on="0"/>
        <pt x="1410" y="-339" on="0"/>
        <pt x="1362" y="-385" on="0"/>
        <pt x="1293" y="-414" on="0"/>
        <pt x="1251" y="-414" on="1"/>
        <pt x="1182" y="-414" on="0"/>
        <pt x="1081" y="-342" on="0"/>
        <pt x="1005" y="-231" on="0"/>
        <pt x="948" y="-97" on="0"/>
        <pt x="924" y="-35" on="1"/>
        <pt x="898" y="-40" on="0"/>
        <pt x="839" y="-43" on="0"/>
        <pt x="811" y="-43" on="1"/>
        <pt x="711" y="-43" on="0"/>
        <pt x="525" y="9" on="0"/>
        <pt x="364" y="103" on="0"/>
        <pt x="232" y="235" on="0"/>
        <pt x="138" y="396" on="0"/>
        <pt x="86" y="580" on="0"/>
        <pt x="86" y="680" on="1"/>
        <pt x="86" y="779" on="0"/>
        <pt x="138" y="962" on="0"/>
        <pt x="232" y="1123" on="0"/>
        <pt x="364" y="1255" on="0"/>
        <pt x="525" y="1349" on="0"/>
        <pt x="711" y="1401" on="0"/>
        <pt x="811" y="1401" on="1"/>
        <pt x="911" y="1401" on="0"/>
        <pt x="1095" y="1349" on="0"/>
        <pt x="1256" y="1255" on="0"/>
        <pt x="1388" y="1123" on="0"/>
        <pt x="1482" y="962" on="0"/>
        <pt x="1534" y="779" on="0"/>
      </contour>
      <contour>
        <pt x="1149" y="680" on="1"/>
        <pt x="1149" y="854" on="0"/>
        <pt x="1100" y="1111" on="0"/>
        <pt x="1011" y="1280" on="0"/>
        <pt x="886" y="1364" on="0"/>
        <pt x="811" y="1364" on="1"/>
        <pt x="734" y="1364" on="0"/>
        <pt x="609" y="1272" on="0"/>
        <pt x="521" y="1096" on="0"/>
        <pt x="473" y="842" on="0"/>
        <pt x="473" y="680" on="1"/>
        <pt x="473" y="555" on="0"/>
        <pt x="503" y="345" on="0"/>
        <pt x="532" y="260" on="1"/>
        <pt x="558" y="269" on="0"/>
        <pt x="610" y="276" on="0"/>
        <pt x="635" y="276" on="1"/>
        <pt x="679" y="276" on="0"/>
        <pt x="749" y="256" on="0"/>
        <pt x="773" y="244" on="1"/>
        <pt x="801" y="230" on="0"/>
        <pt x="823" y="213" on="1"/>
        <pt x="860" y="179" on="0"/>
        <pt x="915" y="84" on="0"/>
        <pt x="938" y="29" on="1"/>
        <pt x="1035" y="87" on="0"/>
        <pt x="1149" y="411" on="0"/>
      </contour>
      <contour>
        <pt x="791" y="-4" on="1"/>
        <pt x="796" y="-4" on="0"/>
        <pt x="805" y="-6" on="0"/>
        <pt x="811" y="-6" on="1"/>
        <pt x="831" y="-6" on="0"/>
        <pt x="882" y="3" on="0"/>
        <pt x="905" y="12" on="1"/>
        <pt x="882" y="63" on="0"/>
        <pt x="831" y="153" on="0"/>
        <pt x="799" y="184" on="1"/>
        <pt x="797" y="185" on="0"/>
        <pt x="773" y="203" on="0"/>
        <pt x="730" y="224" on="0"/>
        <pt x="671" y="240" on="0"/>
        <pt x="635" y="240" on="1"/>
        <pt x="615" y="240" on="0"/>
        <pt x="570" y="233" on="0"/>
        <pt x="545" y="225" on="1"/>
        <pt x="587" y="120" on="0"/>
        <pt x="712" y="2" on="0"/>
      </contour>
    </TTGlyph>
    <TTGlyph name="R" xMin="45" yMin="-8" xMax="1630" yMax="1389">
      <contour>
        <pt x="891" y="29" on="1"/>
        <pt x="1034" y="31" on="1"/>
        <pt x="686" y="500" on="1"/>
        <pt x="680" y="500" on="1"/>
        <pt x="672" y="498" on="0"/>
        <pt x="660" y="498" on="0"/>
        <pt x="653" y="498" on="1"/>
        <pt x="645" y="29" on="1"/>
        <pt x="817" y="29" on="1"/>
        <pt x="817" y="-8" on="1"/>
        <pt x="45" y="-8" on="1"/>
        <pt x="45" y="29" on="1"/>
        <pt x="283" y="29" on="1"/>
        <pt x="295" y="1350" on="1"/>
        <pt x="242" y="1350" on="0"/>
        <pt x="132" y="1348" on="0"/>
        <pt x="66" y="1348" on="1"/>
        <pt x="66" y="1384" on="1"/>
        <pt x="287" y="1385" on="0"/>
        <pt x="571" y="1387" on="0"/>
        <pt x="652" y="1388" on="1"/>
        <pt x="747" y="1389" on="0"/>
        <pt x="795" y="1389" on="1"/>
        <pt x="846" y="1389" on="0"/>
        <pt x="982" y="1383" on="0"/>
        <pt x="1126" y="1356" on="0"/>
        <pt x="1266" y="1300" on="0"/>
        <pt x="1376" y="1201" on="0"/>
        <pt x="1444" y="1051" on="0"/>
        <pt x="1444" y="944" on="1"/>
        <pt x="1444" y="848" on="0"/>
        <pt x="1386" y="706" on="0"/>
        <pt x="1281" y="606" on="0"/>
        <pt x="1133" y="543" on="0"/>
        <pt x="1042" y="526" on="1"/>
        <pt x="1466" y="39" on="1"/>
        <pt x="1462" y="37" on="1"/>
        <pt x="1630" y="39" on="1"/>
        <pt x="1630" y="2" on="1"/>
        <pt x="891" y="-8" on="1"/>
      </contour>
      <contour>
        <pt x="1092" y="946" on="1"/>
        <pt x="1092" y="1038" on="0"/>
        <pt x="1062" y="1169" on="0"/>
        <pt x="1007" y="1258" on="0"/>
        <pt x="929" y="1312" on="0"/>
        <pt x="834" y="1340" on="0"/>
        <pt x="725" y="1349" on="0"/>
        <pt x="666" y="1350" on="1"/>
        <pt x="653" y="537" on="1"/>
        <pt x="678" y="537" on="1"/>
        <pt x="756" y="545" on="0"/>
        <pt x="874" y="589" on="0"/>
        <pt x="961" y="649" on="0"/>
        <pt x="1020" y="722" on="0"/>
        <pt x="1040" y="758" on="1"/>
        <pt x="1086" y="843" on="0"/>
      </contour>
    </TTGlyph>
    <TTGlyph name="Racute" xMin="45" yMin="-8" xMax="1630" yMax="1813">
      <component glyphName="R" x="0" y="0" flags="0x204"/>
      <component glyphName="acute" x="813" y="459" flags="0x4"/>
    </TTGlyph>
    <TTGlyph name="Rcaron" xMin="45" yMin="-8" xMax="1630" yMax="1851">
      <component glyphName="R" x="0" y="0" flags="0x204"/>
      <component glyphName="caron" x="580" y="563" flags="0x4"/>
    </TTGlyph>
    <TTGlyph name="Rcommaaccent" xMin="45" yMin="-520" xMax="1630" yMax="1389">
      <component glyphName="R" x="0" y="0" flags="0x204"/>
      <component glyphName="uni0326" x="678" y="0" flags="0x4"/>
    </TTGlyph>
    <TTGlyph name="S" xMin="109" yMin="-55" xMax="1292" yMax="1405">
      <contour>
        <pt x="725" y="797" on="1"/>
        <pt x="880" y="780" on="0"/>
        <pt x="1096" y="700" on="0"/>
        <pt x="1231" y="589" on="0"/>
        <pt x="1292" y="454" on="0"/>
        <pt x="1292" y="381" on="1"/>
        <pt x="1292" y="297" on="0"/>
        <pt x="1238" y="169" on="0"/>
        <pt x="1149" y="72" on="0"/>
        <pt x="1034" y="6" on="0"/>
        <pt x="913" y="-35" on="0"/>
        <pt x="795" y="-54" on="0"/>
        <pt x="748" y="-55" on="1"/>
        <pt x="723" y="-55" on="1"/>
        <pt x="673" y="-54" on="0"/>
        <pt x="544" y="-39" on="0"/>
        <pt x="409" y="-7" on="0"/>
        <pt x="279" y="44" on="0"/>
        <pt x="177" y="120" on="0"/>
        <pt x="115" y="224" on="0"/>
        <pt x="115" y="293" on="1"/>
        <pt x="115" y="330" on="0"/>
        <pt x="139" y="386" on="0"/>
        <pt x="181" y="425" on="0"/>
        <pt x="236" y="447" on="0"/>
        <pt x="268" y="449" on="1"/>
        <pt x="307" y="449" on="0"/>
        <pt x="374" y="416" on="0"/>
        <pt x="424" y="357" on="0"/>
        <pt x="455" y="274" on="0"/>
        <pt x="457" y="223" on="1"/>
        <pt x="459" y="182" on="0"/>
        <pt x="493" y="96" on="0"/>
        <pt x="559" y="26" on="0"/>
        <pt x="657" y="-18" on="0"/>
        <pt x="723" y="-18" on="1"/>
        <pt x="775" y="-18" on="0"/>
        <pt x="860" y="24" on="0"/>
        <pt x="920" y="94" on="0"/>
        <pt x="952" y="187" on="0"/>
        <pt x="952" y="238" on="1"/>
        <pt x="952" y="284" on="0"/>
        <pt x="920" y="374" on="0"/>
        <pt x="852" y="445" on="0"/>
        <pt x="746" y="491" on="0"/>
        <pt x="672" y="494" on="1"/>
        <pt x="521" y="501" on="0"/>
        <pt x="308" y="577" on="0"/>
        <pt x="172" y="698" on="0"/>
        <pt x="109" y="854" on="0"/>
        <pt x="109" y="940" on="1"/>
        <pt x="109" y="1033" on="0"/>
        <pt x="165" y="1174" on="0"/>
        <pt x="258" y="1277" on="0"/>
        <pt x="378" y="1346" on="0"/>
        <pt x="507" y="1388" on="0"/>
        <pt x="634" y="1405" on="0"/>
        <pt x="688" y="1405" on="1"/>
        <pt x="700" y="1405" on="1"/>
        <pt x="750" y="1404" on="0"/>
        <pt x="873" y="1389" on="0"/>
        <pt x="1000" y="1357" on="0"/>
        <pt x="1119" y="1305" on="0"/>
        <pt x="1212" y="1229" on="0"/>
        <pt x="1268" y="1126" on="0"/>
        <pt x="1268" y="1059" on="1"/>
        <pt x="1268" y="1020" on="0"/>
        <pt x="1242" y="962" on="0"/>
        <pt x="1199" y="923" on="0"/>
        <pt x="1141" y="903" on="0"/>
        <pt x="1110" y="903" on="1"/>
        <pt x="1072" y="903" on="0"/>
        <pt x="1006" y="937" on="0"/>
        <pt x="957" y="997" on="0"/>
        <pt x="928" y="1080" on="0"/>
        <pt x="928" y="1130" on="1"/>
        <pt x="928" y="1173" on="0"/>
        <pt x="906" y="1257" on="0"/>
        <pt x="853" y="1324" on="0"/>
        <pt x="765" y="1366" on="0"/>
        <pt x="700" y="1368" on="1"/>
        <pt x="690" y="1368" on="1"/>
        <pt x="641" y="1366" on="0"/>
        <pt x="558" y="1313" on="0"/>
        <pt x="498" y="1227" on="0"/>
        <pt x="465" y="1120" on="0"/>
        <pt x="465" y="1065" on="1"/>
        <pt x="465" y="1017" on="0"/>
        <pt x="494" y="927" on="0"/>
        <pt x="557" y="854" on="0"/>
        <pt x="655" y="804" on="0"/>
      </contour>
    </TTGlyph>
    <TTGlyph name="Sacute" xMin="109" yMin="-55" xMax="1292" yMax="1837">
      <component glyphName="S" x="0" y="0" flags="0x204"/>
      <component glyphName="acute" x="709" y="483" flags="0x4"/>
    </TTGlyph>
    <TTGlyph name="Scaron" xMin="109" yMin="-55" xMax="1292" yMax="1802">
      <component glyphName="S" x="0" y="0" flags="0x204"/>
      <component glyphName="caron" x="487" y="514" flags="0x4"/>
    </TTGlyph>
    <TTGlyph name="Scedilla" xMin="109" yMin="-397" xMax="1292" yMax="1405">
      <contour>
        <pt x="725" y="797" on="1"/>
        <pt x="880" y="780" on="0"/>
        <pt x="1096" y="700" on="0"/>
        <pt x="1231" y="589" on="0"/>
        <pt x="1292" y="454" on="0"/>
        <pt x="1292" y="381" on="1"/>
        <pt x="1292" y="297" on="0"/>
        <pt x="1238" y="169" on="0"/>
        <pt x="1149" y="72" on="0"/>
        <pt x="1034" y="6" on="0"/>
        <pt x="913" y="-35" on="0"/>
        <pt x="795" y="-54" on="0"/>
        <pt x="748" y="-55" on="1"/>
        <pt x="723" y="-55" on="1"/>
        <pt x="714" y="-55" on="0"/>
        <pt x="695" y="-55" on="0"/>
        <pt x="686" y="-53" on="1"/>
        <pt x="670" y="-143" on="1"/>
        <pt x="688" y="-138" on="0"/>
        <pt x="724" y="-135" on="0"/>
        <pt x="739" y="-135" on="1"/>
        <pt x="776" y="-135" on="0"/>
        <pt x="838" y="-154" on="0"/>
        <pt x="882" y="-187" on="0"/>
        <pt x="907" y="-231" on="0"/>
        <pt x="907" y="-256" on="1"/>
        <pt x="907" y="-291" on="0"/>
        <pt x="872" y="-343" on="0"/>
        <pt x="814" y="-379" on="0"/>
        <pt x="739" y="-397" on="0"/>
        <pt x="698" y="-397" on="1"/>
        <pt x="633" y="-397" on="0"/>
        <pt x="513" y="-350" on="0"/>
        <pt x="479" y="-299" on="1"/>
        <pt x="506" y="-276" on="1"/>
        <pt x="522" y="-293" on="1"/>
        <pt x="531" y="-302" on="0"/>
        <pt x="553" y="-320" on="0"/>
        <pt x="584" y="-335" on="0"/>
        <pt x="629" y="-344" on="0"/>
        <pt x="662" y="-344" on="1"/>
        <pt x="692" y="-344" on="0"/>
        <pt x="723" y="-287" on="0"/>
        <pt x="723" y="-250" on="1"/>
        <pt x="723" y="-225" on="0"/>
        <pt x="684" y="-197" on="0"/>
        <pt x="653" y="-197" on="1"/>
        <pt x="645" y="-197" on="0"/>
        <pt x="628" y="-199" on="0"/>
        <pt x="618" y="-201" on="1"/>
        <pt x="649" y="-51" on="1"/>
        <pt x="596" y="-46" on="0"/>
        <pt x="476" y="-25" on="0"/>
        <pt x="357" y="11" on="0"/>
        <pt x="248" y="63" on="0"/>
        <pt x="165" y="136" on="0"/>
        <pt x="115" y="232" on="0"/>
        <pt x="115" y="293" on="1"/>
        <pt x="115" y="330" on="0"/>
        <pt x="139" y="386" on="0"/>
        <pt x="181" y="425" on="0"/>
        <pt x="236" y="447" on="0"/>
        <pt x="268" y="449" on="1"/>
        <pt x="307" y="449" on="0"/>
        <pt x="374" y="416" on="0"/>
        <pt x="424" y="357" on="0"/>
        <pt x="455" y="274" on="0"/>
        <pt x="457" y="223" on="1"/>
        <pt x="459" y="182" on="0"/>
        <pt x="493" y="96" on="0"/>
        <pt x="559" y="26" on="0"/>
        <pt x="657" y="-18" on="0"/>
        <pt x="723" y="-18" on="1"/>
        <pt x="775" y="-18" on="0"/>
        <pt x="860" y="24" on="0"/>
        <pt x="920" y="94" on="0"/>
        <pt x="952" y="187" on="0"/>
        <pt x="952" y="238" on="1"/>
        <pt x="952" y="284" on="0"/>
        <pt x="920" y="374" on="0"/>
        <pt x="852" y="445" on="0"/>
        <pt x="746" y="491" on="0"/>
        <pt x="672" y="494" on="1"/>
        <pt x="521" y="501" on="0"/>
        <pt x="308" y="577" on="0"/>
        <pt x="172" y="698" on="0"/>
        <pt x="109" y="854" on="0"/>
        <pt x="109" y="940" on="1"/>
        <pt x="109" y="1033" on="0"/>
        <pt x="165" y="1174" on="0"/>
        <pt x="258" y="1277" on="0"/>
        <pt x="378" y="1346" on="0"/>
        <pt x="507" y="1388" on="0"/>
        <pt x="634" y="1405" on="0"/>
        <pt x="688" y="1405" on="1"/>
        <pt x="700" y="1405" on="1"/>
        <pt x="750" y="1404" on="0"/>
        <pt x="873" y="1389" on="0"/>
        <pt x="1000" y="1357" on="0"/>
        <pt x="1119" y="1305" on="0"/>
        <pt x="1212" y="1229" on="0"/>
        <pt x="1268" y="1126" on="0"/>
        <pt x="1268" y="1059" on="1"/>
        <pt x="1268" y="1020" on="0"/>
        <pt x="1242" y="962" on="0"/>
        <pt x="1199" y="923" on="0"/>
        <pt x="1141" y="903" on="0"/>
        <pt x="1110" y="903" on="1"/>
        <pt x="1072" y="903" on="0"/>
        <pt x="1006" y="937" on="0"/>
        <pt x="957" y="997" on="0"/>
        <pt x="928" y="1080" on="0"/>
        <pt x="928" y="1130" on="1"/>
        <pt x="928" y="1173" on="0"/>
        <pt x="906" y="1257" on="0"/>
        <pt x="853" y="1324" on="0"/>
        <pt x="765" y="1366" on="0"/>
        <pt x="700" y="1368" on="1"/>
        <pt x="690" y="1368" on="1"/>
        <pt x="641" y="1366" on="0"/>
        <pt x="558" y="1313" on="0"/>
        <pt x="498" y="1227" on="0"/>
        <pt x="465" y="1120" on="0"/>
        <pt x="465" y="1065" on="1"/>
        <pt x="465" y="1017" on="0"/>
        <pt x="494" y="927" on="0"/>
        <pt x="557" y="854" on="0"/>
        <pt x="655" y="804" on="0"/>
      </contour>
    </TTGlyph>
    <TTGlyph name="Scircumflex" xMin="109" yMin="-55" xMax="1292" yMax="1822">
      <component glyphName="S" x="0" y="0" flags="0x204"/>
      <component glyphName="circumflex" x="463" y="524" flags="0x4"/>
    </TTGlyph>
    <TTGlyph name="T" xMin="78" yMin="-4" xMax="1325" yMax="1419">
      <contour>
        <pt x="281" y="33" on="1"/>
        <pt x="514" y="33" on="1"/>
        <pt x="520" y="1370" on="1"/>
        <pt x="500" y="1370" on="1"/>
        <pt x="500" y="1368" on="1"/>
        <pt x="396" y="1360" on="0"/>
        <pt x="312" y="1299" on="1"/>
        <pt x="276" y="1273" on="0"/>
        <pt x="208" y="1193" on="0"/>
        <pt x="153" y="1075" on="0"/>
        <pt x="117" y="917" on="0"/>
        <pt x="115" y="813" on="1"/>
        <pt x="78" y="813" on="1"/>
        <pt x="94" y="1419" on="1"/>
        <pt x="1325" y="1382" on="1"/>
        <pt x="1315" y="733" on="1"/>
        <pt x="1278" y="733" on="1"/>
        <pt x="1279" y="854" on="0"/>
        <pt x="1243" y="1036" on="0"/>
        <pt x="1181" y="1169" on="0"/>
        <pt x="1103" y="1258" on="0"/>
        <pt x="1023" y="1315" on="0"/>
        <pt x="950" y="1344" on="0"/>
        <pt x="924" y="1350" on="1"/>
        <pt x="922" y="1330" on="0"/>
        <pt x="918" y="1252" on="0"/>
        <pt x="913" y="1118" on="0"/>
        <pt x="907" y="919" on="0"/>
        <pt x="900" y="639" on="0"/>
        <pt x="893" y="270" on="0"/>
        <pt x="889" y="33" on="1"/>
        <pt x="1135" y="33" on="1"/>
        <pt x="1135" y="-4" on="1"/>
        <pt x="281" y="-4" on="1"/>
      </contour>
    </TTGlyph>
    <TTGlyph name="Tbar" xMin="78" yMin="-4" xMax="1325" yMax="1419">
      <contour>
        <pt x="1118" y="514" on="1"/>
        <pt x="897" y="518" on="1"/>
        <pt x="895" y="412" on="0"/>
        <pt x="891" y="175" on="0"/>
        <pt x="889" y="33" on="1"/>
        <pt x="1135" y="33" on="1"/>
        <pt x="1135" y="-4" on="1"/>
        <pt x="281" y="-4" on="1"/>
        <pt x="281" y="33" on="1"/>
        <pt x="514" y="33" on="1"/>
        <pt x="516" y="524" on="1"/>
        <pt x="297" y="528" on="1"/>
        <pt x="297" y="719" on="1"/>
        <pt x="516" y="719" on="1"/>
        <pt x="520" y="1370" on="1"/>
        <pt x="500" y="1370" on="1"/>
        <pt x="500" y="1368" on="1"/>
        <pt x="396" y="1360" on="0"/>
        <pt x="312" y="1299" on="1"/>
        <pt x="276" y="1273" on="0"/>
        <pt x="208" y="1193" on="0"/>
        <pt x="153" y="1075" on="0"/>
        <pt x="117" y="917" on="0"/>
        <pt x="115" y="813" on="1"/>
        <pt x="78" y="813" on="1"/>
        <pt x="94" y="1419" on="1"/>
        <pt x="1325" y="1382" on="1"/>
        <pt x="1315" y="733" on="1"/>
        <pt x="1278" y="733" on="1"/>
        <pt x="1279" y="854" on="0"/>
        <pt x="1243" y="1036" on="0"/>
        <pt x="1181" y="1169" on="0"/>
        <pt x="1103" y="1258" on="0"/>
        <pt x="1023" y="1315" on="0"/>
        <pt x="950" y="1344" on="0"/>
        <pt x="924" y="1350" on="1"/>
        <pt x="922" y="1329" on="0"/>
        <pt x="918" y="1244" on="0"/>
        <pt x="912" y="1096" on="0"/>
        <pt x="905" y="876" on="0"/>
        <pt x="901" y="719" on="1"/>
        <pt x="1118" y="719" on="1"/>
      </contour>
    </TTGlyph>
    <TTGlyph name="Tcaron" xMin="78" yMin="-4" xMax="1325" yMax="1851">
      <component glyphName="T" x="0" y="0" flags="0x204"/>
      <component glyphName="caron" x="477" y="563" flags="0x4"/>
    </TTGlyph>
    <TTGlyph name="Tcommaaccent" xMin="78" yMin="-520" xMax="1325" yMax="1419">
      <component glyphName="T" x="0" y="0" flags="0x204"/>
      <component glyphName="uni0326" x="575" y="0" flags="0x4"/>
    </TTGlyph>
    <TTGlyph name="Thorn" xMin="43" yMin="-16" xMax="1473" yMax="1403">
      <contour>
        <pt x="43" y="1403" on="1"/>
        <pt x="926" y="1403" on="1"/>
        <pt x="926" y="1366" on="1"/>
        <pt x="692" y="1366" on="1"/>
        <pt x="688" y="1130" on="1"/>
        <pt x="720" y="1132" on="0"/>
        <pt x="822" y="1134" on="0"/>
        <pt x="944" y="1127" on="0"/>
        <pt x="1079" y="1107" on="0"/>
        <pt x="1211" y="1067" on="0"/>
        <pt x="1329" y="1003" on="0"/>
        <pt x="1420" y="907" on="0"/>
        <pt x="1473" y="776" on="0"/>
        <pt x="1473" y="690" on="1"/>
        <pt x="1473" y="559" on="0"/>
        <pt x="1377" y="387" on="0"/>
        <pt x="1190" y="285" on="0"/>
        <pt x="915" y="244" on="0"/>
        <pt x="735" y="244" on="1"/>
        <pt x="676" y="244" on="1"/>
        <pt x="672" y="20" on="1"/>
        <pt x="926" y="20" on="1"/>
        <pt x="926" y="-16" on="1"/>
        <pt x="43" y="-16" on="1"/>
        <pt x="43" y="20" on="1"/>
        <pt x="309" y="20" on="1"/>
        <pt x="324" y="1366" on="1"/>
        <pt x="43" y="1366" on="1"/>
      </contour>
      <contour>
        <pt x="1118" y="692" on="1"/>
        <pt x="1118" y="778" on="0"/>
        <pt x="1088" y="904" on="0"/>
        <pt x="1032" y="993" on="0"/>
        <pt x="954" y="1048" on="0"/>
        <pt x="858" y="1079" on="0"/>
        <pt x="748" y="1092" on="0"/>
        <pt x="688" y="1094" on="1"/>
        <pt x="676" y="289" on="1"/>
        <pt x="759" y="297" on="0"/>
        <pt x="885" y="341" on="0"/>
        <pt x="978" y="401" on="0"/>
        <pt x="1042" y="471" on="0"/>
        <pt x="1063" y="507" on="1"/>
        <pt x="1111" y="591" on="0"/>
      </contour>
    </TTGlyph>
    <TTGlyph name="U" xMin="-4" yMin="-43" xMax="1796" yMax="1415">
      <contour>
        <pt x="-4" y="1415" on="1"/>
        <pt x="831" y="1391" on="1"/>
        <pt x="831" y="1354" on="1"/>
        <pt x="645" y="1360" on="1"/>
        <pt x="635" y="600" on="1"/>
        <pt x="635" y="560" on="0"/>
        <pt x="636" y="439" on="0"/>
        <pt x="648" y="304" on="0"/>
        <pt x="676" y="170" on="0"/>
        <pt x="729" y="62" on="0"/>
        <pt x="812" y="-6" on="0"/>
        <pt x="874" y="-6" on="1"/>
        <pt x="945" y="-6" on="0"/>
        <pt x="1044" y="64" on="0"/>
        <pt x="1109" y="179" on="0"/>
        <pt x="1146" y="326" on="0"/>
        <pt x="1165" y="478" on="0"/>
        <pt x="1170" y="624" on="0"/>
        <pt x="1171" y="680" on="1"/>
        <pt x="1178" y="1372" on="1"/>
        <pt x="961" y="1378" on="1"/>
        <pt x="961" y="1415" on="1"/>
        <pt x="1796" y="1391" on="1"/>
        <pt x="1796" y="1354" on="1"/>
        <pt x="1581" y="1360" on="1"/>
        <pt x="1579" y="1342" on="0"/>
        <pt x="1573" y="1250" on="0"/>
        <pt x="1566" y="1087" on="0"/>
        <pt x="1560" y="846" on="0"/>
        <pt x="1559" y="680" on="1"/>
        <pt x="1558" y="586" on="0"/>
        <pt x="1512" y="405" on="0"/>
        <pt x="1427" y="245" on="0"/>
        <pt x="1305" y="110" on="0"/>
        <pt x="1154" y="12" on="0"/>
        <pt x="974" y="-43" on="0"/>
        <pt x="874" y="-43" on="1"/>
        <pt x="729" y="-43" on="0"/>
        <pt x="496" y="71" on="0"/>
        <pt x="333" y="267" on="0"/>
        <pt x="246" y="530" on="0"/>
        <pt x="248" y="680" on="1"/>
        <pt x="256" y="1370" on="1"/>
        <pt x="-4" y="1378" on="1"/>
      </contour>
    </TTGlyph>
    <TTGlyph name="Uacute" xMin="-4" yMin="-43" xMax="1796" yMax="1843">
      <component glyphName="U" x="0" y="0" flags="0x204"/>
      <component glyphName="acute" x="922" y="489" flags="0x4"/>
    </TTGlyph>
    <TTGlyph name="Ubreve" xMin="-4" yMin="-43" xMax="1796" yMax="1755">
      <component glyphName="U" x="0" y="0" flags="0x204"/>
      <component glyphName="breve" x="696" y="524" flags="0x4"/>
    </TTGlyph>
    <TTGlyph name="Ucircumflex" xMin="-4" yMin="-43" xMax="1796" yMax="1814">
      <component glyphName="U" x="0" y="0" flags="0x204"/>
      <component glyphName="circumflex" x="686" y="516" flags="0x4"/>
    </TTGlyph>
    <TTGlyph name="Udieresis" xMin="-4" yMin="-43" xMax="1796" yMax="1726">
      <component glyphName="U" x="0" y="0" flags="0x204"/>
      <component glyphName="dieresis" x="629" y="446" flags="0x4"/>
    </TTGlyph>
    <TTGlyph name="Ugrave" xMin="-4" yMin="-43" xMax="1796" yMax="1815">
      <component glyphName="U" x="0" y="0" flags="0x204"/>
      <component glyphName="grave" x="465" y="461" flags="0x4"/>
    </TTGlyph>
    <TTGlyph name="Uhungarumlaut" xMin="-4" yMin="-43" xMax="1796" yMax="1846">
      <component glyphName="U" x="0" y="0" flags="0x204"/>
      <component glyphName="hungarumlaut" x="729" y="492" flags="0x4"/>
    </TTGlyph>
    <TTGlyph name="Umacron" xMin="-4" yMin="-43" xMax="1796" yMax="1659">
      <component glyphName="U" x="0" y="0" flags="0x204"/>
      <component glyphName="macron" x="659" y="510" flags="0x4"/>
    </TTGlyph>
    <TTGlyph name="Uogonek" xMin="-4" yMin="-422" xMax="1796" yMax="1415">
      <contour>
        <pt x="874" y="-6" on="1"/>
        <pt x="945" y="-6" on="0"/>
        <pt x="1044" y="64" on="0"/>
        <pt x="1109" y="179" on="0"/>
        <pt x="1146" y="326" on="0"/>
        <pt x="1165" y="478" on="0"/>
        <pt x="1170" y="624" on="0"/>
        <pt x="1171" y="680" on="1"/>
        <pt x="1178" y="1372" on="1"/>
        <pt x="961" y="1378" on="1"/>
        <pt x="961" y="1415" on="1"/>
        <pt x="1796" y="1391" on="1"/>
        <pt x="1796" y="1354" on="1"/>
        <pt x="1581" y="1360" on="1"/>
        <pt x="1579" y="1342" on="0"/>
        <pt x="1573" y="1250" on="0"/>
        <pt x="1566" y="1087" on="0"/>
        <pt x="1560" y="846" on="0"/>
        <pt x="1559" y="680" on="1"/>
        <pt x="1558" y="590" on="0"/>
        <pt x="1517" y="419" on="0"/>
        <pt x="1440" y="265" on="0"/>
        <pt x="1330" y="132" on="0"/>
        <pt x="1192" y="32" on="0"/>
        <pt x="1028" y="-32" on="0"/>
        <pt x="936" y="-41" on="1"/>
        <pt x="902" y="-87" on="0"/>
        <pt x="856" y="-177" on="0"/>
        <pt x="856" y="-225" on="1"/>
        <pt x="856" y="-259" on="0"/>
        <pt x="885" y="-297" on="0"/>
        <pt x="911" y="-297" on="1"/>
        <pt x="937" y="-297" on="0"/>
        <pt x="978" y="-285" on="0"/>
        <pt x="992" y="-277" on="1"/>
        <pt x="1008" y="-268" on="0"/>
        <pt x="1020" y="-256" on="1"/>
        <pt x="1049" y="-276" on="1"/>
        <pt x="1011" y="-351" on="0"/>
        <pt x="910" y="-422" on="0"/>
        <pt x="838" y="-422" on="1"/>
        <pt x="809" y="-422" on="0"/>
        <pt x="758" y="-402" on="0"/>
        <pt x="721" y="-365" on="0"/>
        <pt x="700" y="-315" on="0"/>
        <pt x="700" y="-285" on="1"/>
        <pt x="700" y="-160" on="0"/>
        <pt x="858" y="-41" on="1"/>
        <pt x="763" y="-39" on="0"/>
        <pt x="599" y="15" on="0"/>
        <pt x="462" y="110" on="0"/>
        <pt x="356" y="241" on="0"/>
        <pt x="284" y="400" on="0"/>
        <pt x="247" y="582" on="0"/>
        <pt x="248" y="680" on="1"/>
        <pt x="256" y="1370" on="1"/>
        <pt x="-4" y="1378" on="1"/>
        <pt x="-4" y="1415" on="1"/>
        <pt x="831" y="1391" on="1"/>
        <pt x="831" y="1354" on="1"/>
        <pt x="645" y="1360" on="1"/>
        <pt x="635" y="600" on="1"/>
        <pt x="635" y="560" on="0"/>
        <pt x="636" y="439" on="0"/>
        <pt x="648" y="304" on="0"/>
        <pt x="676" y="170" on="0"/>
        <pt x="729" y="62" on="0"/>
        <pt x="812" y="-6" on="0"/>
      </contour>
    </TTGlyph>
    <TTGlyph name="Uring" xMin="-4" yMin="-43" xMax="1796" yMax="1867">
      <component glyphName="U" x="0" y="0" flags="0x204"/>
      <component glyphName="ring" x="678" y="524" flags="0x4"/>
    </TTGlyph>
    <TTGlyph name="Utilde" xMin="-4" yMin="-43" xMax="1796" yMax="1727">
      <component glyphName="U" x="0" y="0" flags="0x204"/>
      <component glyphName="tilde" x="647" y="510" flags="0x4"/>
    </TTGlyph>
    <TTGlyph name="V" xMin="-90" yMin="-53" xMax="1530" yMax="1417">
      <contour>
        <pt x="686" y="1374" on="1"/>
        <pt x="512" y="1374" on="1"/>
        <pt x="903" y="473" on="1"/>
        <pt x="993" y="700" on="0"/>
        <pt x="1174" y="1150" on="0"/>
        <pt x="1264" y="1376" on="1"/>
        <pt x="1008" y="1380" on="1"/>
        <pt x="1008" y="1417" on="1"/>
        <pt x="1530" y="1411" on="1"/>
        <pt x="1530" y="1374" on="1"/>
        <pt x="1300" y="1376" on="1"/>
        <pt x="731" y="-53" on="1"/>
        <pt x="94" y="1374" on="1"/>
        <pt x="-90" y="1374" on="1"/>
        <pt x="-90" y="1411" on="1"/>
        <pt x="686" y="1411" on="1"/>
      </contour>
    </TTGlyph>
    <TTGlyph name="W" xMin="-90" yMin="-55" xMax="2130" yMax="1417">
      <contour>
        <pt x="2130" y="1374" on="1"/>
        <pt x="1901" y="1376" on="1"/>
        <pt x="1403" y="-55" on="1"/>
        <pt x="1004" y="860" on="1"/>
        <pt x="662" y="-55" on="1"/>
        <pt x="94" y="1374" on="1"/>
        <pt x="-90" y="1374" on="1"/>
        <pt x="-90" y="1411" on="1"/>
        <pt x="686" y="1411" on="1"/>
        <pt x="686" y="1374" on="1"/>
        <pt x="510" y="1374" on="1"/>
        <pt x="834" y="504" on="1"/>
        <pt x="919" y="733" on="0"/>
        <pt x="1089" y="1185" on="0"/>
        <pt x="1169" y="1403" on="1"/>
        <pt x="1556" y="498" on="1"/>
        <pt x="1634" y="721" on="0"/>
        <pt x="1788" y="1156" on="0"/>
        <pt x="1864" y="1376" on="1"/>
        <pt x="1608" y="1380" on="1"/>
        <pt x="1608" y="1417" on="1"/>
        <pt x="2130" y="1411" on="1"/>
      </contour>
    </TTGlyph>
    <TTGlyph name="Wacute" xMin="-90" yMin="-55" xMax="2130" yMax="1827">
      <component glyphName="W" x="0" y="0" flags="0x204"/>
      <component glyphName="acute" x="1169" y="473" flags="0x4"/>
    </TTGlyph>
    <TTGlyph name="Wcircumflex" xMin="-90" yMin="-55" xMax="2130" yMax="1790">
      <component glyphName="W" x="0" y="0" flags="0x204"/>
      <component glyphName="circumflex" x="918" y="492" flags="0x4"/>
    </TTGlyph>
    <TTGlyph name="Wdieresis" xMin="-90" yMin="-55" xMax="2130" yMax="1733">
      <component glyphName="W" x="0" y="0" flags="0x204"/>
      <component glyphName="dieresis" x="915" y="453" flags="0x4"/>
    </TTGlyph>
    <TTGlyph name="Wgrave" xMin="-90" yMin="-55" xMax="2130" yMax="1835">
      <component glyphName="W" x="0" y="0" flags="0x204"/>
      <component glyphName="grave" x="752" y="481" flags="0x4"/>
    </TTGlyph>
    <TTGlyph name="X" xMin="-25" yMin="-6" xMax="1776" yMax="1419">
      <contour>
        <pt x="940" y="1393" on="1"/>
        <pt x="1776" y="1419" on="1"/>
        <pt x="1776" y="1382" on="1"/>
        <pt x="1372" y="1368" on="1"/>
        <pt x="991" y="838" on="1"/>
        <pt x="1565" y="31" on="1"/>
        <pt x="1761" y="31" on="1"/>
        <pt x="1761" y="-6" on="1"/>
        <pt x="946" y="-6" on="1"/>
        <pt x="946" y="31" on="1"/>
        <pt x="1135" y="31" on="1"/>
        <pt x="776" y="541" on="1"/>
        <pt x="410" y="31" on="1"/>
        <pt x="795" y="31" on="1"/>
        <pt x="795" y="-6" on="1"/>
        <pt x="-20" y="-6" on="1"/>
        <pt x="-20" y="31" on="1"/>
        <pt x="367" y="31" on="1"/>
        <pt x="756" y="571" on="1"/>
        <pt x="649" y="723" on="0"/>
        <pt x="487" y="954" on="0"/>
        <pt x="366" y="1124" on="0"/>
        <pt x="284" y="1241" on="0"/>
        <pt x="230" y="1315" on="0"/>
        <pt x="203" y="1354" on="0"/>
        <pt x="197" y="1362" on="1"/>
        <pt x="-25" y="1356" on="1"/>
        <pt x="-25" y="1393" on="1"/>
        <pt x="811" y="1419" on="1"/>
        <pt x="811" y="1382" on="1"/>
        <pt x="608" y="1374" on="1"/>
        <pt x="969" y="868" on="1"/>
        <pt x="1329" y="1368" on="1"/>
        <pt x="940" y="1356" on="1"/>
      </contour>
    </TTGlyph>
    <TTGlyph name="Y" xMin="-68" yMin="-10" xMax="1419" yMax="1427">
      <contour>
        <pt x="711" y="1391" on="1"/>
        <pt x="539" y="1384" on="1"/>
        <pt x="870" y="762" on="1"/>
        <pt x="1151" y="1376" on="1"/>
        <pt x="897" y="1380" on="1"/>
        <pt x="897" y="1417" on="1"/>
        <pt x="1419" y="1411" on="1"/>
        <pt x="1419" y="1374" on="1"/>
        <pt x="1190" y="1376" on="1"/>
        <pt x="895" y="729" on="1"/>
        <pt x="889" y="27" on="1"/>
        <pt x="1135" y="27" on="1"/>
        <pt x="1135" y="-10" on="1"/>
        <pt x="279" y="-10" on="1"/>
        <pt x="279" y="27" on="1"/>
        <pt x="514" y="27" on="1"/>
        <pt x="520" y="692" on="1"/>
        <pt x="117" y="1372" on="1"/>
        <pt x="-63" y="1366" on="1"/>
        <pt x="-68" y="1403" on="1"/>
        <pt x="711" y="1427" on="1"/>
      </contour>
    </TTGlyph>
    <TTGlyph name="Yacute" xMin="-68" yMin="-10" xMax="1419" yMax="1858">
      <component glyphName="Y" x="0" y="0" flags="0x204"/>
      <component glyphName="acute" x="827" y="504" flags="0x4"/>
    </TTGlyph>
    <TTGlyph name="Ycircumflex" xMin="-68" yMin="-10" xMax="1419" yMax="1837">
      <component glyphName="Y" x="0" y="0" flags="0x204"/>
      <component glyphName="circumflex" x="582" y="539" flags="0x4"/>
    </TTGlyph>
    <TTGlyph name="Ydieresis" xMin="-68" yMin="-10" xMax="1419" yMax="1759">
      <component glyphName="Y" x="0" y="0" flags="0x204"/>
      <component glyphName="dieresis" x="496" y="479" flags="0x4"/>
    </TTGlyph>
    <TTGlyph name="Ygrave" xMin="-68" yMin="-10" xMax="1419" yMax="1846">
      <component glyphName="Y" x="0" y="0" flags="0x204"/>
      <component glyphName="grave" x="401" y="492" flags="0x4"/>
    </TTGlyph>
    <TTGlyph name="Z" xMin="90" yMin="0" xMax="1311" yMax="1421">
      <contour>
        <pt x="90" y="6" on="1"/>
        <pt x="133" y="69" on="0"/>
        <pt x="230" y="236" on="1"/>
        <pt x="271" y="307" on="0"/>
        <pt x="385" y="509" on="0"/>
        <pt x="537" y="785" on="0"/>
        <pt x="730" y="1141" on="0"/>
        <pt x="850" y="1366" on="1"/>
        <pt x="537" y="1374" on="1"/>
        <pt x="517" y="1371" on="0"/>
        <pt x="454" y="1351" on="0"/>
        <pt x="380" y="1303" on="0"/>
        <pt x="301" y="1223" on="0"/>
        <pt x="229" y="1096" on="0"/>
        <pt x="172" y="918" on="0"/>
        <pt x="156" y="797" on="1"/>
        <pt x="119" y="799" on="1"/>
        <pt x="137" y="1421" on="1"/>
        <pt x="1311" y="1395" on="1"/>
        <pt x="1267" y="1331" on="0"/>
        <pt x="1170" y="1165" on="1"/>
        <pt x="1129" y="1094" on="0"/>
        <pt x="1015" y="892" on="0"/>
        <pt x="864" y="618" on="0"/>
        <pt x="673" y="264" on="0"/>
        <pt x="555" y="41" on="1"/>
        <pt x="879" y="39" on="1"/>
        <pt x="897" y="41" on="0"/>
        <pt x="960" y="61" on="0"/>
        <pt x="1034" y="108" on="0"/>
        <pt x="1114" y="189" on="0"/>
        <pt x="1186" y="317" on="0"/>
        <pt x="1243" y="500" on="0"/>
        <pt x="1257" y="625" on="1"/>
        <pt x="1294" y="623" on="1"/>
        <pt x="1286" y="0" on="1"/>
      </contour>
    </TTGlyph>
    <TTGlyph name="Zacute" xMin="90" yMin="0" xMax="1311" yMax="1850">
      <component glyphName="Z" x="0" y="0" flags="0x204"/>
      <component glyphName="acute" x="719" y="496" flags="0x4"/>
    </TTGlyph>
    <TTGlyph name="Zcaron" xMin="90" yMin="0" xMax="1311" yMax="1839">
      <component glyphName="Z" x="0" y="0" flags="0x204"/>
      <component glyphName="caron" x="494" y="551" flags="0x4"/>
    </TTGlyph>
    <TTGlyph name="Zdotaccent" xMin="90" yMin="0" xMax="1311" yMax="1767">
      <component glyphName="Z" x="0" y="0" flags="0x204"/>
      <component glyphName="dotaccent" x="625" y="487" flags="0x4"/>
    </TTGlyph>
    <TTGlyph name="a" xMin="57" yMin="-80" xMax="971" yMax="872">
      <contour>
        <pt x="827" y="-39" on="1"/>
        <pt x="849" y="-37" on="0"/>
        <pt x="869" y="-17" on="1"/>
        <pt x="886" y="0" on="0"/>
        <pt x="922" y="75" on="0"/>
        <pt x="934" y="145" on="1"/>
        <pt x="971" y="141" on="1"/>
        <pt x="957" y="58" on="0"/>
        <pt x="910" y="-30" on="0"/>
        <pt x="886" y="-50" on="1"/>
        <pt x="858" y="-74" on="0"/>
        <pt x="827" y="-76" on="1"/>
        <pt x="803" y="-76" on="0"/>
        <pt x="728" y="-62" on="0"/>
        <pt x="654" y="-27" on="0"/>
        <pt x="592" y="31" on="0"/>
        <pt x="580" y="76" on="1"/>
        <pt x="539" y="7" on="0"/>
        <pt x="401" y="-80" on="0"/>
        <pt x="313" y="-80" on="1"/>
        <pt x="269" y="-80" on="0"/>
        <pt x="179" y="-60" on="0"/>
        <pt x="104" y="-14" on="0"/>
        <pt x="57" y="61" on="0"/>
        <pt x="57" y="117" on="1"/>
        <pt x="57" y="187" on="0"/>
        <pt x="112" y="290" on="0"/>
        <pt x="204" y="359" on="0"/>
        <pt x="322" y="393" on="0"/>
        <pt x="385" y="393" on="1"/>
        <pt x="428" y="393" on="0"/>
        <pt x="509" y="373" on="0"/>
        <pt x="551" y="348" on="1"/>
        <pt x="553" y="399" on="0"/>
        <pt x="566" y="501" on="0"/>
        <pt x="571" y="545" on="1"/>
        <pt x="574" y="571" on="0"/>
        <pt x="577" y="603" on="0"/>
        <pt x="579" y="623" on="0"/>
        <pt x="580" y="633" on="0"/>
        <pt x="580" y="637" on="1"/>
        <pt x="580" y="728" on="0"/>
        <pt x="514" y="836" on="0"/>
        <pt x="459" y="836" on="1"/>
        <pt x="433" y="834" on="0"/>
        <pt x="379" y="820" on="0"/>
        <pt x="335" y="795" on="0"/>
        <pt x="307" y="758" on="0"/>
        <pt x="307" y="733" on="1"/>
        <pt x="307" y="706" on="0"/>
        <pt x="341" y="675" on="0"/>
        <pt x="382" y="644" on="0"/>
        <pt x="416" y="604" on="0"/>
        <pt x="416" y="569" on="1"/>
        <pt x="416" y="532" on="0"/>
        <pt x="393" y="483" on="0"/>
        <pt x="355" y="453" on="0"/>
        <pt x="307" y="440" on="0"/>
        <pt x="283" y="440" on="1"/>
        <pt x="258" y="440" on="0"/>
        <pt x="209" y="457" on="0"/>
        <pt x="170" y="493" on="0"/>
        <pt x="145" y="551" on="0"/>
        <pt x="145" y="592" on="1"/>
        <pt x="145" y="647" on="0"/>
        <pt x="199" y="747" on="0"/>
        <pt x="287" y="823" on="0"/>
        <pt x="399" y="870" on="0"/>
        <pt x="457" y="872" on="1"/>
        <pt x="511" y="872" on="0"/>
        <pt x="638" y="828" on="0"/>
        <pt x="749" y="722" on="0"/>
        <pt x="823" y="544" on="0"/>
        <pt x="823" y="410" on="1"/>
        <pt x="823" y="347" on="0"/>
        <pt x="814" y="233" on="0"/>
        <pt x="804" y="136" on="0"/>
        <pt x="795" y="56" on="0"/>
        <pt x="795" y="27" on="1"/>
        <pt x="795" y="-2" on="0"/>
        <pt x="806" y="-36" on="0"/>
        <pt x="823" y="-39" on="1"/>
      </contour>
      <contour>
        <pt x="563" y="129" on="1"/>
        <pt x="557" y="163" on="0"/>
        <pt x="551" y="238" on="0"/>
        <pt x="551" y="276" on="1"/>
        <pt x="551" y="303" on="1"/>
        <pt x="523" y="326" on="0"/>
        <pt x="458" y="348" on="0"/>
        <pt x="432" y="348" on="1"/>
        <pt x="369" y="348" on="0"/>
        <pt x="303" y="244" on="0"/>
        <pt x="303" y="158" on="1"/>
        <pt x="303" y="122" on="0"/>
        <pt x="318" y="60" on="0"/>
        <pt x="345" y="15" on="0"/>
        <pt x="384" y="-10" on="0"/>
        <pt x="408" y="-10" on="1"/>
        <pt x="432" y="-10" on="0"/>
        <pt x="477" y="14" on="0"/>
        <pt x="517" y="53" on="0"/>
        <pt x="551" y="103" on="0"/>
      </contour>
    </TTGlyph>
    <TTGlyph name="aacute" xMin="57" yMin="-80" xMax="971" yMax="1304">
      <component glyphName="a" x="0" y="0" flags="0x204"/>
      <component glyphName="acute" x="477" y="-50" flags="0x4"/>
    </TTGlyph>
    <TTGlyph name="abreve" xMin="57" yMin="-80" xMax="971" yMax="1218">
      <component glyphName="a" x="0" y="0" flags="0x204"/>
      <component glyphName="breve" x="260" y="-13" flags="0x4"/>
    </TTGlyph>
    <TTGlyph name="acircumflex" xMin="57" yMin="-80" xMax="971" yMax="1262">
      <component glyphName="a" x="0" y="0" flags="0x204"/>
      <component glyphName="circumflex" x="244" y="-36" flags="0x4"/>
    </TTGlyph>
    <TTGlyph name="acute" xMin="0" yMin="1006" xMax="410" yMax="1354">
      <contour>
        <pt x="16" y="1006" on="1"/>
        <pt x="0" y="1028" on="1"/>
        <pt x="203" y="1276" on="1"/>
        <pt x="235" y="1314" on="0"/>
        <pt x="293" y="1354" on="0"/>
        <pt x="324" y="1354" on="1"/>
        <pt x="361" y="1354" on="0"/>
        <pt x="410" y="1303" on="0"/>
        <pt x="410" y="1266" on="1"/>
        <pt x="410" y="1231" on="0"/>
        <pt x="374" y="1193" on="0"/>
        <pt x="340" y="1174" on="1"/>
      </contour>
    </TTGlyph>
    <TTGlyph name="adieresis" xMin="57" yMin="-80" xMax="971" yMax="1189">
      <component glyphName="a" x="0" y="0" flags="0x204"/>
      <component glyphName="dieresis" x="221" y="-91" flags="0x4"/>
    </TTGlyph>
    <TTGlyph name="ae" xMin="57" yMin="-80" xMax="1374" yMax="872">
      <contour>
        <pt x="1374" y="502" on="1"/>
        <pt x="1374" y="449" on="0"/>
        <pt x="1306" y="364" on="0"/>
        <pt x="1200" y="304" on="0"/>
        <pt x="1069" y="269" on="0"/>
        <pt x="1006" y="268" on="1"/>
        <pt x="1002" y="268" on="0"/>
        <pt x="974" y="270" on="0"/>
        <pt x="933" y="281" on="0"/>
        <pt x="883" y="305" on="0"/>
        <pt x="858" y="328" on="1"/>
        <pt x="861" y="239" on="0"/>
        <pt x="888" y="112" on="0"/>
        <pt x="933" y="31" on="0"/>
        <pt x="994" y="-6" on="0"/>
        <pt x="1030" y="-6" on="1"/>
        <pt x="1051" y="-6" on="0"/>
        <pt x="1122" y="22" on="0"/>
        <pt x="1200" y="80" on="0"/>
        <pt x="1274" y="170" on="0"/>
        <pt x="1298" y="233" on="1"/>
        <pt x="1327" y="307" on="1"/>
        <pt x="1364" y="295" on="1"/>
        <pt x="1348" y="250" on="1"/>
        <pt x="1325" y="191" on="0"/>
        <pt x="1253" y="85" on="0"/>
        <pt x="1159" y="2" on="0"/>
        <pt x="1043" y="-49" on="0"/>
        <pt x="977" y="-53" on="1"/>
        <pt x="910" y="-51" on="0"/>
        <pt x="801" y="-23" on="0"/>
        <pt x="713" y="23" on="0"/>
        <pt x="647" y="85" on="0"/>
        <pt x="623" y="121" on="1"/>
        <pt x="591" y="70" on="0"/>
        <pt x="516" y="-6" on="0"/>
        <pt x="435" y="-56" on="0"/>
        <pt x="352" y="-80" on="0"/>
        <pt x="313" y="-80" on="1"/>
        <pt x="269" y="-80" on="0"/>
        <pt x="179" y="-60" on="0"/>
        <pt x="104" y="-14" on="0"/>
        <pt x="57" y="61" on="0"/>
        <pt x="57" y="117" on="1"/>
        <pt x="57" y="187" on="0"/>
        <pt x="112" y="290" on="0"/>
        <pt x="204" y="359" on="0"/>
        <pt x="322" y="393" on="0"/>
        <pt x="385" y="393" on="1"/>
        <pt x="428" y="393" on="0"/>
        <pt x="509" y="373" on="0"/>
        <pt x="551" y="348" on="1"/>
        <pt x="553" y="399" on="0"/>
        <pt x="566" y="501" on="0"/>
        <pt x="571" y="545" on="1"/>
        <pt x="574" y="571" on="0"/>
        <pt x="577" y="603" on="0"/>
        <pt x="579" y="623" on="0"/>
        <pt x="580" y="633" on="0"/>
        <pt x="580" y="637" on="1"/>
        <pt x="580" y="728" on="0"/>
        <pt x="514" y="836" on="0"/>
        <pt x="459" y="836" on="1"/>
        <pt x="433" y="834" on="0"/>
        <pt x="379" y="820" on="0"/>
        <pt x="335" y="795" on="0"/>
        <pt x="307" y="758" on="0"/>
        <pt x="307" y="733" on="1"/>
        <pt x="307" y="706" on="0"/>
        <pt x="341" y="675" on="0"/>
        <pt x="382" y="644" on="0"/>
        <pt x="416" y="604" on="0"/>
        <pt x="416" y="569" on="1"/>
        <pt x="416" y="532" on="0"/>
        <pt x="393" y="483" on="0"/>
        <pt x="355" y="453" on="0"/>
        <pt x="307" y="440" on="0"/>
        <pt x="283" y="440" on="1"/>
        <pt x="258" y="440" on="0"/>
        <pt x="209" y="457" on="0"/>
        <pt x="170" y="493" on="0"/>
        <pt x="145" y="551" on="0"/>
        <pt x="145" y="592" on="1"/>
        <pt x="145" y="647" on="0"/>
        <pt x="199" y="747" on="0"/>
        <pt x="287" y="823" on="0"/>
        <pt x="399" y="870" on="0"/>
        <pt x="457" y="872" on="1"/>
        <pt x="488" y="872" on="0"/>
        <pt x="561" y="857" on="0"/>
        <pt x="634" y="824" on="0"/>
        <pt x="704" y="770" on="0"/>
        <pt x="733" y="731" on="1"/>
        <pt x="790" y="787" on="0"/>
        <pt x="933" y="858" on="0"/>
        <pt x="1020" y="858" on="1"/>
        <pt x="1085" y="856" on="0"/>
        <pt x="1188" y="821" on="0"/>
        <pt x="1267" y="764" on="0"/>
        <pt x="1322" y="692" on="0"/>
        <pt x="1358" y="615" on="0"/>
        <pt x="1374" y="536" on="0"/>
      </contour>
      <contour>
        <pt x="1004" y="821" on="1"/>
        <pt x="972" y="819" on="0"/>
        <pt x="917" y="751" on="0"/>
        <pt x="878" y="634" on="0"/>
        <pt x="856" y="476" on="0"/>
        <pt x="856" y="385" on="1"/>
        <pt x="881" y="356" on="0"/>
        <pt x="931" y="324" on="0"/>
        <pt x="972" y="309" on="0"/>
        <pt x="1001" y="305" on="0"/>
        <pt x="1004" y="305" on="1"/>
        <pt x="1043" y="306" on="0"/>
        <pt x="1094" y="338" on="0"/>
        <pt x="1123" y="394" on="0"/>
        <pt x="1135" y="472" on="0"/>
        <pt x="1135" y="520" on="1"/>
        <pt x="1135" y="580" on="0"/>
        <pt x="1120" y="689" on="0"/>
        <pt x="1089" y="772" on="0"/>
        <pt x="1039" y="821" on="0"/>
      </contour>
      <contour>
        <pt x="563" y="129" on="1"/>
        <pt x="557" y="163" on="0"/>
        <pt x="551" y="238" on="0"/>
        <pt x="551" y="276" on="1"/>
        <pt x="551" y="303" on="1"/>
        <pt x="523" y="326" on="0"/>
        <pt x="458" y="348" on="0"/>
        <pt x="432" y="348" on="1"/>
        <pt x="369" y="348" on="0"/>
        <pt x="303" y="244" on="0"/>
        <pt x="303" y="158" on="1"/>
        <pt x="303" y="122" on="0"/>
        <pt x="318" y="60" on="0"/>
        <pt x="345" y="15" on="0"/>
        <pt x="384" y="-10" on="0"/>
        <pt x="408" y="-10" on="1"/>
        <pt x="432" y="-10" on="0"/>
        <pt x="477" y="14" on="0"/>
        <pt x="517" y="53" on="0"/>
        <pt x="551" y="103" on="0"/>
      </contour>
    </TTGlyph>
    <TTGlyph name="aeacute" xMin="57" yMin="-80" xMax="1374" yMax="1273">
      <component glyphName="ae" x="0" y="0" flags="0x204"/>
      <component glyphName="acute" x="756" y="-81" flags="0x4"/>
    </TTGlyph>
    <TTGlyph name="agrave" xMin="31" yMin="-80" xMax="971" yMax="1296">
      <component glyphName="a" x="0" y="0" flags="0x204"/>
      <component glyphName="grave" x="31" y="-58" flags="0x4"/>
    </TTGlyph>
    <TTGlyph name="amacron" xMin="57" yMin="-80" xMax="971" yMax="1111">
      <component glyphName="a" x="0" y="0" flags="0x204"/>
      <component glyphName="macron" x="248" y="-38" flags="0x4"/>
    </TTGlyph>
    <TTGlyph name="ampersand" xMin="111" yMin="-47" xMax="1571" yMax="1360">
      <contour>
        <pt x="1063" y="774" on="1"/>
        <pt x="1552" y="795" on="1"/>
        <pt x="1552" y="758" on="1"/>
        <pt x="1339" y="748" on="1"/>
        <pt x="1338" y="737" on="0"/>
        <pt x="1327" y="662" on="0"/>
        <pt x="1291" y="550" on="0"/>
        <pt x="1221" y="411" on="0"/>
        <pt x="1163" y="336" on="1"/>
        <pt x="1238" y="233" on="0"/>
        <pt x="1356" y="71" on="0"/>
        <pt x="1386" y="29" on="1"/>
        <pt x="1571" y="31" on="1"/>
        <pt x="1571" y="-6" on="1"/>
        <pt x="1022" y="-14" on="1"/>
        <pt x="1010" y="1" on="0"/>
        <pt x="995" y="20" on="1"/>
        <pt x="982" y="37" on="0"/>
        <pt x="947" y="84" on="0"/>
        <pt x="926" y="113" on="1"/>
        <pt x="884" y="87" on="0"/>
        <pt x="767" y="27" on="0"/>
        <pt x="638" y="-21" on="0"/>
        <pt x="507" y="-47" on="0"/>
        <pt x="453" y="-39" on="1"/>
        <pt x="367" y="-27" on="0"/>
        <pt x="238" y="35" on="0"/>
        <pt x="153" y="128" on="0"/>
        <pt x="111" y="251" on="0"/>
        <pt x="111" y="324" on="1"/>
        <pt x="111" y="385" on="0"/>
        <pt x="152" y="502" on="0"/>
        <pt x="242" y="613" on="0"/>
        <pt x="384" y="718" on="0"/>
        <pt x="485" y="766" on="1"/>
        <pt x="433" y="859" on="0"/>
        <pt x="367" y="1009" on="0"/>
        <pt x="367" y="1053" on="1"/>
        <pt x="367" y="1126" on="0"/>
        <pt x="428" y="1241" on="0"/>
        <pt x="543" y="1319" on="0"/>
        <pt x="711" y="1360" on="0"/>
        <pt x="819" y="1360" on="1"/>
        <pt x="905" y="1360" on="0"/>
        <pt x="1039" y="1324" on="0"/>
        <pt x="1130" y="1260" on="0"/>
        <pt x="1178" y="1173" on="0"/>
        <pt x="1178" y="1122" on="1"/>
        <pt x="1178" y="1051" on="0"/>
        <pt x="1110" y="951" on="0"/>
        <pt x="1007" y="884" on="0"/>
        <pt x="882" y="846" on="0"/>
        <pt x="825" y="836" on="1"/>
        <pt x="809" y="831" on="1"/>
        <pt x="841" y="785" on="0"/>
        <pt x="920" y="674" on="0"/>
        <pt x="1007" y="553" on="0"/>
        <pt x="1097" y="427" on="0"/>
        <pt x="1141" y="367" on="1"/>
        <pt x="1194" y="437" on="0"/>
        <pt x="1257" y="563" on="0"/>
        <pt x="1291" y="665" on="0"/>
        <pt x="1302" y="735" on="0"/>
        <pt x="1303" y="748" on="1"/>
        <pt x="1063" y="737" on="1"/>
      </contour>
      <contour>
        <pt x="741" y="104" on="1"/>
        <pt x="788" y="104" on="0"/>
        <pt x="865" y="115" on="0"/>
        <pt x="905" y="141" on="1"/>
        <pt x="864" y="197" on="0"/>
        <pt x="764" y="337" on="0"/>
        <pt x="660" y="490" on="0"/>
        <pt x="557" y="647" on="0"/>
        <pt x="512" y="721" on="1"/>
        <pt x="449" y="679" on="0"/>
        <pt x="377" y="575" on="0"/>
        <pt x="377" y="512" on="1"/>
        <pt x="377" y="473" on="0"/>
        <pt x="402" y="382" on="0"/>
        <pt x="448" y="292" on="0"/>
        <pt x="513" y="207" on="0"/>
        <pt x="594" y="143" on="0"/>
        <pt x="689" y="104" on="0"/>
      </contour>
      <contour>
        <pt x="631" y="1188" on="1"/>
        <pt x="631" y="1148" on="0"/>
        <pt x="659" y="1068" on="0"/>
        <pt x="701" y="991" on="0"/>
        <pt x="751" y="917" on="0"/>
        <pt x="774" y="883" on="1"/>
        <pt x="852" y="926" on="0"/>
        <pt x="930" y="1041" on="0"/>
        <pt x="930" y="1106" on="1"/>
        <pt x="930" y="1146" on="0"/>
        <pt x="912" y="1223" on="0"/>
        <pt x="876" y="1283" on="0"/>
        <pt x="821" y="1319" on="0"/>
        <pt x="784" y="1319" on="1"/>
        <pt x="747" y="1319" on="0"/>
        <pt x="690" y="1296" on="0"/>
        <pt x="651" y="1258" on="0"/>
        <pt x="631" y="1212" on="0"/>
      </contour>
    </TTGlyph>
    <TTGlyph name="aogonek" xMin="57" yMin="-375" xMax="971" yMax="872">
      <contour>
        <pt x="827" y="-39" on="1"/>
        <pt x="849" y="-37" on="0"/>
        <pt x="869" y="-17" on="1"/>
        <pt x="886" y="0" on="0"/>
        <pt x="922" y="75" on="0"/>
        <pt x="934" y="145" on="1"/>
        <pt x="971" y="141" on="1"/>
        <pt x="957" y="58" on="0"/>
        <pt x="910" y="-30" on="0"/>
        <pt x="886" y="-50" on="1"/>
        <pt x="858" y="-74" on="0"/>
        <pt x="827" y="-76" on="1"/>
        <pt x="809" y="-76" on="0"/>
        <pt x="757" y="-69" on="0"/>
        <pt x="729" y="-59" on="1"/>
        <pt x="712" y="-88" on="0"/>
        <pt x="692" y="-147" on="0"/>
        <pt x="692" y="-178" on="1"/>
        <pt x="692" y="-212" on="0"/>
        <pt x="722" y="-250" on="0"/>
        <pt x="748" y="-250" on="1"/>
        <pt x="774" y="-250" on="0"/>
        <pt x="814" y="-238" on="0"/>
        <pt x="828" y="-230" on="1"/>
        <pt x="844" y="-221" on="0"/>
        <pt x="856" y="-209" on="1"/>
        <pt x="885" y="-229" on="1"/>
        <pt x="848" y="-304" on="0"/>
        <pt x="746" y="-375" on="0"/>
        <pt x="674" y="-375" on="1"/>
        <pt x="645" y="-375" on="0"/>
        <pt x="595" y="-354" on="0"/>
        <pt x="558" y="-318" on="0"/>
        <pt x="537" y="-268" on="0"/>
        <pt x="537" y="-238" on="1"/>
        <pt x="537" y="-184" on="0"/>
        <pt x="595" y="-77" on="0"/>
        <pt x="657" y="-25" on="1"/>
        <pt x="630" y="-8" on="0"/>
        <pt x="589" y="42" on="0"/>
        <pt x="580" y="76" on="1"/>
        <pt x="539" y="7" on="0"/>
        <pt x="401" y="-80" on="0"/>
        <pt x="313" y="-80" on="1"/>
        <pt x="269" y="-80" on="0"/>
        <pt x="179" y="-60" on="0"/>
        <pt x="104" y="-14" on="0"/>
        <pt x="57" y="61" on="0"/>
        <pt x="57" y="117" on="1"/>
        <pt x="57" y="187" on="0"/>
        <pt x="112" y="290" on="0"/>
        <pt x="204" y="359" on="0"/>
        <pt x="322" y="393" on="0"/>
        <pt x="385" y="393" on="1"/>
        <pt x="428" y="393" on="0"/>
        <pt x="509" y="373" on="0"/>
        <pt x="551" y="348" on="1"/>
        <pt x="553" y="399" on="0"/>
        <pt x="566" y="501" on="0"/>
        <pt x="571" y="545" on="1"/>
        <pt x="574" y="571" on="0"/>
        <pt x="577" y="603" on="0"/>
        <pt x="579" y="623" on="0"/>
        <pt x="580" y="633" on="0"/>
        <pt x="580" y="637" on="1"/>
        <pt x="580" y="728" on="0"/>
        <pt x="514" y="836" on="0"/>
        <pt x="459" y="836" on="1"/>
        <pt x="433" y="834" on="0"/>
        <pt x="379" y="820" on="0"/>
        <pt x="335" y="795" on="0"/>
        <pt x="307" y="758" on="0"/>
        <pt x="307" y="733" on="1"/>
        <pt x="307" y="706" on="0"/>
        <pt x="341" y="675" on="0"/>
        <pt x="382" y="644" on="0"/>
        <pt x="416" y="604" on="0"/>
        <pt x="416" y="569" on="1"/>
        <pt x="416" y="532" on="0"/>
        <pt x="393" y="483" on="0"/>
        <pt x="355" y="453" on="0"/>
        <pt x="307" y="440" on="0"/>
        <pt x="283" y="440" on="1"/>
        <pt x="258" y="440" on="0"/>
        <pt x="209" y="457" on="0"/>
        <pt x="170" y="493" on="0"/>
        <pt x="145" y="551" on="0"/>
        <pt x="145" y="592" on="1"/>
        <pt x="145" y="647" on="0"/>
        <pt x="199" y="747" on="0"/>
        <pt x="287" y="823" on="0"/>
        <pt x="399" y="870" on="0"/>
        <pt x="457" y="872" on="1"/>
        <pt x="511" y="872" on="0"/>
        <pt x="638" y="828" on="0"/>
        <pt x="749" y="722" on="0"/>
        <pt x="823" y="544" on="0"/>
        <pt x="823" y="410" on="1"/>
        <pt x="823" y="347" on="0"/>
        <pt x="814" y="233" on="0"/>
        <pt x="804" y="136" on="0"/>
        <pt x="795" y="56" on="0"/>
        <pt x="795" y="27" on="1"/>
        <pt x="795" y="-2" on="0"/>
        <pt x="806" y="-36" on="0"/>
        <pt x="823" y="-39" on="1"/>
      </contour>
      <contour>
        <pt x="563" y="129" on="1"/>
        <pt x="557" y="163" on="0"/>
        <pt x="551" y="238" on="0"/>
        <pt x="551" y="276" on="1"/>
        <pt x="551" y="303" on="1"/>
        <pt x="523" y="326" on="0"/>
        <pt x="458" y="348" on="0"/>
        <pt x="432" y="348" on="1"/>
        <pt x="369" y="348" on="0"/>
        <pt x="303" y="244" on="0"/>
        <pt x="303" y="158" on="1"/>
        <pt x="303" y="122" on="0"/>
        <pt x="318" y="60" on="0"/>
        <pt x="345" y="15" on="0"/>
        <pt x="384" y="-10" on="0"/>
        <pt x="408" y="-10" on="1"/>
        <pt x="432" y="-10" on="0"/>
        <pt x="477" y="14" on="0"/>
        <pt x="517" y="53" on="0"/>
        <pt x="551" y="103" on="0"/>
      </contour>
    </TTGlyph>
    <TTGlyph name="aring" xMin="57" yMin="-80" xMax="971" yMax="1343">
      <component glyphName="a" x="0" y="0" flags="0x204"/>
      <component glyphName="ring" x="246" y="0" flags="0x4"/>
    </TTGlyph>
    <TTGlyph name="asciicircum" xMin="80" yMin="698" xMax="756" yMax="1399">
      <contour>
        <pt x="418" y="1067" on="1"/>
        <pt x="109" y="698" on="1"/>
        <pt x="80" y="719" on="1"/>
        <pt x="387" y="1399" on="1"/>
        <pt x="449" y="1399" on="1"/>
        <pt x="756" y="719" on="1"/>
        <pt x="727" y="698" on="1"/>
      </contour>
    </TTGlyph>
    <TTGlyph name="asciitilde" xMin="137" yMin="569" xMax="819" yMax="850">
      <contour>
        <pt x="819" y="821" on="1"/>
        <pt x="811" y="770" on="0"/>
        <pt x="768" y="678" on="0"/>
        <pt x="703" y="609" on="0"/>
        <pt x="621" y="569" on="0"/>
        <pt x="573" y="569" on="1"/>
        <pt x="539" y="569" on="0"/>
        <pt x="474" y="593" on="0"/>
        <pt x="442" y="608" on="1"/>
        <pt x="415" y="622" on="0"/>
        <pt x="358" y="645" on="0"/>
        <pt x="330" y="645" on="1"/>
        <pt x="288" y="646" on="0"/>
        <pt x="228" y="625" on="0"/>
        <pt x="208" y="612" on="1"/>
        <pt x="184" y="597" on="0"/>
        <pt x="168" y="578" on="1"/>
        <pt x="137" y="590" on="1"/>
        <pt x="147" y="644" on="0"/>
        <pt x="188" y="738" on="0"/>
        <pt x="251" y="809" on="0"/>
        <pt x="337" y="850" on="0"/>
        <pt x="391" y="850" on="1"/>
        <pt x="423" y="850" on="0"/>
        <pt x="483" y="825" on="0"/>
        <pt x="514" y="811" on="1"/>
        <pt x="542" y="797" on="0"/>
        <pt x="597" y="774" on="0"/>
        <pt x="625" y="774" on="1"/>
        <pt x="659" y="774" on="0"/>
        <pt x="717" y="794" on="0"/>
        <pt x="740" y="807" on="1"/>
        <pt x="766" y="821" on="0"/>
        <pt x="788" y="840" on="1"/>
      </contour>
    </TTGlyph>
    <TTGlyph name="asterisk" xMin="73" yMin="487" xMax="1062" yMax="1456">
      <contour>
        <pt x="156" y="950" on="1"/>
        <pt x="130" y="961" on="0"/>
        <pt x="93" y="998" on="0"/>
        <pt x="74" y="1043" on="0"/>
        <pt x="73" y="1094" on="0"/>
        <pt x="82" y="1118" on="1"/>
        <pt x="92" y="1140" on="0"/>
        <pt x="127" y="1175" on="0"/>
        <pt x="172" y="1196" on="0"/>
        <pt x="222" y="1200" on="0"/>
        <pt x="248" y="1190" on="1"/>
        <pt x="279" y="1177" on="0"/>
        <pt x="358" y="1124" on="0"/>
        <pt x="437" y="1061" on="0"/>
        <pt x="512" y="996" on="0"/>
        <pt x="541" y="969" on="1"/>
        <pt x="527" y="1005" on="0"/>
        <pt x="493" y="1100" on="0"/>
        <pt x="463" y="1199" on="0"/>
        <pt x="442" y="1292" on="0"/>
        <pt x="442" y="1327" on="1"/>
        <pt x="442" y="1355" on="0"/>
        <pt x="463" y="1402" on="0"/>
        <pt x="498" y="1436" on="0"/>
        <pt x="545" y="1456" on="0"/>
        <pt x="571" y="1456" on="1"/>
        <pt x="597" y="1456" on="0"/>
        <pt x="644" y="1436" on="0"/>
        <pt x="679" y="1402" on="0"/>
        <pt x="700" y="1355" on="0"/>
        <pt x="700" y="1327" on="1"/>
        <pt x="700" y="1289" on="0"/>
        <pt x="678" y="1188" on="0"/>
        <pt x="646" y="1084" on="0"/>
        <pt x="610" y="988" on="0"/>
        <pt x="596" y="954" on="1"/>
        <pt x="617" y="976" on="0"/>
        <pt x="686" y="1044" on="0"/>
        <pt x="767" y="1114" on="0"/>
        <pt x="851" y="1175" on="0"/>
        <pt x="887" y="1190" on="1"/>
        <pt x="912" y="1199" on="0"/>
        <pt x="963" y="1195" on="0"/>
        <pt x="1007" y="1174" on="0"/>
        <pt x="1043" y="1140" on="0"/>
        <pt x="1053" y="1118" on="1"/>
        <pt x="1062" y="1094" on="0"/>
        <pt x="1061" y="1043" on="0"/>
        <pt x="1042" y="998" on="0"/>
        <pt x="1005" y="961" on="0"/>
        <pt x="979" y="950" on="1"/>
        <pt x="945" y="937" on="0"/>
        <pt x="858" y="921" on="0"/>
        <pt x="766" y="913" on="0"/>
        <pt x="679" y="911" on="0"/>
        <pt x="645" y="911" on="1"/>
        <pt x="677" y="887" on="0"/>
        <pt x="750" y="831" on="0"/>
        <pt x="819" y="771" on="0"/>
        <pt x="876" y="712" on="0"/>
        <pt x="893" y="686" on="1"/>
        <pt x="891" y="686" on="1"/>
        <pt x="913" y="651" on="0"/>
        <pt x="913" y="614" on="1"/>
        <pt x="913" y="582" on="0"/>
        <pt x="881" y="524" on="0"/>
        <pt x="852" y="506" on="1"/>
        <pt x="819" y="487" on="0"/>
        <pt x="784" y="487" on="1"/>
        <pt x="750" y="487" on="0"/>
        <pt x="694" y="516" on="0"/>
        <pt x="676" y="547" on="1"/>
        <pt x="658" y="574" on="0"/>
        <pt x="626" y="654" on="0"/>
        <pt x="599" y="746" on="0"/>
        <pt x="577" y="840" on="0"/>
        <pt x="569" y="879" on="1"/>
        <pt x="561" y="840" on="0"/>
        <pt x="539" y="746" on="0"/>
        <pt x="512" y="654" on="0"/>
        <pt x="481" y="574" on="0"/>
        <pt x="463" y="547" on="1"/>
        <pt x="444" y="516" on="0"/>
        <pt x="388" y="487" on="0"/>
        <pt x="354" y="487" on="1"/>
        <pt x="317" y="487" on="0"/>
        <pt x="285" y="506" on="1"/>
        <pt x="257" y="523" on="0"/>
        <pt x="225" y="580" on="0"/>
        <pt x="225" y="614" on="1"/>
        <pt x="225" y="631" on="0"/>
        <pt x="237" y="669" on="0"/>
        <pt x="248" y="686" on="1"/>
        <pt x="246" y="686" on="1"/>
        <pt x="262" y="711" on="0"/>
        <pt x="319" y="770" on="0"/>
        <pt x="388" y="830" on="0"/>
        <pt x="460" y="887" on="0"/>
        <pt x="492" y="911" on="1"/>
        <pt x="459" y="911" on="0"/>
        <pt x="371" y="913" on="0"/>
        <pt x="278" y="921" on="0"/>
        <pt x="190" y="937" on="0"/>
      </contour>
    </TTGlyph>
    <TTGlyph name="at" xMin="70" yMin="-145" xMax="1346" yMax="961">
      <contour>
        <pt x="383" y="350" on="1"/>
        <pt x="383" y="435" on="0"/>
        <pt x="451" y="560" on="0"/>
        <pt x="552" y="641" on="0"/>
        <pt x="670" y="680" on="0"/>
        <pt x="721" y="680" on="1"/>
        <pt x="749" y="680" on="0"/>
        <pt x="800" y="668" on="0"/>
        <pt x="838" y="645" on="0"/>
        <pt x="862" y="611" on="0"/>
        <pt x="864" y="590" on="1"/>
        <pt x="875" y="624" on="0"/>
        <pt x="894" y="666" on="0"/>
        <pt x="897" y="666" on="1"/>
        <pt x="1069" y="666" on="1"/>
        <pt x="1032" y="572" on="0"/>
        <pt x="1003" y="484" on="1"/>
        <pt x="991" y="446" on="0"/>
        <pt x="967" y="367" on="0"/>
        <pt x="949" y="291" on="0"/>
        <pt x="938" y="223" on="0"/>
        <pt x="938" y="197" on="1"/>
        <pt x="938" y="150" on="0"/>
        <pt x="958" y="133" on="1"/>
        <pt x="963" y="133" on="1"/>
        <pt x="994" y="133" on="0"/>
        <pt x="1059" y="188" on="0"/>
        <pt x="1110" y="282" on="0"/>
        <pt x="1143" y="408" on="0"/>
        <pt x="1143" y="479" on="1"/>
        <pt x="1143" y="527" on="0"/>
        <pt x="1138" y="631" on="0"/>
        <pt x="1117" y="730" on="0"/>
        <pt x="1073" y="818" on="0"/>
        <pt x="996" y="885" on="0"/>
        <pt x="880" y="924" on="0"/>
        <pt x="797" y="924" on="1"/>
        <pt x="707" y="924" on="0"/>
        <pt x="562" y="868" on="0"/>
        <pt x="449" y="775" on="0"/>
        <pt x="367" y="656" on="0"/>
        <pt x="314" y="532" on="0"/>
        <pt x="289" y="412" on="0"/>
        <pt x="289" y="365" on="1"/>
        <pt x="289" y="320" on="0"/>
        <pt x="301" y="215" on="0"/>
        <pt x="332" y="110" on="0"/>
        <pt x="387" y="13" on="0"/>
        <pt x="473" y="-61" on="0"/>
        <pt x="594" y="-106" on="0"/>
        <pt x="676" y="-106" on="1"/>
        <pt x="765" y="-106" on="0"/>
        <pt x="913" y="-69" on="0"/>
        <pt x="967" y="-46" on="1"/>
        <pt x="1030" y="-20" on="0"/>
        <pt x="1081" y="14" on="1"/>
        <pt x="1106" y="-14" on="1"/>
        <pt x="1053" y="-50" on="0"/>
        <pt x="987" y="-78" on="1"/>
        <pt x="930" y="-102" on="0"/>
        <pt x="775" y="-142" on="0"/>
        <pt x="680" y="-143" on="1"/>
        <pt x="680" y="-145" on="1"/>
        <pt x="634" y="-145" on="0"/>
        <pt x="510" y="-133" on="0"/>
        <pt x="376" y="-95" on="0"/>
        <pt x="244" y="-27" on="0"/>
        <pt x="139" y="85" on="0"/>
        <pt x="72" y="248" on="0"/>
        <pt x="70" y="360" on="1"/>
        <pt x="70" y="451" on="0"/>
        <pt x="133" y="611" on="0"/>
        <pt x="241" y="745" on="0"/>
        <pt x="382" y="850" on="0"/>
        <pt x="539" y="923" on="0"/>
        <pt x="700" y="961" on="0"/>
        <pt x="774" y="961" on="1"/>
        <pt x="909" y="961" on="0"/>
        <pt x="1118" y="899" on="0"/>
        <pt x="1264" y="785" on="0"/>
        <pt x="1343" y="622" on="0"/>
        <pt x="1346" y="520" on="1"/>
        <pt x="1346" y="440" on="0"/>
        <pt x="1298" y="315" on="0"/>
        <pt x="1223" y="221" on="0"/>
        <pt x="1128" y="156" on="0"/>
        <pt x="1034" y="115" on="0"/>
        <pt x="950" y="96" on="0"/>
        <pt x="922" y="96" on="1"/>
        <pt x="866" y="96" on="0"/>
        <pt x="797" y="157" on="0"/>
        <pt x="786" y="213" on="1"/>
        <pt x="772" y="191" on="0"/>
        <pt x="738" y="151" on="0"/>
        <pt x="700" y="120" on="0"/>
        <pt x="658" y="102" on="0"/>
        <pt x="635" y="102" on="1"/>
        <pt x="625" y="102" on="1"/>
        <pt x="583" y="105" on="0"/>
        <pt x="497" y="143" on="0"/>
        <pt x="427" y="208" on="0"/>
        <pt x="383" y="297" on="0"/>
      </contour>
      <contour>
        <pt x="784" y="274" on="1"/>
        <pt x="784" y="333" on="0"/>
        <pt x="823" y="456" on="0"/>
        <pt x="842" y="518" on="1"/>
        <pt x="832" y="584" on="0"/>
        <pt x="795" y="639" on="0"/>
        <pt x="772" y="639" on="1"/>
        <pt x="743" y="639" on="0"/>
        <pt x="692" y="600" on="0"/>
        <pt x="648" y="536" on="0"/>
        <pt x="613" y="456" on="0"/>
        <pt x="588" y="372" on="0"/>
        <pt x="575" y="294" on="0"/>
        <pt x="575" y="264" on="1"/>
        <pt x="575" y="202" on="0"/>
        <pt x="608" y="139" on="0"/>
        <pt x="637" y="139" on="1"/>
        <pt x="659" y="139" on="0"/>
        <pt x="701" y="163" on="0"/>
        <pt x="739" y="202" on="0"/>
        <pt x="771" y="250" on="0"/>
      </contour>
    </TTGlyph>
    <TTGlyph name="atilde" xMin="57" yMin="-80" xMax="971" yMax="1179">
      <component glyphName="a" x="0" y="0" flags="0x204"/>
      <component glyphName="tilde" x="213" y="-38" flags="0x4"/>
    </TTGlyph>
    <TTGlyph name="b" xMin="-45" yMin="-59" xMax="1055" yMax="1317">
      <contour>
        <pt x="641" y="-59" on="1"/>
        <pt x="594" y="-59" on="0"/>
        <pt x="514" y="-26" on="0"/>
        <pt x="451" y="32" on="0"/>
        <pt x="407" y="111" on="0"/>
        <pt x="397" y="158" on="1"/>
        <pt x="352" y="108" on="0"/>
        <pt x="291" y="33" on="0"/>
        <pt x="271" y="7" on="1"/>
        <pt x="248" y="-23" on="0"/>
        <pt x="233" y="-45" on="1"/>
        <pt x="147" y="-45" on="1"/>
        <pt x="143" y="1280" on="1"/>
        <pt x="-45" y="1280" on="1"/>
        <pt x="-45" y="1317" on="1"/>
        <pt x="442" y="1317" on="1"/>
        <pt x="432" y="717" on="1"/>
        <pt x="448" y="750" on="0"/>
        <pt x="512" y="802" on="0"/>
        <pt x="584" y="837" on="0"/>
        <pt x="653" y="856" on="0"/>
        <pt x="676" y="856" on="1"/>
        <pt x="750" y="856" on="0"/>
        <pt x="863" y="808" on="0"/>
        <pt x="947" y="729" on="0"/>
        <pt x="1005" y="630" on="0"/>
        <pt x="1040" y="530" on="0"/>
        <pt x="1055" y="436" on="0"/>
        <pt x="1055" y="403" on="1"/>
        <pt x="1055" y="370" on="0"/>
        <pt x="1037" y="275" on="0"/>
        <pt x="997" y="173" on="0"/>
        <pt x="933" y="71" on="0"/>
        <pt x="841" y="-9" on="0"/>
        <pt x="719" y="-59" on="0"/>
      </contour>
      <contour>
        <pt x="598" y="803" on="1"/>
        <pt x="579" y="796" on="0"/>
        <pt x="535" y="772" on="0"/>
        <pt x="492" y="734" on="0"/>
        <pt x="450" y="680" on="0"/>
        <pt x="432" y="643" on="1"/>
        <pt x="426" y="221" on="1"/>
        <pt x="427" y="189" on="0"/>
        <pt x="447" y="111" on="0"/>
        <pt x="486" y="41" on="0"/>
        <pt x="546" y="-6" on="0"/>
        <pt x="588" y="-6" on="1"/>
        <pt x="617" y="-6" on="0"/>
        <pt x="674" y="33" on="0"/>
        <pt x="718" y="126" on="0"/>
        <pt x="745" y="282" on="0"/>
        <pt x="745" y="399" on="1"/>
        <pt x="745" y="524" on="0"/>
        <pt x="715" y="682" on="0"/>
        <pt x="671" y="772" on="0"/>
        <pt x="619" y="804" on="0"/>
      </contour>
    </TTGlyph>
    <TTGlyph name="backslash" xMin="33" yMin="-41" xMax="889" yMax="1495">
      <contour>
        <pt x="106" y="1495" on="1"/>
        <pt x="889" y="-25" on="1"/>
        <pt x="815" y="-41" on="1"/>
        <pt x="33" y="1479" on="1"/>
      </contour>
    </TTGlyph>
    <TTGlyph name="bar" xMin="168" yMin="-186" xMax="424" yMax="1624">
      <contour>
        <pt x="403" y="-186" on="1"/>
        <pt x="188" y="-186" on="1"/>
        <pt x="168" y="1624" on="1"/>
        <pt x="424" y="1624" on="1"/>
      </contour>
    </TTGlyph>
    <TTGlyph name="braceleft" xMin="-20" yMin="-201" xMax="805" yMax="1595">
      <contour>
        <pt x="799" y="1559" on="1"/>
        <pt x="733" y="1537" on="0"/>
        <pt x="651" y="1488" on="0"/>
        <pt x="604" y="1419" on="0"/>
        <pt x="588" y="1324" on="0"/>
        <pt x="588" y="1255" on="1"/>
        <pt x="588" y="1120" on="0"/>
        <pt x="572" y="929" on="0"/>
        <pt x="527" y="798" on="0"/>
        <pt x="445" y="719" on="0"/>
        <pt x="379" y="696" on="1"/>
        <pt x="445" y="673" on="0"/>
        <pt x="527" y="594" on="0"/>
        <pt x="572" y="464" on="0"/>
        <pt x="588" y="272" on="0"/>
        <pt x="588" y="137" on="1"/>
        <pt x="588" y="69" on="0"/>
        <pt x="605" y="-27" on="0"/>
        <pt x="653" y="-96" on="0"/>
        <pt x="737" y="-145" on="0"/>
        <pt x="805" y="-166" on="1"/>
        <pt x="799" y="-201" on="1"/>
        <pt x="677" y="-201" on="0"/>
        <pt x="475" y="-164" on="0"/>
        <pt x="331" y="-79" on="0"/>
        <pt x="252" y="61" on="0"/>
        <pt x="252" y="164" on="1"/>
        <pt x="252" y="311" on="0"/>
        <pt x="228" y="500" on="0"/>
        <pt x="167" y="612" on="0"/>
        <pt x="61" y="661" on="0"/>
        <pt x="-20" y="668" on="1"/>
        <pt x="-20" y="727" on="1"/>
        <pt x="62" y="735" on="0"/>
        <pt x="168" y="783" on="0"/>
        <pt x="229" y="894" on="0"/>
        <pt x="252" y="1083" on="0"/>
        <pt x="252" y="1231" on="1"/>
        <pt x="252" y="1335" on="0"/>
        <pt x="331" y="1475" on="0"/>
        <pt x="474" y="1559" on="0"/>
        <pt x="673" y="1595" on="0"/>
        <pt x="793" y="1595" on="1"/>
      </contour>
    </TTGlyph>
    <TTGlyph name="braceright" xMin="8" yMin="-201" xMax="834" yMax="1595">
      <contour>
        <pt x="20" y="1595" on="1"/>
        <pt x="140" y="1595" on="0"/>
        <pt x="339" y="1559" on="0"/>
        <pt x="482" y="1475" on="0"/>
        <pt x="561" y="1335" on="0"/>
        <pt x="561" y="1231" on="1"/>
        <pt x="561" y="1083" on="0"/>
        <pt x="584" y="894" on="0"/>
        <pt x="646" y="783" on="0"/>
        <pt x="751" y="735" on="0"/>
        <pt x="834" y="727" on="1"/>
        <pt x="834" y="668" on="1"/>
        <pt x="752" y="661" on="0"/>
        <pt x="646" y="612" on="0"/>
        <pt x="585" y="500" on="0"/>
        <pt x="561" y="311" on="0"/>
        <pt x="561" y="164" on="1"/>
        <pt x="561" y="61" on="0"/>
        <pt x="482" y="-79" on="0"/>
        <pt x="338" y="-164" on="0"/>
        <pt x="136" y="-201" on="0"/>
        <pt x="14" y="-201" on="1"/>
        <pt x="8" y="-166" on="1"/>
        <pt x="75" y="-145" on="0"/>
        <pt x="160" y="-96" on="0"/>
        <pt x="208" y="-27" on="0"/>
        <pt x="225" y="69" on="0"/>
        <pt x="225" y="137" on="1"/>
        <pt x="225" y="272" on="0"/>
        <pt x="241" y="464" on="0"/>
        <pt x="286" y="594" on="0"/>
        <pt x="368" y="673" on="0"/>
        <pt x="434" y="696" on="1"/>
        <pt x="368" y="719" on="0"/>
        <pt x="286" y="798" on="0"/>
        <pt x="241" y="929" on="0"/>
        <pt x="225" y="1120" on="0"/>
        <pt x="225" y="1255" on="1"/>
        <pt x="225" y="1324" on="0"/>
        <pt x="209" y="1419" on="0"/>
        <pt x="162" y="1488" on="0"/>
        <pt x="80" y="1537" on="0"/>
        <pt x="14" y="1559" on="1"/>
      </contour>
    </TTGlyph>
    <TTGlyph name="bracketleft" xMin="168" yMin="-215" xMax="768" yMax="1610">
      <contour>
        <pt x="768" y="1573" on="1"/>
        <pt x="543" y="1573" on="1"/>
        <pt x="522" y="-178" on="1"/>
        <pt x="768" y="-178" on="1"/>
        <pt x="768" y="-215" on="1"/>
        <pt x="188" y="-215" on="1"/>
        <pt x="168" y="1610" on="1"/>
        <pt x="768" y="1610" on="1"/>
      </contour>
    </TTGlyph>
    <TTGlyph name="bracketright" xMin="14" yMin="-215" xMax="614" yMax="1610">
      <contour>
        <pt x="14" y="1610" on="1"/>
        <pt x="614" y="1610" on="1"/>
        <pt x="594" y="-215" on="1"/>
        <pt x="14" y="-215" on="1"/>
        <pt x="14" y="-178" on="1"/>
        <pt x="260" y="-178" on="1"/>
        <pt x="240" y="1573" on="1"/>
        <pt x="14" y="1573" on="1"/>
      </contour>
    </TTGlyph>
    <TTGlyph name="breve" xMin="-7" yMin="973" xMax="419" yMax="1231">
      <contour>
        <pt x="41" y="1225" on="1"/>
        <pt x="47" y="1203" on="0"/>
        <pt x="80" y="1170" on="0"/>
        <pt x="125" y="1148" on="0"/>
        <pt x="180" y="1137" on="0"/>
        <pt x="209" y="1137" on="1"/>
        <pt x="237" y="1137" on="0"/>
        <pt x="291" y="1148" on="0"/>
        <pt x="337" y="1172" on="0"/>
        <pt x="371" y="1207" on="0"/>
        <pt x="377" y="1231" on="1"/>
        <pt x="412" y="1229" on="1"/>
        <pt x="419" y="1167" on="0"/>
        <pt x="380" y="1072" on="0"/>
        <pt x="316" y="1007" on="0"/>
        <pt x="240" y="973" on="0"/>
        <pt x="209" y="973" on="1"/>
        <pt x="177" y="973" on="0"/>
        <pt x="97" y="1008" on="0"/>
        <pt x="31" y="1073" on="0"/>
        <pt x="-7" y="1166" on="0"/>
        <pt x="4" y="1225" on="1"/>
      </contour>
    </TTGlyph>
    <TTGlyph name="brokenbar" xMin="172" yMin="-205" xMax="428" yMax="1614">
      <contour>
        <pt x="408" y="819" on="1"/>
        <pt x="193" y="819" on="1"/>
        <pt x="172" y="1614" on="1"/>
        <pt x="428" y="1614" on="1"/>
      </contour>
      <contour>
        <pt x="428" y="-205" on="1"/>
        <pt x="172" y="-205" on="1"/>
        <pt x="193" y="590" on="1"/>
        <pt x="408" y="590" on="1"/>
      </contour>
    </TTGlyph>
    <TTGlyph name="bullet" xMin="162" yMin="578" xMax="545" yMax="961">
      <contour>
        <pt x="545" y="768" on="1"/>
        <pt x="545" y="729" on="0"/>
        <pt x="515" y="660" on="0"/>
        <pt x="462" y="608" on="0"/>
        <pt x="392" y="578" on="0"/>
        <pt x="352" y="578" on="1"/>
        <pt x="313" y="578" on="0"/>
        <pt x="244" y="608" on="0"/>
        <pt x="192" y="660" on="0"/>
        <pt x="162" y="729" on="0"/>
        <pt x="162" y="768" on="1"/>
        <pt x="162" y="808" on="0"/>
        <pt x="192" y="878" on="0"/>
        <pt x="244" y="930" on="0"/>
        <pt x="313" y="961" on="0"/>
        <pt x="352" y="961" on="1"/>
        <pt x="392" y="961" on="0"/>
        <pt x="462" y="930" on="0"/>
        <pt x="515" y="878" on="0"/>
        <pt x="545" y="808" on="0"/>
      </contour>
    </TTGlyph>
    <TTGlyph name="c" xMin="61" yMin="-74" xMax="864" yMax="858">
      <contour>
        <pt x="864" y="563" on="1"/>
        <pt x="864" y="534" on="0"/>
        <pt x="846" y="479" on="0"/>
        <pt x="812" y="436" on="0"/>
        <pt x="761" y="410" on="0"/>
        <pt x="727" y="410" on="1"/>
        <pt x="708" y="410" on="0"/>
        <pt x="664" y="425" on="0"/>
        <pt x="627" y="455" on="0"/>
        <pt x="602" y="500" on="0"/>
        <pt x="602" y="530" on="1"/>
        <pt x="602" y="547" on="0"/>
        <pt x="610" y="584" on="0"/>
        <pt x="619" y="622" on="0"/>
        <pt x="627" y="656" on="0"/>
        <pt x="627" y="670" on="1"/>
        <pt x="627" y="741" on="0"/>
        <pt x="559" y="821" on="0"/>
        <pt x="508" y="821" on="1"/>
        <pt x="476" y="821" on="0"/>
        <pt x="422" y="752" on="0"/>
        <pt x="383" y="632" on="0"/>
        <pt x="362" y="473" on="0"/>
        <pt x="362" y="383" on="1"/>
        <pt x="362" y="175" on="0"/>
        <pt x="460" y="-29" on="0"/>
        <pt x="539" y="-29" on="1"/>
        <pt x="587" y="-29" on="0"/>
        <pt x="670" y="14" on="0"/>
        <pt x="740" y="84" on="0"/>
        <pt x="793" y="171" on="0"/>
        <pt x="811" y="215" on="1"/>
        <pt x="848" y="203" on="1"/>
        <pt x="826" y="135" on="0"/>
        <pt x="758" y="42" on="0"/>
        <pt x="680" y="-20" on="0"/>
        <pt x="601" y="-54" on="0"/>
        <pt x="534" y="-71" on="0"/>
        <pt x="488" y="-74" on="0"/>
        <pt x="483" y="-74" on="1"/>
        <pt x="385" y="-74" on="0"/>
        <pt x="228" y="7" on="0"/>
        <pt x="119" y="131" on="0"/>
        <pt x="61" y="281" on="0"/>
        <pt x="61" y="350" on="1"/>
        <pt x="61" y="396" on="0"/>
        <pt x="85" y="507" on="0"/>
        <pt x="134" y="620" on="0"/>
        <pt x="208" y="726" on="0"/>
        <pt x="306" y="808" on="0"/>
        <pt x="428" y="858" on="0"/>
        <pt x="502" y="858" on="1"/>
        <pt x="592" y="858" on="0"/>
        <pt x="728" y="804" on="0"/>
        <pt x="819" y="718" on="0"/>
        <pt x="864" y="614" on="0"/>
      </contour>
    </TTGlyph>
    <TTGlyph name="cacute" xMin="61" yMin="-74" xMax="889" yMax="1292">
      <component glyphName="c" x="0" y="0" flags="0x204"/>
      <component glyphName="acute" x="479" y="-62" flags="0x4"/>
    </TTGlyph>
    <TTGlyph name="caron" xMin="0" yMin="936" xMax="463" yMax="1288">
      <contour>
        <pt x="0" y="1264" on="1"/>
        <pt x="23" y="1288" on="1"/>
        <pt x="231" y="1163" on="1"/>
        <pt x="440" y="1288" on="1"/>
        <pt x="463" y="1264" on="1"/>
        <pt x="236" y="936" on="1"/>
      </contour>
    </TTGlyph>
    <TTGlyph name="ccaron" xMin="61" yMin="-74" xMax="864" yMax="1288">
      <component glyphName="c" x="0" y="0" flags="0x204"/>
      <component glyphName="caron" x="281" y="0" flags="0x4"/>
    </TTGlyph>
    <TTGlyph name="ccedilla" xMin="63" yMin="-401" xMax="866" yMax="858">
      <contour>
        <pt x="866" y="563" on="1"/>
        <pt x="866" y="534" on="0"/>
        <pt x="848" y="479" on="0"/>
        <pt x="814" y="436" on="0"/>
        <pt x="763" y="410" on="0"/>
        <pt x="729" y="410" on="1"/>
        <pt x="710" y="410" on="0"/>
        <pt x="666" y="425" on="0"/>
        <pt x="629" y="455" on="0"/>
        <pt x="604" y="500" on="0"/>
        <pt x="604" y="530" on="1"/>
        <pt x="604" y="547" on="0"/>
        <pt x="612" y="584" on="0"/>
        <pt x="621" y="622" on="0"/>
        <pt x="629" y="656" on="0"/>
        <pt x="629" y="670" on="1"/>
        <pt x="629" y="741" on="0"/>
        <pt x="561" y="821" on="0"/>
        <pt x="510" y="821" on="1"/>
        <pt x="478" y="821" on="0"/>
        <pt x="424" y="752" on="0"/>
        <pt x="386" y="632" on="0"/>
        <pt x="365" y="473" on="0"/>
        <pt x="365" y="383" on="1"/>
        <pt x="365" y="175" on="0"/>
        <pt x="462" y="-29" on="0"/>
        <pt x="541" y="-29" on="1"/>
        <pt x="589" y="-29" on="0"/>
        <pt x="672" y="14" on="0"/>
        <pt x="742" y="84" on="0"/>
        <pt x="795" y="171" on="0"/>
        <pt x="813" y="215" on="1"/>
        <pt x="850" y="203" on="1"/>
        <pt x="828" y="135" on="0"/>
        <pt x="760" y="42" on="0"/>
        <pt x="682" y="-20" on="0"/>
        <pt x="603" y="-54" on="0"/>
        <pt x="536" y="-71" on="0"/>
        <pt x="490" y="-74" on="0"/>
        <pt x="485" y="-74" on="1"/>
        <pt x="481" y="-74" on="1"/>
        <pt x="467" y="-147" on="1"/>
        <pt x="486" y="-142" on="0"/>
        <pt x="521" y="-139" on="0"/>
        <pt x="537" y="-139" on="1"/>
        <pt x="574" y="-139" on="0"/>
        <pt x="635" y="-159" on="0"/>
        <pt x="680" y="-192" on="0"/>
        <pt x="705" y="-236" on="0"/>
        <pt x="705" y="-260" on="1"/>
        <pt x="705" y="-295" on="0"/>
        <pt x="670" y="-347" on="0"/>
        <pt x="612" y="-383" on="0"/>
        <pt x="536" y="-401" on="0"/>
        <pt x="496" y="-401" on="1"/>
        <pt x="431" y="-401" on="0"/>
        <pt x="311" y="-354" on="0"/>
        <pt x="276" y="-303" on="1"/>
        <pt x="303" y="-281" on="1"/>
        <pt x="319" y="-297" on="1"/>
        <pt x="328" y="-306" on="0"/>
        <pt x="350" y="-325" on="0"/>
        <pt x="382" y="-339" on="0"/>
        <pt x="427" y="-348" on="0"/>
        <pt x="459" y="-348" on="1"/>
        <pt x="490" y="-348" on="0"/>
        <pt x="520" y="-291" on="0"/>
        <pt x="520" y="-254" on="1"/>
        <pt x="520" y="-229" on="0"/>
        <pt x="482" y="-201" on="0"/>
        <pt x="451" y="-201" on="1"/>
        <pt x="443" y="-201" on="0"/>
        <pt x="425" y="-203" on="0"/>
        <pt x="416" y="-205" on="1"/>
        <pt x="442" y="-72" on="1"/>
        <pt x="353" y="-63" on="0"/>
        <pt x="212" y="23" on="0"/>
        <pt x="115" y="144" on="0"/>
        <pt x="63" y="285" on="0"/>
        <pt x="63" y="350" on="1"/>
        <pt x="63" y="396" on="0"/>
        <pt x="87" y="507" on="0"/>
        <pt x="136" y="620" on="0"/>
        <pt x="210" y="726" on="0"/>
        <pt x="308" y="808" on="0"/>
        <pt x="430" y="858" on="0"/>
        <pt x="504" y="858" on="1"/>
        <pt x="594" y="858" on="0"/>
        <pt x="730" y="804" on="0"/>
        <pt x="821" y="718" on="0"/>
        <pt x="866" y="614" on="0"/>
      </contour>
    </TTGlyph>
    <TTGlyph name="ccircumflex" xMin="61" yMin="-74" xMax="864" yMax="1252">
      <component glyphName="c" x="0" y="0" flags="0x204"/>
      <component glyphName="circumflex" x="279" y="-46" flags="0x4"/>
    </TTGlyph>
    <TTGlyph name="cdotaccent" xMin="61" yMin="-74" xMax="864" yMax="1209">
      <component glyphName="c" x="0" y="0" flags="0x204"/>
      <component glyphName="dotaccent" x="391" y="-71" flags="0x4"/>
    </TTGlyph>
    <TTGlyph name="cedilla" xMin="0" yMin="-334" xMax="428" yMax="41">
      <contour>
        <pt x="213" y="33" on="1"/>
        <pt x="190" y="-80" on="1"/>
        <pt x="209" y="-75" on="0"/>
        <pt x="245" y="-72" on="0"/>
        <pt x="260" y="-72" on="1"/>
        <pt x="297" y="-72" on="0"/>
        <pt x="358" y="-91" on="0"/>
        <pt x="403" y="-124" on="0"/>
        <pt x="428" y="-168" on="0"/>
        <pt x="428" y="-193" on="1"/>
        <pt x="428" y="-228" on="0"/>
        <pt x="393" y="-280" on="0"/>
        <pt x="335" y="-316" on="0"/>
        <pt x="260" y="-334" on="0"/>
        <pt x="219" y="-334" on="1"/>
        <pt x="154" y="-334" on="0"/>
        <pt x="34" y="-286" on="0"/>
        <pt x="0" y="-236" on="1"/>
        <pt x="27" y="-213" on="1"/>
        <pt x="43" y="-229" on="1"/>
        <pt x="52" y="-238" on="0"/>
        <pt x="74" y="-257" on="0"/>
        <pt x="105" y="-272" on="0"/>
        <pt x="150" y="-281" on="0"/>
        <pt x="182" y="-281" on="1"/>
        <pt x="213" y="-281" on="0"/>
        <pt x="244" y="-224" on="0"/>
        <pt x="244" y="-186" on="1"/>
        <pt x="244" y="-162" on="0"/>
        <pt x="205" y="-133" on="0"/>
        <pt x="174" y="-133" on="1"/>
        <pt x="166" y="-133" on="0"/>
        <pt x="149" y="-135" on="0"/>
        <pt x="139" y="-137" on="1"/>
        <pt x="176" y="41" on="1"/>
      </contour>
    </TTGlyph>
    <TTGlyph name="cent" xMin="78" yMin="-240" xMax="805" yMax="1145">
      <contour>
        <pt x="799" y="555" on="1"/>
        <pt x="793" y="534" on="0"/>
        <pt x="769" y="501" on="0"/>
        <pt x="736" y="478" on="0"/>
        <pt x="698" y="467" on="0"/>
        <pt x="680" y="467" on="1"/>
        <pt x="662" y="467" on="0"/>
        <pt x="623" y="480" on="0"/>
        <pt x="589" y="507" on="0"/>
        <pt x="567" y="550" on="0"/>
        <pt x="567" y="580" on="1"/>
        <pt x="567" y="593" on="0"/>
        <pt x="574" y="626" on="0"/>
        <pt x="581" y="659" on="0"/>
        <pt x="588" y="690" on="0"/>
        <pt x="588" y="702" on="1"/>
        <pt x="588" y="740" on="0"/>
        <pt x="565" y="798" on="0"/>
        <pt x="545" y="815" on="1"/>
        <pt x="418" y="129" on="1"/>
        <pt x="453" y="78" on="0"/>
        <pt x="510" y="78" on="1"/>
        <pt x="555" y="78" on="0"/>
        <pt x="631" y="115" on="0"/>
        <pt x="693" y="175" on="0"/>
        <pt x="739" y="253" on="0"/>
        <pt x="754" y="295" on="1"/>
        <pt x="791" y="283" on="1"/>
        <pt x="773" y="234" on="0"/>
        <pt x="710" y="143" on="0"/>
        <pt x="626" y="74" on="0"/>
        <pt x="523" y="33" on="0"/>
        <pt x="465" y="33" on="1"/>
        <pt x="448" y="33" on="0"/>
        <pt x="417" y="35" on="0"/>
        <pt x="401" y="37" on="1"/>
        <pt x="350" y="-240" on="1"/>
        <pt x="313" y="-231" on="1"/>
        <pt x="365" y="45" on="1"/>
        <pt x="297" y="63" on="0"/>
        <pt x="190" y="143" on="0"/>
        <pt x="117" y="245" on="0"/>
        <pt x="78" y="361" on="0"/>
        <pt x="78" y="416" on="1"/>
        <pt x="78" y="458" on="0"/>
        <pt x="100" y="559" on="0"/>
        <pt x="144" y="660" on="0"/>
        <pt x="210" y="756" on="0"/>
        <pt x="299" y="829" on="0"/>
        <pt x="410" y="874" on="0"/>
        <pt x="477" y="874" on="1"/>
        <pt x="485" y="874" on="0"/>
        <pt x="498" y="874" on="0"/>
        <pt x="506" y="872" on="1"/>
        <pt x="516" y="872" on="1"/>
        <pt x="567" y="1145" on="1"/>
        <pt x="604" y="1137" on="1"/>
        <pt x="555" y="866" on="1"/>
        <pt x="617" y="855" on="0"/>
        <pt x="711" y="803" on="0"/>
        <pt x="774" y="732" on="0"/>
        <pt x="805" y="650" on="0"/>
        <pt x="805" y="608" on="1"/>
        <pt x="805" y="579" on="0"/>
      </contour>
      <contour>
        <pt x="508" y="836" on="1"/>
        <pt x="502" y="836" on="0"/>
        <pt x="490" y="838" on="0"/>
        <pt x="483" y="838" on="1"/>
        <pt x="455" y="836" on="0"/>
        <pt x="407" y="776" on="0"/>
        <pt x="372" y="672" on="0"/>
        <pt x="352" y="532" on="0"/>
        <pt x="352" y="451" on="1"/>
        <pt x="352" y="364" on="0"/>
        <pt x="371" y="231" on="0"/>
        <pt x="389" y="184" on="1"/>
        <pt x="510" y="836" on="1"/>
      </contour>
    </TTGlyph>
    <TTGlyph name="circumflex" xMin="0" yMin="946" xMax="463" yMax="1298">
      <contour>
        <pt x="236" y="1298" on="1"/>
        <pt x="463" y="971" on="1"/>
        <pt x="440" y="946" on="1"/>
        <pt x="231" y="1071" on="1"/>
        <pt x="23" y="946" on="1"/>
        <pt x="0" y="971" on="1"/>
      </contour>
    </TTGlyph>
    <TTGlyph name="colon" xMin="131" yMin="-37" xMax="514" yMax="1010">
      <contour>
        <pt x="514" y="154" on="1"/>
        <pt x="514" y="115" on="0"/>
        <pt x="484" y="45" on="0"/>
        <pt x="432" y="-7" on="0"/>
        <pt x="362" y="-37" on="0"/>
        <pt x="322" y="-37" on="1"/>
        <pt x="283" y="-37" on="0"/>
        <pt x="213" y="-7" on="0"/>
        <pt x="161" y="45" on="0"/>
        <pt x="131" y="115" on="0"/>
        <pt x="131" y="154" on="1"/>
        <pt x="131" y="194" on="0"/>
        <pt x="161" y="264" on="0"/>
        <pt x="213" y="316" on="0"/>
        <pt x="283" y="346" on="0"/>
        <pt x="322" y="346" on="1"/>
        <pt x="362" y="346" on="0"/>
        <pt x="432" y="316" on="0"/>
        <pt x="484" y="264" on="0"/>
        <pt x="514" y="194" on="0"/>
      </contour>
      <contour>
        <pt x="514" y="817" on="1"/>
        <pt x="514" y="778" on="0"/>
        <pt x="484" y="709" on="0"/>
        <pt x="432" y="657" on="0"/>
        <pt x="362" y="627" on="0"/>
        <pt x="322" y="627" on="1"/>
        <pt x="283" y="627" on="0"/>
        <pt x="213" y="657" on="0"/>
        <pt x="161" y="709" on="0"/>
        <pt x="131" y="778" on="0"/>
        <pt x="131" y="817" on="1"/>
        <pt x="131" y="857" on="0"/>
        <pt x="161" y="927" on="0"/>
        <pt x="213" y="980" on="0"/>
        <pt x="283" y="1010" on="0"/>
        <pt x="322" y="1010" on="1"/>
        <pt x="362" y="1010" on="0"/>
        <pt x="432" y="980" on="0"/>
        <pt x="484" y="927" on="0"/>
        <pt x="514" y="857" on="0"/>
      </contour>
    </TTGlyph>
    <TTGlyph name="comma" xMin="100" yMin="-233" xMax="473" yMax="311">
      <contour>
        <pt x="283" y="-201" on="1"/>
        <pt x="295" y="-195" on="0"/>
        <pt x="325" y="-172" on="0"/>
        <pt x="351" y="-144" on="0"/>
        <pt x="369" y="-111" on="0"/>
        <pt x="369" y="-94" on="1"/>
        <pt x="369" y="-87" on="0"/>
        <pt x="364" y="-67" on="0"/>
        <pt x="350" y="-49" on="0"/>
        <pt x="323" y="-37" on="0"/>
        <pt x="301" y="-37" on="1"/>
        <pt x="293" y="-37" on="0"/>
        <pt x="276" y="-39" on="0"/>
        <pt x="268" y="-39" on="1"/>
        <pt x="233" y="-39" on="0"/>
        <pt x="171" y="-12" on="0"/>
        <pt x="126" y="36" on="0"/>
        <pt x="100" y="101" on="0"/>
        <pt x="100" y="139" on="1"/>
        <pt x="100" y="170" on="0"/>
        <pt x="121" y="231" on="0"/>
        <pt x="164" y="280" on="0"/>
        <pt x="230" y="311" on="0"/>
        <pt x="276" y="311" on="1"/>
        <pt x="315" y="311" on="0"/>
        <pt x="384" y="287" on="0"/>
        <pt x="438" y="238" on="0"/>
        <pt x="471" y="160" on="0"/>
        <pt x="473" y="106" on="1"/>
        <pt x="473" y="100" on="0"/>
        <pt x="471" y="59" on="0"/>
        <pt x="462" y="0" on="0"/>
        <pt x="441" y="-72" on="0"/>
        <pt x="402" y="-143" on="0"/>
        <pt x="342" y="-209" on="0"/>
        <pt x="299" y="-233" on="1"/>
      </contour>
    </TTGlyph>
    <TTGlyph name="copyright" xMin="98" yMin="106" xMax="1602" yMax="1294">
      <contour>
        <pt x="98" y="700" on="1"/>
        <pt x="98" y="797" on="0"/>
        <pt x="161" y="961" on="0"/>
        <pt x="269" y="1093" on="0"/>
        <pt x="415" y="1193" on="0"/>
        <pt x="582" y="1260" on="0"/>
        <pt x="762" y="1294" on="0"/>
        <pt x="850" y="1294" on="1"/>
        <pt x="931" y="1294" on="0"/>
        <pt x="1105" y="1262" on="0"/>
        <pt x="1273" y="1197" on="0"/>
        <pt x="1422" y="1099" on="0"/>
        <pt x="1536" y="967" on="0"/>
        <pt x="1602" y="800" on="0"/>
        <pt x="1602" y="700" on="1"/>
        <pt x="1602" y="605" on="0"/>
        <pt x="1539" y="444" on="0"/>
        <pt x="1430" y="312" on="0"/>
        <pt x="1283" y="211" on="0"/>
        <pt x="1116" y="141" on="0"/>
        <pt x="937" y="106" on="0"/>
        <pt x="850" y="106" on="1"/>
        <pt x="770" y="106" on="0"/>
        <pt x="596" y="139" on="0"/>
        <pt x="429" y="205" on="0"/>
        <pt x="279" y="304" on="0"/>
        <pt x="165" y="436" on="0"/>
        <pt x="98" y="601" on="0"/>
      </contour>
      <contour>
        <pt x="369" y="700" on="1"/>
        <pt x="369" y="640" on="0"/>
        <pt x="400" y="512" on="0"/>
        <pt x="458" y="389" on="0"/>
        <pt x="543" y="279" on="0"/>
        <pt x="649" y="196" on="0"/>
        <pt x="777" y="147" on="0"/>
        <pt x="850" y="147" on="1"/>
        <pt x="949" y="147" on="0"/>
        <pt x="1124" y="243" on="0"/>
        <pt x="1255" y="400" on="0"/>
        <pt x="1331" y="598" on="0"/>
        <pt x="1331" y="700" on="1"/>
        <pt x="1331" y="763" on="0"/>
        <pt x="1299" y="894" on="0"/>
        <pt x="1238" y="1017" on="0"/>
        <pt x="1153" y="1125" on="0"/>
        <pt x="1046" y="1206" on="0"/>
        <pt x="920" y="1253" on="0"/>
        <pt x="850" y="1253" on="1"/>
        <pt x="784" y="1253" on="0"/>
        <pt x="661" y="1209" on="0"/>
        <pt x="555" y="1132" on="0"/>
        <pt x="466" y="1026" on="0"/>
        <pt x="404" y="903" on="0"/>
        <pt x="369" y="768" on="0"/>
      </contour>
      <contour>
        <pt x="1143" y="530" on="1"/>
        <pt x="1110" y="451" on="0"/>
        <pt x="1028" y="367" on="0"/>
        <pt x="947" y="329" on="0"/>
        <pt x="874" y="324" on="0"/>
        <pt x="850" y="324" on="1"/>
        <pt x="827" y="324" on="0"/>
        <pt x="757" y="331" on="0"/>
        <pt x="676" y="355" on="0"/>
        <pt x="595" y="403" on="0"/>
        <pt x="530" y="483" on="0"/>
        <pt x="489" y="602" on="0"/>
        <pt x="489" y="686" on="1"/>
        <pt x="489" y="770" on="0"/>
        <pt x="529" y="893" on="0"/>
        <pt x="594" y="979" on="0"/>
        <pt x="677" y="1034" on="0"/>
        <pt x="764" y="1064" on="0"/>
        <pt x="848" y="1075" on="0"/>
        <pt x="881" y="1075" on="1"/>
        <pt x="934" y="1075" on="0"/>
        <pt x="1020" y="1052" on="0"/>
        <pt x="1088" y="1012" on="0"/>
        <pt x="1135" y="959" on="0"/>
        <pt x="1149" y="928" on="1"/>
        <pt x="1163" y="898" on="0"/>
        <pt x="1163" y="845" on="0"/>
        <pt x="1145" y="804" on="0"/>
        <pt x="1112" y="776" on="0"/>
        <pt x="1092" y="772" on="1"/>
        <pt x="1069" y="767" on="0"/>
        <pt x="1028" y="780" on="0"/>
        <pt x="995" y="810" on="0"/>
        <pt x="971" y="856" on="0"/>
        <pt x="967" y="885" on="1"/>
        <pt x="962" y="915" on="0"/>
        <pt x="951" y="969" on="0"/>
        <pt x="934" y="1011" on="0"/>
        <pt x="906" y="1036" on="0"/>
        <pt x="885" y="1038" on="1"/>
        <pt x="881" y="1038" on="1"/>
        <pt x="851" y="1038" on="0"/>
        <pt x="785" y="1002" on="0"/>
        <pt x="730" y="919" on="0"/>
        <pt x="694" y="784" on="0"/>
        <pt x="694" y="684" on="1"/>
        <pt x="694" y="584" on="0"/>
        <pt x="725" y="458" on="0"/>
        <pt x="772" y="386" on="0"/>
        <pt x="827" y="360" on="0"/>
        <pt x="850" y="360" on="1"/>
        <pt x="871" y="360" on="0"/>
        <pt x="936" y="365" on="0"/>
        <pt x="1008" y="398" on="0"/>
        <pt x="1081" y="473" on="0"/>
        <pt x="1110" y="543" on="1"/>
      </contour>
    </TTGlyph>
    <TTGlyph name="currency" xMin="45" yMin="428" xMax="700" yMax="1118">
      <contour>
        <pt x="670" y="748" on="1"/>
        <pt x="670" y="695" on="0"/>
        <pt x="625" y="606" on="0"/>
        <pt x="590" y="571" on="1"/>
        <pt x="700" y="453" on="1"/>
        <pt x="672" y="428" on="1"/>
        <pt x="561" y="547" on="1"/>
        <pt x="518" y="512" on="0"/>
        <pt x="419" y="473" on="0"/>
        <pt x="379" y="473" on="1"/>
        <pt x="369" y="473" on="1"/>
        <pt x="322" y="473" on="0"/>
        <pt x="215" y="513" on="0"/>
        <pt x="170" y="555" on="1"/>
        <pt x="70" y="457" on="1"/>
        <pt x="45" y="481" on="1"/>
        <pt x="145" y="580" on="1"/>
        <pt x="116" y="615" on="0"/>
        <pt x="82" y="707" on="0"/>
        <pt x="82" y="766" on="1"/>
        <pt x="82" y="825" on="0"/>
        <pt x="122" y="916" on="0"/>
        <pt x="154" y="950" on="1"/>
        <pt x="68" y="1073" on="1"/>
        <pt x="96" y="1094" on="1"/>
        <pt x="178" y="975" on="1"/>
        <pt x="228" y="1018" on="0"/>
        <pt x="336" y="1061" on="0"/>
        <pt x="373" y="1061" on="1"/>
        <pt x="379" y="1061" on="1"/>
        <pt x="430" y="1059" on="0"/>
        <pt x="523" y="1017" on="0"/>
        <pt x="561" y="983" on="1"/>
        <pt x="666" y="1118" on="1"/>
        <pt x="694" y="1098" on="1"/>
        <pt x="588" y="956" on="1"/>
        <pt x="625" y="914" on="0"/>
        <pt x="670" y="808" on="0"/>
      </contour>
      <contour>
        <pt x="463" y="795" on="1"/>
        <pt x="463" y="909" on="0"/>
        <pt x="415" y="1024" on="0"/>
        <pt x="373" y="1024" on="1"/>
        <pt x="369" y="1024" on="1"/>
        <pt x="325" y="1021" on="0"/>
        <pt x="274" y="891" on="0"/>
        <pt x="274" y="760" on="1"/>
        <pt x="274" y="631" on="0"/>
        <pt x="315" y="513" on="0"/>
        <pt x="362" y="510" on="1"/>
        <pt x="373" y="510" on="1"/>
        <pt x="397" y="511" on="0"/>
        <pt x="428" y="540" on="0"/>
        <pt x="449" y="600" on="0"/>
        <pt x="460" y="693" on="0"/>
        <pt x="463" y="758" on="1"/>
      </contour>
    </TTGlyph>
    <TTGlyph name="d" xMin="66" yMin="-61" xMax="1190" yMax="1341">
      <contour>
        <pt x="692" y="72" on="1"/>
        <pt x="688" y="52" on="0"/>
        <pt x="657" y="17" on="0"/>
        <pt x="613" y="-14" on="0"/>
        <pt x="562" y="-38" on="0"/>
        <pt x="515" y="-54" on="0"/>
        <pt x="480" y="-61" on="0"/>
        <pt x="473" y="-59" on="1"/>
        <pt x="395" y="-59" on="0"/>
        <pt x="274" y="-19" on="0"/>
        <pt x="183" y="48" on="0"/>
        <pt x="121" y="137" on="0"/>
        <pt x="83" y="236" on="0"/>
        <pt x="66" y="340" on="0"/>
        <pt x="66" y="387" on="1"/>
        <pt x="66" y="420" on="0"/>
        <pt x="84" y="516" on="0"/>
        <pt x="123" y="620" on="0"/>
        <pt x="185" y="723" on="0"/>
        <pt x="273" y="805" on="0"/>
        <pt x="389" y="856" on="0"/>
        <pt x="463" y="856" on="1"/>
        <pt x="499" y="856" on="0"/>
        <pt x="568" y="833" on="0"/>
        <pt x="630" y="794" on="0"/>
        <pt x="684" y="741" on="0"/>
        <pt x="705" y="711" on="1"/>
        <pt x="717" y="1313" on="1"/>
        <pt x="500" y="1313" on="1"/>
        <pt x="500" y="1341" on="1"/>
        <pt x="1012" y="1341" on="1"/>
        <pt x="987" y="16" on="1"/>
        <pt x="1190" y="16" on="1"/>
        <pt x="1190" y="-20" on="1"/>
        <pt x="690" y="-20" on="1"/>
      </contour>
      <contour>
        <pt x="537" y="-2" on="1"/>
        <pt x="560" y="-2" on="0"/>
        <pt x="609" y="24" on="0"/>
        <pt x="653" y="74" on="0"/>
        <pt x="686" y="149" on="0"/>
        <pt x="694" y="197" on="1"/>
        <pt x="705" y="635" on="1"/>
        <pt x="689" y="673" on="0"/>
        <pt x="648" y="729" on="0"/>
        <pt x="604" y="769" on="0"/>
        <pt x="559" y="795" on="0"/>
        <pt x="539" y="803" on="1"/>
        <pt x="516" y="803" on="0"/>
        <pt x="460" y="766" on="0"/>
        <pt x="412" y="666" on="0"/>
        <pt x="379" y="490" on="0"/>
        <pt x="379" y="350" on="1"/>
        <pt x="379" y="249" on="0"/>
        <pt x="406" y="113" on="0"/>
        <pt x="451" y="32" on="0"/>
        <pt x="508" y="-2" on="0"/>
      </contour>
    </TTGlyph>
    <TTGlyph name="dagger" xMin="66" yMin="-186" xMax="752" yMax="1624">
      <contour>
        <pt x="66" y="1251" on="1"/>
        <pt x="283" y="1233" on="1"/>
        <pt x="279" y="1624" on="1"/>
        <pt x="535" y="1624" on="1"/>
        <pt x="528" y="1235" on="1"/>
        <pt x="752" y="1257" on="1"/>
        <pt x="752" y="1180" on="1"/>
        <pt x="528" y="1198" on="1"/>
        <pt x="514" y="-186" on="1"/>
        <pt x="299" y="-186" on="1"/>
        <pt x="283" y="1196" on="1"/>
        <pt x="66" y="1174" on="1"/>
      </contour>
    </TTGlyph>
    <TTGlyph name="daggerdbl" xMin="68" yMin="-186" xMax="754" yMax="1624">
      <contour>
        <pt x="68" y="1251" on="1"/>
        <pt x="285" y="1233" on="1"/>
        <pt x="281" y="1624" on="1"/>
        <pt x="537" y="1624" on="1"/>
        <pt x="530" y="1235" on="1"/>
        <pt x="754" y="1257" on="1"/>
        <pt x="754" y="1180" on="1"/>
        <pt x="530" y="1198" on="1"/>
        <pt x="520" y="252" on="1"/>
        <pt x="711" y="274" on="1"/>
        <pt x="711" y="197" on="1"/>
        <pt x="520" y="215" on="1"/>
        <pt x="516" y="-186" on="1"/>
        <pt x="301" y="-186" on="1"/>
        <pt x="295" y="213" on="1"/>
        <pt x="117" y="190" on="1"/>
        <pt x="117" y="268" on="1"/>
        <pt x="295" y="250" on="1"/>
        <pt x="285" y="1196" on="1"/>
        <pt x="68" y="1174" on="1"/>
      </contour>
    </TTGlyph>
    <TTGlyph name="dcaron" xMin="66" yMin="-61" xMax="1443" yMax="1360">
      <component glyphName="d" x="0" y="0" flags="0x4"/>
      <component glyphName="uni0315" x="1171" y="0" flags="0x4"/>
    </TTGlyph>
    <TTGlyph name="dcroat" xMin="66" yMin="-61" xMax="1190" yMax="1341">
      <contour>
        <pt x="1124" y="987" on="1"/>
        <pt x="1006" y="989" on="1"/>
        <pt x="987" y="16" on="1"/>
        <pt x="1190" y="16" on="1"/>
        <pt x="1190" y="-20" on="1"/>
        <pt x="690" y="-20" on="1"/>
        <pt x="692" y="72" on="1"/>
        <pt x="688" y="52" on="0"/>
        <pt x="657" y="17" on="0"/>
        <pt x="613" y="-14" on="0"/>
        <pt x="562" y="-38" on="0"/>
        <pt x="515" y="-54" on="0"/>
        <pt x="480" y="-61" on="0"/>
        <pt x="473" y="-59" on="1"/>
        <pt x="395" y="-59" on="0"/>
        <pt x="274" y="-19" on="0"/>
        <pt x="183" y="48" on="0"/>
        <pt x="121" y="137" on="0"/>
        <pt x="83" y="236" on="0"/>
        <pt x="66" y="340" on="0"/>
        <pt x="66" y="387" on="1"/>
        <pt x="66" y="420" on="0"/>
        <pt x="84" y="516" on="0"/>
        <pt x="123" y="620" on="0"/>
        <pt x="185" y="723" on="0"/>
        <pt x="273" y="805" on="0"/>
        <pt x="389" y="856" on="0"/>
        <pt x="463" y="856" on="1"/>
        <pt x="499" y="856" on="0"/>
        <pt x="568" y="833" on="0"/>
        <pt x="630" y="794" on="0"/>
        <pt x="684" y="741" on="0"/>
        <pt x="705" y="711" on="1"/>
        <pt x="711" y="995" on="1"/>
        <pt x="508" y="1001" on="1"/>
        <pt x="508" y="1192" on="1"/>
        <pt x="715" y="1192" on="1"/>
        <pt x="717" y="1313" on="1"/>
        <pt x="500" y="1313" on="1"/>
        <pt x="500" y="1341" on="1"/>
        <pt x="1012" y="1341" on="1"/>
        <pt x="1008" y="1192" on="1"/>
        <pt x="1124" y="1192" on="1"/>
      </contour>
      <contour>
        <pt x="537" y="-2" on="1"/>
        <pt x="560" y="-2" on="0"/>
        <pt x="609" y="24" on="0"/>
        <pt x="653" y="74" on="0"/>
        <pt x="686" y="149" on="0"/>
        <pt x="694" y="197" on="1"/>
        <pt x="705" y="635" on="1"/>
        <pt x="689" y="673" on="0"/>
        <pt x="648" y="729" on="0"/>
        <pt x="604" y="769" on="0"/>
        <pt x="559" y="795" on="0"/>
        <pt x="539" y="803" on="1"/>
        <pt x="516" y="803" on="0"/>
        <pt x="460" y="766" on="0"/>
        <pt x="412" y="666" on="0"/>
        <pt x="379" y="490" on="0"/>
        <pt x="379" y="350" on="1"/>
        <pt x="379" y="249" on="0"/>
        <pt x="406" y="113" on="0"/>
        <pt x="451" y="32" on="0"/>
        <pt x="508" y="-2" on="0"/>
      </contour>
    </TTGlyph>
    <TTGlyph name="degree" xMin="80" yMin="1006" xMax="520" yMax="1405">
      <contour>
        <pt x="80" y="1206" on="1"/>
        <pt x="80" y="1242" on="0"/>
        <pt x="114" y="1314" on="0"/>
        <pt x="173" y="1370" on="0"/>
        <pt x="253" y="1405" on="0"/>
        <pt x="299" y="1405" on="1"/>
        <pt x="345" y="1405" on="0"/>
        <pt x="426" y="1370" on="0"/>
        <pt x="486" y="1314" on="0"/>
        <pt x="520" y="1242" on="0"/>
        <pt x="520" y="1206" on="1"/>
        <pt x="520" y="1171" on="0"/>
        <pt x="486" y="1099" on="0"/>
        <pt x="426" y="1042" on="0"/>
        <pt x="345" y="1006" on="0"/>
        <pt x="299" y="1006" on="1"/>
        <pt x="253" y="1006" on="0"/>
        <pt x="173" y="1041" on="0"/>
        <pt x="114" y="1098" on="0"/>
        <pt x="80" y="1169" on="0"/>
      </contour>
      <contour>
        <pt x="250" y="1206" on="1"/>
        <pt x="250" y="1185" on="0"/>
        <pt x="253" y="1133" on="0"/>
        <pt x="263" y="1087" on="0"/>
        <pt x="282" y="1055" on="0"/>
        <pt x="299" y="1055" on="1"/>
        <pt x="316" y="1055" on="0"/>
        <pt x="335" y="1087" on="0"/>
        <pt x="345" y="1133" on="0"/>
        <pt x="348" y="1185" on="0"/>
        <pt x="348" y="1206" on="1"/>
        <pt x="348" y="1226" on="0"/>
        <pt x="345" y="1279" on="0"/>
        <pt x="334" y="1326" on="0"/>
        <pt x="315" y="1358" on="0"/>
        <pt x="299" y="1358" on="1"/>
        <pt x="282" y="1358" on="0"/>
        <pt x="263" y="1326" on="0"/>
        <pt x="253" y="1279" on="0"/>
        <pt x="250" y="1226" on="0"/>
      </contour>
    </TTGlyph>
    <TTGlyph name="dieresis" xMin="0" yMin="1028" xMax="532" yMax="1280">
      <contour>
        <pt x="0" y="1155" on="1"/>
        <pt x="0" y="1180" on="0"/>
        <pt x="20" y="1225" on="0"/>
        <pt x="54" y="1259" on="0"/>
        <pt x="99" y="1280" on="0"/>
        <pt x="125" y="1280" on="1"/>
        <pt x="151" y="1280" on="0"/>
        <pt x="197" y="1260" on="0"/>
        <pt x="231" y="1226" on="0"/>
        <pt x="250" y="1180" on="0"/>
        <pt x="250" y="1155" on="1"/>
        <pt x="250" y="1098" on="0"/>
        <pt x="181" y="1028" on="0"/>
        <pt x="125" y="1028" on="1"/>
        <pt x="99" y="1028" on="0"/>
        <pt x="54" y="1047" on="0"/>
        <pt x="20" y="1082" on="0"/>
        <pt x="0" y="1128" on="0"/>
      </contour>
      <contour>
        <pt x="311" y="1157" on="1"/>
        <pt x="311" y="1178" on="0"/>
        <pt x="328" y="1218" on="0"/>
        <pt x="358" y="1249" on="0"/>
        <pt x="399" y="1268" on="0"/>
        <pt x="422" y="1268" on="1"/>
        <pt x="445" y="1268" on="0"/>
        <pt x="485" y="1250" on="0"/>
        <pt x="515" y="1220" on="0"/>
        <pt x="532" y="1179" on="0"/>
        <pt x="532" y="1157" on="1"/>
        <pt x="532" y="1108" on="0"/>
        <pt x="470" y="1044" on="0"/>
        <pt x="422" y="1044" on="1"/>
        <pt x="399" y="1044" on="0"/>
        <pt x="358" y="1061" on="0"/>
        <pt x="328" y="1091" on="0"/>
        <pt x="311" y="1133" on="0"/>
      </contour>
    </TTGlyph>
    <TTGlyph name="divide" xMin="129" yMin="545" xMax="745" yMax="750">
      <contour>
        <pt x="745" y="545" on="1"/>
        <pt x="129" y="559" on="1"/>
        <pt x="129" y="750" on="1"/>
        <pt x="745" y="750" on="1"/>
      </contour>
    </TTGlyph>
    <TTGlyph name="dollar" xMin="84" yMin="-182" xMax="1040" yMax="1544">
      <contour>
        <pt x="446" y="-182" on="1"/>
        <pt x="451" y="96" on="1"/>
        <pt x="384" y="107" on="0"/>
        <pt x="267" y="144" on="0"/>
        <pt x="175" y="197" on="0"/>
        <pt x="112" y="263" on="0"/>
        <pt x="100" y="303" on="1"/>
        <pt x="102" y="303" on="1"/>
        <pt x="94" y="323" on="0"/>
        <pt x="90" y="355" on="0"/>
        <pt x="90" y="371" on="1"/>
        <pt x="90" y="401" on="0"/>
        <pt x="110" y="447" on="0"/>
        <pt x="144" y="479" on="0"/>
        <pt x="188" y="496" on="0"/>
        <pt x="213" y="498" on="1"/>
        <pt x="244" y="498" on="0"/>
        <pt x="300" y="471" on="0"/>
        <pt x="342" y="422" on="0"/>
        <pt x="369" y="354" on="0"/>
        <pt x="371" y="313" on="1"/>
        <pt x="373" y="271" on="0"/>
        <pt x="412" y="194" on="0"/>
        <pt x="453" y="166" on="1"/>
        <pt x="459" y="532" on="1"/>
        <pt x="359" y="545" on="0"/>
        <pt x="217" y="612" on="0"/>
        <pt x="126" y="706" on="0"/>
        <pt x="84" y="823" on="0"/>
        <pt x="84" y="887" on="1"/>
        <pt x="84" y="990" on="0"/>
        <pt x="156" y="1128" on="0"/>
        <pt x="268" y="1212" on="0"/>
        <pt x="404" y="1252" on="0"/>
        <pt x="469" y="1257" on="1"/>
        <pt x="475" y="1540" on="1"/>
        <pt x="506" y="1540" on="1"/>
        <pt x="506" y="1262" on="1"/>
        <pt x="543" y="1262" on="1"/>
        <pt x="573" y="1262" on="1"/>
        <pt x="596" y="1262" on="0"/>
        <pt x="621" y="1257" on="1"/>
        <pt x="625" y="1544" on="1"/>
        <pt x="662" y="1544" on="1"/>
        <pt x="657" y="1255" on="1"/>
        <pt x="728" y="1247" on="0"/>
        <pt x="847" y="1209" on="0"/>
        <pt x="937" y="1154" on="0"/>
        <pt x="998" y="1084" on="0"/>
        <pt x="1010" y="1042" on="1"/>
        <pt x="1010" y="1044" on="1"/>
        <pt x="1015" y="1027" on="0"/>
        <pt x="1020" y="995" on="0"/>
        <pt x="1020" y="981" on="1"/>
        <pt x="1020" y="949" on="0"/>
        <pt x="998" y="902" on="0"/>
        <pt x="962" y="870" on="0"/>
        <pt x="915" y="854" on="0"/>
        <pt x="889" y="854" on="1"/>
        <pt x="858" y="854" on="0"/>
        <pt x="804" y="881" on="0"/>
        <pt x="763" y="930" on="0"/>
        <pt x="739" y="997" on="0"/>
        <pt x="739" y="1038" on="1"/>
        <pt x="739" y="1086" on="0"/>
        <pt x="704" y="1175" on="0"/>
        <pt x="657" y="1200" on="1"/>
        <pt x="653" y="766" on="1"/>
        <pt x="758" y="748" on="0"/>
        <pt x="906" y="682" on="0"/>
        <pt x="998" y="596" on="0"/>
        <pt x="1040" y="493" on="0"/>
        <pt x="1040" y="438" on="1"/>
        <pt x="1040" y="375" on="0"/>
        <pt x="1004" y="277" on="0"/>
        <pt x="943" y="202" on="0"/>
        <pt x="863" y="147" on="0"/>
        <pt x="776" y="111" on="0"/>
        <pt x="688" y="91" on="0"/>
        <pt x="649" y="88" on="1"/>
        <pt x="647" y="-178" on="1"/>
        <pt x="612" y="-178" on="1"/>
        <pt x="612" y="86" on="1"/>
        <pt x="580" y="86" on="1"/>
        <pt x="555" y="86" on="0"/>
        <pt x="509" y="90" on="0"/>
        <pt x="487" y="92" on="1"/>
        <pt x="483" y="-182" on="1"/>
      </contour>
      <contour>
        <pt x="616" y="772" on="1"/>
        <pt x="621" y="1217" on="1"/>
        <pt x="610" y="1220" on="0"/>
        <pt x="585" y="1223" on="0"/>
        <pt x="571" y="1225" on="1"/>
        <pt x="561" y="1225" on="1"/>
        <pt x="546" y="1225" on="0"/>
        <pt x="518" y="1221" on="0"/>
        <pt x="506" y="1214" on="1"/>
        <pt x="498" y="795" on="1"/>
        <pt x="516" y="785" on="0"/>
        <pt x="557" y="779" on="0"/>
        <pt x="582" y="776" on="1"/>
      </contour>
      <contour>
        <pt x="539" y="526" on="1"/>
        <pt x="526" y="526" on="0"/>
        <pt x="505" y="528" on="0"/>
        <pt x="494" y="528" on="1"/>
        <pt x="487" y="145" on="1"/>
        <pt x="506" y="136" on="0"/>
        <pt x="554" y="127" on="0"/>
        <pt x="580" y="127" on="1"/>
        <pt x="588" y="127" on="0"/>
        <pt x="604" y="127" on="0"/>
        <pt x="612" y="129" on="1"/>
        <pt x="616" y="514" on="1"/>
        <pt x="599" y="519" on="0"/>
        <pt x="560" y="524" on="0"/>
      </contour>
      <contour>
        <pt x="760" y="328" on="1"/>
        <pt x="760" y="379" on="0"/>
        <pt x="708" y="472" on="0"/>
        <pt x="651" y="500" on="1"/>
        <pt x="649" y="141" on="1"/>
        <pt x="675" y="153" on="0"/>
        <pt x="716" y="192" on="0"/>
        <pt x="745" y="242" on="0"/>
        <pt x="760" y="299" on="0"/>
      </contour>
      <contour>
        <pt x="377" y="987" on="1"/>
        <pt x="377" y="936" on="0"/>
        <pt x="416" y="844" on="0"/>
        <pt x="463" y="813" on="1"/>
        <pt x="469" y="1194" on="1"/>
        <pt x="448" y="1178" on="0"/>
        <pt x="414" y="1132" on="0"/>
        <pt x="390" y="1077" on="0"/>
        <pt x="377" y="1017" on="0"/>
      </contour>
    </TTGlyph>
    <TTGlyph name="dotaccent" xMin="0" yMin="1028" xMax="250" yMax="1280">
      <contour>
        <pt x="0" y="1155" on="1"/>
        <pt x="0" y="1180" on="0"/>
        <pt x="20" y="1225" on="0"/>
        <pt x="54" y="1259" on="0"/>
        <pt x="99" y="1280" on="0"/>
        <pt x="125" y="1280" on="1"/>
        <pt x="151" y="1280" on="0"/>
        <pt x="197" y="1260" on="0"/>
        <pt x="231" y="1226" on="0"/>
        <pt x="250" y="1180" on="0"/>
        <pt x="250" y="1155" on="1"/>
        <pt x="250" y="1098" on="0"/>
        <pt x="181" y="1028" on="0"/>
        <pt x="125" y="1028" on="1"/>
        <pt x="99" y="1028" on="0"/>
        <pt x="54" y="1047" on="0"/>
        <pt x="20" y="1082" on="0"/>
        <pt x="0" y="1128" on="0"/>
      </contour>
    </TTGlyph>
    <TTGlyph name="dotlessi" xMin="33" yMin="-2" xMax="655" yMax="793">
      <contour>
        <pt x="57" y="780" on="1"/>
        <pt x="502" y="793" on="1"/>
        <pt x="487" y="35" on="1"/>
        <pt x="655" y="35" on="1"/>
        <pt x="655" y="-2" on="1"/>
        <pt x="33" y="-2" on="1"/>
        <pt x="33" y="35" on="1"/>
        <pt x="199" y="35" on="1"/>
        <pt x="205" y="748" on="1"/>
        <pt x="57" y="743" on="1"/>
      </contour>
    </TTGlyph>
    <TTGlyph name="dotlessj" xMin="-362" yMin="-563" xMax="481" yMax="791">
      <contour>
        <pt x="481" y="-35" on="1"/>
        <pt x="481" y="-166" on="0"/>
        <pt x="406" y="-362" on="0"/>
        <pt x="280" y="-494" on="0"/>
        <pt x="117" y="-561" on="0"/>
        <pt x="29" y="-563" on="1"/>
        <pt x="-31" y="-563" on="0"/>
        <pt x="-168" y="-533" on="0"/>
        <pt x="-285" y="-467" on="0"/>
        <pt x="-362" y="-362" on="0"/>
        <pt x="-362" y="-287" on="1"/>
        <pt x="-362" y="-259" on="0"/>
        <pt x="-347" y="-205" on="0"/>
        <pt x="-317" y="-162" on="0"/>
        <pt x="-269" y="-131" on="0"/>
        <pt x="-236" y="-125" on="1"/>
        <pt x="-181" y="-116" on="0"/>
        <pt x="-109" y="-153" on="0"/>
        <pt x="-71" y="-217" on="0"/>
        <pt x="-62" y="-296" on="0"/>
        <pt x="-68" y="-328" on="1"/>
        <pt x="-73" y="-348" on="0"/>
        <pt x="-78" y="-390" on="0"/>
        <pt x="-78" y="-410" on="1"/>
        <pt x="-78" y="-431" on="0"/>
        <pt x="-69" y="-471" on="0"/>
        <pt x="-45" y="-503" on="0"/>
        <pt x="-3" y="-524" on="0"/>
        <pt x="29" y="-526" on="1"/>
        <pt x="76" y="-526" on="0"/>
        <pt x="137" y="-460" on="0"/>
        <pt x="172" y="-351" on="0"/>
        <pt x="186" y="-210" on="0"/>
        <pt x="186" y="-135" on="1"/>
        <pt x="186" y="750" on="1"/>
        <pt x="-2" y="750" on="1"/>
        <pt x="-2" y="786" on="1"/>
        <pt x="481" y="791" on="1"/>
      </contour>
    </TTGlyph>
    <TTGlyph name="e" xMin="63" yMin="-53" xMax="881" yMax="858">
      <contour>
        <pt x="881" y="502" on="1"/>
        <pt x="881" y="449" on="0"/>
        <pt x="813" y="364" on="0"/>
        <pt x="706" y="304" on="0"/>
        <pt x="575" y="269" on="0"/>
        <pt x="512" y="268" on="1"/>
        <pt x="508" y="268" on="0"/>
        <pt x="480" y="270" on="0"/>
        <pt x="440" y="281" on="0"/>
        <pt x="390" y="305" on="0"/>
        <pt x="365" y="328" on="1"/>
        <pt x="368" y="239" on="0"/>
        <pt x="395" y="112" on="0"/>
        <pt x="440" y="31" on="0"/>
        <pt x="501" y="-6" on="0"/>
        <pt x="537" y="-6" on="1"/>
        <pt x="558" y="-6" on="0"/>
        <pt x="629" y="22" on="0"/>
        <pt x="706" y="80" on="0"/>
        <pt x="780" y="170" on="0"/>
        <pt x="805" y="233" on="1"/>
        <pt x="834" y="307" on="1"/>
        <pt x="870" y="295" on="1"/>
        <pt x="854" y="250" on="1"/>
        <pt x="832" y="191" on="0"/>
        <pt x="760" y="85" on="0"/>
        <pt x="665" y="2" on="0"/>
        <pt x="549" y="-49" on="0"/>
        <pt x="483" y="-53" on="1"/>
        <pt x="368" y="-49" on="0"/>
        <pt x="208" y="25" on="0"/>
        <pt x="108" y="139" on="0"/>
        <pt x="63" y="279" on="0"/>
        <pt x="63" y="350" on="1"/>
        <pt x="63" y="397" on="0"/>
        <pt x="92" y="508" on="0"/>
        <pt x="148" y="621" on="0"/>
        <pt x="229" y="727" on="0"/>
        <pt x="332" y="809" on="0"/>
        <pt x="455" y="858" on="0"/>
        <pt x="526" y="858" on="1"/>
        <pt x="591" y="856" on="0"/>
        <pt x="694" y="821" on="0"/>
        <pt x="773" y="764" on="0"/>
        <pt x="829" y="692" on="0"/>
        <pt x="865" y="615" on="0"/>
        <pt x="881" y="536" on="0"/>
      </contour>
      <contour>
        <pt x="510" y="821" on="1"/>
        <pt x="478" y="819" on="0"/>
        <pt x="423" y="751" on="0"/>
        <pt x="384" y="634" on="0"/>
        <pt x="362" y="476" on="0"/>
        <pt x="362" y="385" on="1"/>
        <pt x="387" y="356" on="0"/>
        <pt x="437" y="324" on="0"/>
        <pt x="479" y="309" on="0"/>
        <pt x="507" y="305" on="0"/>
        <pt x="510" y="305" on="1"/>
        <pt x="549" y="306" on="0"/>
        <pt x="600" y="338" on="0"/>
        <pt x="629" y="394" on="0"/>
        <pt x="641" y="472" on="0"/>
        <pt x="641" y="520" on="1"/>
        <pt x="641" y="580" on="0"/>
        <pt x="626" y="689" on="0"/>
        <pt x="595" y="772" on="0"/>
        <pt x="545" y="821" on="0"/>
      </contour>
    </TTGlyph>
    <TTGlyph name="eacute" xMin="63" yMin="-53" xMax="908" yMax="1277">
      <component glyphName="e" x="0" y="0" flags="0x204"/>
      <component glyphName="acute" x="498" y="-77" flags="0x4"/>
    </TTGlyph>
    <TTGlyph name="ebreve" xMin="63" yMin="-53" xMax="881" yMax="1193">
      <component glyphName="e" x="0" y="0" flags="0x204"/>
      <component glyphName="breve" x="313" y="-38" flags="0x4"/>
    </TTGlyph>
    <TTGlyph name="ecaron" xMin="63" yMin="-53" xMax="881" yMax="1269">
      <component glyphName="e" x="0" y="0" flags="0x204"/>
      <component glyphName="caron" x="285" y="-19" flags="0x4"/>
    </TTGlyph>
    <TTGlyph name="ecircumflex" xMin="63" yMin="-53" xMax="881" yMax="1246">
      <component glyphName="e" x="0" y="0" flags="0x204"/>
      <component glyphName="circumflex" x="254" y="-52" flags="0x4"/>
    </TTGlyph>
    <TTGlyph name="edieresis" xMin="63" yMin="-53" xMax="881" yMax="1179">
      <component glyphName="e" x="0" y="0" flags="0x204"/>
      <component glyphName="dieresis" x="225" y="-101" flags="0x4"/>
    </TTGlyph>
    <TTGlyph name="edotaccent" xMin="63" yMin="-53" xMax="881" yMax="1201">
      <component glyphName="e" x="0" y="0" flags="0x204"/>
      <component glyphName="dotaccent" x="401" y="-79" flags="0x4"/>
    </TTGlyph>
    <TTGlyph name="egrave" xMin="63" yMin="-53" xMax="881" yMax="1283">
      <component glyphName="e" x="0" y="0" flags="0x204"/>
      <component glyphName="grave" x="123" y="-71" flags="0x4"/>
    </TTGlyph>
    <TTGlyph name="eight" xMin="104" yMin="-59" xMax="1251" yMax="1417">
      <contour>
        <pt x="688" y="-59" on="1"/>
        <pt x="573" y="-59" on="0"/>
        <pt x="362" y="-1" on="0"/>
        <pt x="200" y="96" on="0"/>
        <pt x="104" y="223" on="0"/>
        <pt x="104" y="291" on="1"/>
        <pt x="104" y="319" on="0"/>
        <pt x="117" y="393" on="0"/>
        <pt x="168" y="475" on="0"/>
        <pt x="267" y="560" on="0"/>
        <pt x="354" y="598" on="1"/>
        <pt x="229" y="655" on="0"/>
        <pt x="113" y="831" on="0"/>
        <pt x="113" y="942" on="1"/>
        <pt x="113" y="1040" on="0"/>
        <pt x="168" y="1186" on="0"/>
        <pt x="260" y="1291" on="0"/>
        <pt x="378" y="1359" on="0"/>
        <pt x="505" y="1399" on="0"/>
        <pt x="630" y="1416" on="0"/>
        <pt x="682" y="1417" on="1"/>
        <pt x="694" y="1417" on="1"/>
        <pt x="802" y="1417" on="0"/>
        <pt x="998" y="1373" on="0"/>
        <pt x="1148" y="1280" on="0"/>
        <pt x="1238" y="1133" on="0"/>
        <pt x="1241" y="1030" on="1"/>
        <pt x="1241" y="1029" on="0"/>
        <pt x="1236" y="998" on="0"/>
        <pt x="1219" y="948" on="0"/>
        <pt x="1187" y="886" on="0"/>
        <pt x="1134" y="822" on="0"/>
        <pt x="1054" y="760" on="0"/>
        <pt x="999" y="737" on="1"/>
        <pt x="1069" y="709" on="0"/>
        <pt x="1165" y="638" on="0"/>
        <pt x="1225" y="555" on="0"/>
        <pt x="1251" y="462" on="0"/>
        <pt x="1251" y="412" on="1"/>
        <pt x="1251" y="333" on="0"/>
        <pt x="1205" y="203" on="0"/>
        <pt x="1125" y="99" on="0"/>
        <pt x="1016" y="20" on="0"/>
        <pt x="891" y="-32" on="0"/>
        <pt x="756" y="-59" on="0"/>
        <pt x="690" y="-59" on="1"/>
      </contour>
      <contour>
        <pt x="684" y="1380" on="1"/>
        <pt x="636" y="1377" on="0"/>
        <pt x="554" y="1321" on="0"/>
        <pt x="494" y="1234" on="0"/>
        <pt x="461" y="1125" on="0"/>
        <pt x="461" y="1069" on="1"/>
        <pt x="461" y="1022" on="0"/>
        <pt x="488" y="934" on="0"/>
        <pt x="548" y="862" on="0"/>
        <pt x="642" y="812" on="0"/>
        <pt x="709" y="805" on="1"/>
        <pt x="736" y="802" on="0"/>
        <pt x="786" y="793" on="0"/>
        <pt x="811" y="788" on="1"/>
        <pt x="846" y="829" on="0"/>
        <pt x="886" y="931" on="0"/>
        <pt x="906" y="1022" on="0"/>
        <pt x="911" y="1088" on="0"/>
        <pt x="911" y="1092" on="1"/>
        <pt x="911" y="1139" on="0"/>
        <pt x="889" y="1241" on="0"/>
        <pt x="839" y="1325" on="0"/>
        <pt x="755" y="1380" on="0"/>
        <pt x="694" y="1380" on="1"/>
      </contour>
      <contour>
        <pt x="690" y="-23" on="1"/>
        <pt x="740" y="-23" on="0"/>
        <pt x="819" y="24" on="0"/>
        <pt x="874" y="100" on="0"/>
        <pt x="903" y="199" on="0"/>
        <pt x="903" y="250" on="1"/>
        <pt x="903" y="297" on="0"/>
        <pt x="873" y="389" on="0"/>
        <pt x="815" y="464" on="0"/>
        <pt x="727" y="516" on="0"/>
        <pt x="670" y="524" on="1"/>
        <pt x="585" y="530" on="0"/>
        <pt x="518" y="545" on="1"/>
        <pt x="494" y="505" on="0"/>
        <pt x="469" y="405" on="0"/>
        <pt x="457" y="315" on="0"/>
        <pt x="455" y="252" on="0"/>
        <pt x="455" y="248" on="1"/>
        <pt x="455" y="200" on="0"/>
        <pt x="481" y="104" on="0"/>
        <pt x="536" y="27" on="0"/>
        <pt x="625" y="-22" on="0"/>
        <pt x="688" y="-23" on="1"/>
      </contour>
    </TTGlyph>
    <TTGlyph name="ellipsis" xMin="96" yMin="-37" xMax="1630" yMax="346">
      <contour>
        <pt x="479" y="154" on="1"/>
        <pt x="479" y="115" on="0"/>
        <pt x="449" y="45" on="0"/>
        <pt x="397" y="-7" on="0"/>
        <pt x="327" y="-37" on="0"/>
        <pt x="287" y="-37" on="1"/>
        <pt x="248" y="-37" on="0"/>
        <pt x="178" y="-7" on="0"/>
        <pt x="126" y="45" on="0"/>
        <pt x="96" y="115" on="0"/>
        <pt x="96" y="154" on="1"/>
        <pt x="96" y="194" on="0"/>
        <pt x="126" y="264" on="0"/>
        <pt x="178" y="316" on="0"/>
        <pt x="248" y="346" on="0"/>
        <pt x="287" y="346" on="1"/>
        <pt x="327" y="346" on="0"/>
        <pt x="397" y="316" on="0"/>
        <pt x="449" y="264" on="0"/>
        <pt x="479" y="194" on="0"/>
      </contour>
      <contour>
        <pt x="1055" y="154" on="1"/>
        <pt x="1055" y="115" on="0"/>
        <pt x="1025" y="45" on="0"/>
        <pt x="972" y="-7" on="0"/>
        <pt x="902" y="-37" on="0"/>
        <pt x="862" y="-37" on="1"/>
        <pt x="823" y="-37" on="0"/>
        <pt x="754" y="-7" on="0"/>
        <pt x="702" y="45" on="0"/>
        <pt x="672" y="115" on="0"/>
        <pt x="672" y="154" on="1"/>
        <pt x="672" y="194" on="0"/>
        <pt x="702" y="264" on="0"/>
        <pt x="754" y="316" on="0"/>
        <pt x="823" y="346" on="0"/>
        <pt x="862" y="346" on="1"/>
        <pt x="902" y="346" on="0"/>
        <pt x="972" y="316" on="0"/>
        <pt x="1025" y="264" on="0"/>
        <pt x="1055" y="194" on="0"/>
      </contour>
      <contour>
        <pt x="1630" y="154" on="1"/>
        <pt x="1630" y="115" on="0"/>
        <pt x="1600" y="45" on="0"/>
        <pt x="1548" y="-7" on="0"/>
        <pt x="1478" y="-37" on="0"/>
        <pt x="1438" y="-37" on="1"/>
        <pt x="1399" y="-37" on="0"/>
        <pt x="1329" y="-7" on="0"/>
        <pt x="1277" y="45" on="0"/>
        <pt x="1247" y="115" on="0"/>
        <pt x="1247" y="154" on="1"/>
        <pt x="1247" y="194" on="0"/>
        <pt x="1277" y="264" on="0"/>
        <pt x="1329" y="316" on="0"/>
        <pt x="1399" y="346" on="0"/>
        <pt x="1438" y="346" on="1"/>
        <pt x="1478" y="346" on="0"/>
        <pt x="1548" y="316" on="0"/>
        <pt x="1600" y="264" on="0"/>
        <pt x="1630" y="194" on="0"/>
      </contour>
    </TTGlyph>
    <TTGlyph name="emacron" xMin="63" yMin="-53" xMax="881" yMax="1111">
      <component glyphName="e" x="0" y="0" flags="0x204"/>
      <component glyphName="macron" x="276" y="-38" flags="0x4"/>
    </TTGlyph>
    <TTGlyph name="emdash" xMin="117" yMin="545" xMax="1346" yMax="750">
      <contour>
        <pt x="1346" y="545" on="1"/>
        <pt x="117" y="559" on="1"/>
        <pt x="117" y="750" on="1"/>
        <pt x="1346" y="750" on="1"/>
      </contour>
    </TTGlyph>
    <TTGlyph name="endash" xMin="117" yMin="545" xMax="938" yMax="750">
      <contour>
        <pt x="938" y="545" on="1"/>
        <pt x="117" y="559" on="1"/>
        <pt x="117" y="750" on="1"/>
        <pt x="938" y="750" on="1"/>
      </contour>
    </TTGlyph>
</ttFont>
